<svg width="60" height="60" viewBox="0 0 60 60" fill="none" xmlns="http://www.w3.org/2000/svg">
<path d="M1.875 20.625H58.125V39.375H1.875V20.625Z" fill="white"/>
<path d="M9.375 7.5H50.625C54.765 7.5 58.125 10.86 58.125 15V22.5H1.875V15C1.875 10.86 5.235 7.5 9.375 7.5Z" fill="#E06535"/>
<path d="M50.625 52.5L9.375 52.5C5.235 52.5 1.875 49.14 1.875 45V37.5L58.125 37.5V45C58.125 49.14 54.765 52.5 50.625 52.5Z" fill="#2C6837"/>
<path opacity="0.15" d="M50.625 7.5H9.375C5.23312 7.5 1.875 10.8581 1.875 15V45C1.875 49.1419 5.23312 52.5 9.375 52.5H50.625C54.7669 52.5 58.125 49.1419 58.125 45V15C58.125 10.8581 54.7669 7.5 50.625 7.5ZM56.25 45C56.25 48.1012 53.7262 50.625 50.625 50.625H9.375C6.27375 50.625 3.75 48.1012 3.75 45V15C3.75 11.8987 6.27375 9.375 9.375 9.375H50.625C53.7262 9.375 56.25 11.8987 56.25 15V45Z" fill="black"/>
<path d="M30.0004 23.0479C26.1604 23.0479 23.0479 26.1604 23.0479 30.0004C23.0479 33.8404 26.1604 36.9529 30.0004 36.9529C33.8404 36.9529 36.9529 33.8404 36.9529 30.0004C36.9529 26.1604 33.8404 23.0479 30.0004 23.0479ZM35.7022 30.7522C35.6835 30.8947 35.781 31.0241 35.9216 31.0466C35.8597 31.3954 35.7716 31.7347 35.6535 32.0591C35.5203 32.0066 35.3685 32.0703 35.3141 32.2035C35.2597 32.3366 35.3216 32.4866 35.451 32.5447C35.376 32.7041 35.2954 32.8579 35.2072 33.0097L32.1866 31.0054L31.0766 30.5385C31.101 30.4897 31.1216 30.4391 31.1404 30.3866L32.256 30.8404L35.8091 31.5585L32.3722 30.4035L31.1797 30.2404C31.191 30.1879 31.1966 30.1335 31.2003 30.0772L32.3966 30.2272L36.0154 30.0022L32.3966 29.7772L31.2003 29.9272C31.1966 29.871 31.191 29.8166 31.1797 29.7641L32.3722 29.601L35.8091 28.446L32.256 29.1641L31.1404 29.6179C31.1235 29.5654 31.101 29.5147 31.0766 29.466L32.1866 28.9991L35.2072 26.9947C35.2954 27.1466 35.376 27.3004 35.451 27.4597C35.3197 27.5179 35.2579 27.6679 35.3141 27.801C35.3685 27.9341 35.5203 27.9979 35.6535 27.9454C35.7716 28.2697 35.8616 28.6091 35.9216 28.9579C35.781 28.9804 35.6835 29.1097 35.7022 29.2522C35.721 29.3947 35.8485 29.4941 35.991 29.4791C36.006 29.6516 36.0154 29.826 36.0154 30.0022C36.0154 30.1785 36.006 30.3529 35.991 30.5254C35.8504 30.5104 35.721 30.6097 35.7022 30.7522ZM34.6072 26.136C34.4966 26.226 34.476 26.3872 34.5641 26.4997C34.6504 26.6122 34.8116 26.6347 34.9279 26.5522C35.0272 26.6947 35.121 26.8429 35.2072 26.9947L31.9635 28.6091L31.0035 29.3366C30.9735 29.2916 30.9397 29.2485 30.9022 29.2072L31.8547 28.4685L34.2547 25.7497L31.536 28.1497L30.7972 29.1022C30.756 29.0666 30.7129 29.031 30.6679 29.001L31.3954 28.041L33.0097 24.7954C33.1616 24.8835 33.3097 24.9772 33.4522 25.0766C33.3679 25.191 33.3904 25.3522 33.5047 25.4404C33.6191 25.5266 33.7804 25.5079 33.8685 25.3972C34.0016 25.5097 34.1329 25.6279 34.2566 25.7516C34.3804 25.8754 34.4985 26.0047 34.611 26.1397L34.6072 26.136ZM30.5254 24.0116C30.5104 24.1522 30.6097 24.2816 30.7522 24.3004C30.8947 24.3191 31.0241 24.2216 31.0466 24.081C31.3954 24.1429 31.7347 24.231 32.0591 24.3491C32.0066 24.4822 32.0703 24.6341 32.2035 24.6885C32.3366 24.7429 32.4866 24.681 32.5447 24.5516C32.7041 24.6266 32.8579 24.7072 33.0097 24.7954L31.0054 27.816L30.5385 28.926C30.4897 28.9016 30.4391 28.881 30.3866 28.8622L30.8404 27.7466L31.5585 24.1935L30.4035 27.6304L30.2404 28.8229C30.1879 28.8116 30.1335 28.806 30.0772 28.8022L30.2272 27.606L30.0022 23.9872L29.7772 27.606L29.9272 28.8022C29.871 28.806 29.8166 28.8116 29.7641 28.8229L29.601 27.6304L28.446 24.1935L29.1641 27.7466L29.6179 28.8622C29.5654 28.8791 29.5147 28.9016 29.466 28.926L28.9991 27.816L26.9947 24.7954C27.1466 24.7072 27.3004 24.6266 27.4597 24.5516C27.5179 24.6829 27.6679 24.7447 27.801 24.6885C27.9341 24.6341 27.9979 24.4822 27.9454 24.3491C28.2697 24.231 28.6091 24.141 28.9579 24.081C28.9804 24.2216 29.1097 24.3191 29.2522 24.3004C29.3947 24.2816 29.4941 24.1541 29.4791 24.0116C29.6516 23.9966 29.826 23.9872 30.0022 23.9872C30.1785 23.9872 30.3529 23.9966 30.5254 24.0116ZM24.6885 32.2016C24.6341 32.0685 24.4822 32.0047 24.3491 32.0572C24.231 31.7329 24.141 31.3935 24.081 31.0447C24.2216 31.0222 24.3191 30.8929 24.3004 30.7504C24.2816 30.6079 24.1541 30.5085 24.0116 30.5235C23.9966 30.351 23.9872 30.1766 23.9872 30.0004C23.9872 29.8241 23.9966 29.6497 24.0116 29.4772C24.1522 29.4922 24.2816 29.3929 24.3004 29.2504C24.3191 29.1079 24.2216 28.9785 24.081 28.956C24.1429 28.6072 24.231 28.2679 24.3491 27.9435C24.4822 27.996 24.6341 27.9322 24.6885 27.7991C24.7429 27.666 24.681 27.516 24.5516 27.4579C24.6266 27.2985 24.7072 27.1447 24.7954 26.9929L27.816 28.9972L28.926 29.4641C28.9016 29.5129 28.881 29.5635 28.8622 29.616L27.7466 29.1622L24.1935 28.4441L27.6304 29.5991L28.8229 29.7622C28.8116 29.8147 28.806 29.8691 28.8022 29.9254L27.606 29.7754L23.9872 30.0004L27.606 30.2254L28.8022 30.0754C28.806 30.1316 28.8116 30.186 28.8229 30.2385L27.6304 30.4016L24.1935 31.5566L27.7466 30.8385L28.8622 30.3847C28.8791 30.4372 28.9016 30.4879 28.926 30.5366L27.816 31.0035L24.7954 33.0079C24.7072 32.856 24.6266 32.7022 24.5516 32.5429C24.6829 32.4847 24.7447 32.3347 24.6885 32.2016ZM26.136 25.3954C26.226 25.506 26.3872 25.5266 26.4997 25.4385C26.6122 25.3522 26.6347 25.191 26.5522 25.0747C26.6947 24.9754 26.8429 24.8797 26.9947 24.7935L28.6091 28.0391L29.3366 28.9991C29.2916 29.0291 29.2485 29.0629 29.2072 29.1004L28.4685 28.1479L25.7497 25.7479L28.1497 28.4666L29.1022 29.2054C29.0666 29.2466 29.031 29.2897 29.001 29.3347L28.041 28.6072L24.7954 26.9929C24.8835 26.841 24.9772 26.6929 25.0766 26.5504C25.191 26.6347 25.3522 26.6122 25.4404 26.4979C25.5266 26.3835 25.5079 26.2222 25.3972 26.1341C25.5097 26.001 25.6279 25.8697 25.7516 25.746C25.8754 25.6222 26.0047 25.5041 26.1397 25.3916L26.136 25.3954ZM25.3954 33.8666C25.506 33.7766 25.5266 33.6154 25.4385 33.5029C25.3522 33.3904 25.191 33.3679 25.0747 33.4504C24.9754 33.3079 24.8797 33.1597 24.7935 33.0079L28.0391 31.3935L28.9991 30.666C29.0291 30.711 29.0629 30.7541 29.1004 30.7954L28.1479 31.5341L25.7479 34.2529L28.4666 31.8529L29.2054 30.9004C29.2466 30.936 29.2897 30.9716 29.3347 31.0016L28.6072 31.9616L26.9929 35.2072C26.841 35.1191 26.6929 35.0254 26.5504 34.926C26.6347 34.8116 26.6122 34.6504 26.4979 34.5622C26.3835 34.476 26.2222 34.4947 26.1341 34.6053C26.001 34.4929 25.8697 34.3747 25.746 34.251C25.6222 34.1272 25.5041 33.9979 25.3916 33.8629L25.3954 33.8666ZM29.4772 35.991C29.4922 35.8504 29.3929 35.721 29.2504 35.7022C29.1079 35.6835 28.9785 35.781 28.956 35.9216C28.6072 35.8597 28.2679 35.7716 27.9435 35.6535C27.996 35.5203 27.9322 35.3685 27.7991 35.3141C27.666 35.2597 27.516 35.3216 27.4579 35.451C27.2985 35.376 27.1447 35.2954 26.9929 35.2072L28.9972 32.1866L29.4641 31.0766C29.5129 31.101 29.5635 31.1216 29.616 31.1404L29.1622 32.256L28.4441 35.8091L29.5991 32.3722L29.7622 31.1797C29.8147 31.191 29.8691 31.1966 29.9254 31.2003L29.7754 32.3966L30.0004 36.0154L30.2254 32.3966L30.0754 31.2003C30.1316 31.1966 30.186 31.191 30.2385 31.1797L30.4016 32.3722L31.5566 35.8091L30.8385 32.256L30.3847 31.1404C30.4372 31.1235 30.4879 31.101 30.5366 31.0766L31.0035 32.1866L33.0079 35.2072C32.856 35.2954 32.7022 35.376 32.5429 35.451C32.4847 35.3197 32.3347 35.2579 32.2016 35.3141C32.0685 35.3685 32.0047 35.5203 32.0572 35.6535C31.7329 35.7716 31.3935 35.8616 31.0447 35.9216C31.0222 35.781 30.8929 35.6835 30.7504 35.7022C30.6079 35.721 30.5085 35.8485 30.5235 35.991C30.351 36.006 30.1766 36.0154 30.0004 36.0154C29.8241 36.0154 29.6497 36.006 29.4772 35.991ZM33.8666 34.6072C33.7766 34.4966 33.6154 34.476 33.5029 34.5641C33.3904 34.6504 33.3679 34.8116 33.4504 34.9279C33.3079 35.0272 33.1597 35.121 33.0079 35.2072L31.3935 31.9635L30.666 31.0035C30.711 30.9735 30.7541 30.9397 30.7954 30.9022L31.5341 31.8547L34.2529 34.2547L31.8529 31.536L30.9004 30.7972C30.936 30.756 30.9716 30.7129 31.0016 30.6679L31.9616 31.3954L35.2072 33.0097C35.1191 33.1616 35.0254 33.3097 34.926 33.4522C34.8116 33.3679 34.6504 33.3904 34.5622 33.5047C34.476 33.6191 34.4947 33.7804 34.6053 33.8685C34.4929 34.0016 34.3747 34.1329 34.251 34.2566C34.1272 34.3804 33.9979 34.4985 33.8629 34.611L33.8666 34.6072Z" fill="#2C2C6B"/>
<path opacity="0.2" d="M50.625 9.375H9.375C6.26813 9.375 3.75 11.8931 3.75 15V16.875C3.75 13.7681 6.26813 11.25 9.375 11.25H50.625C53.7319 11.25 56.25 13.7681 56.25 16.875V15C56.25 11.8931 53.7319 9.375 50.625 9.375Z" fill="white"/>
</svg>
