<svg width="83" height="74" viewBox="0 0 83 74" fill="none" xmlns="http://www.w3.org/2000/svg">
<path d="M80.9414 65.9481C79.9688 67.2599 78.4399 66.9604 77.1576 67.3725C76.42 67.2396 75.8421 67.5718 75.1137 67.4668C74.4087 67.4254 73.7544 67.5373 73.0694 67.5602C71.7644 67.9237 70.4068 68.0605 69.0555 67.9648C67.7026 68.168 66.3324 68.2303 64.9667 68.1508C63.6154 68.3682 62.2437 68.4309 60.8782 68.3376C60.3329 68.7643 59.4536 68.2228 58.9107 68.6507C58.1449 68.4284 57.5577 68.747 56.7919 68.5248C55.5466 68.9307 54.0289 68.5383 52.778 68.9294C52.0993 68.7954 51.3983 68.8274 50.7347 69.0225C50.0568 68.8693 49.3501 68.9019 48.6892 69.1169C48.1589 69.0232 47.6181 69.0038 47.0824 69.0592C46.9266 69.0686 46.7567 69.2028 46.6443 69.21C45.8999 69.2386 45.2197 69.0566 44.5256 69.0841C44.4482 69.0879 44.2993 69.3079 44.2348 69.3067C43.8094 69.2936 43.114 69.1518 42.4826 69.1781C42.4055 69.1813 42.2572 69.4016 42.1933 69.4007C41.7764 69.3872 41.0571 69.2496 40.4408 69.2727C40.0865 69.2859 39.7961 69.4876 39.4215 69.5023C38.8946 69.522 38.3722 69.4563 37.8137 69.4448C37.51 69.4381 37.2571 69.5008 36.8659 69.5277C35.5147 69.6249 33.7793 69.4591 32.2655 69.6464C26.752 69.7159 21.2499 69.8188 15.759 69.9548C15.682 70.4753 15.2766 71.7439 14.7566 72.0098C14.254 72.7954 13.5043 72.8721 12.795 73.0517C12.1721 73.3617 11.5115 73.5894 10.8298 73.7289C10.1395 73.8543 9.41527 73.8708 8.71405 73.9689C8.35839 73.8455 7.97094 73.8492 7.61772 73.9794C7.2548 73.802 6.84932 73.7303 6.44755 73.7725C3.4099 72.5382 1.66911 70.8558 0.628522 68.9364C0.311679 66.535 0.913867 64.1025 2.31442 62.1262C2.44242 61.3893 1.80185 60.9181 1.56663 60.3073C1.3617 59.6856 1.40885 58.9781 1.03638 58.413C1.2077 57.7842 0.851876 57.34 0.947435 56.7347C0.857414 56.2371 1.11368 55.6187 0.787057 55.203C0.858891 54.1081 0.848073 53.0092 0.754657 51.9159C1.06374 50.6896 1.46701 49.4889 1.96095 48.3246C2.30345 47.7568 2.68862 47.2158 3.11316 46.7064C3.85358 45.8985 4.58588 45.0699 5.50441 44.7836C5.6923 43.986 5.03832 43.4787 5.04537 42.7448C4.83893 42.1246 4.95487 41.3925 4.73359 40.7779C4.80842 38.5613 5.20494 36.3673 5.91077 34.2648C8.0559 29.0217 11.0019 26.1072 14.5105 24.83C14.681 24.1206 14.1523 23.651 14.1281 23.0078C14.107 22.3732 14.0514 21.7402 13.9616 21.1117C14.0523 18.8419 15.0961 16.243 16.5901 13.49C16.632 13.3877 16.706 13.3017 16.801 13.2451C16.9043 13.1838 16.9826 13.0881 17.0221 12.9748C18.553 10.7972 20.452 9.6899 22.2358 8.24818C22.8236 8.18402 23.2922 7.76904 23.836 7.57521C24.3916 7.41592 25.0057 7.42354 25.4356 6.90194L26.8675 3.96602C27.3185 3.69646 27.6924 3.31524 27.9533 2.85915C28.9365 2.28679 29.9159 1.70353 30.9322 1.22295C31.7422 1.21192 32.4684 0.954298 33.2661 0.907825C33.7692 1.03323 34.2848 1.10155 34.8032 1.11152L37.152 2.25713C39.1636 3.8432 40.0219 5.83097 40.7862 7.84548C40.7077 8.76913 40.9801 9.57041 40.5224 10.6252C41.6048 11.7184 42.6167 12.8793 43.5521 14.1008C46.2966 15.7608 48.0415 17.765 49.889 19.7354C50.8703 20.7003 51.4127 21.8163 52.4037 22.7768C52.9738 23.8421 54.124 24.7086 54.7705 25.7461C58.1301 29.6689 61.2908 33.7579 64.2407 37.9975C65.7599 40.0814 67.4787 42.0941 69.0496 44.1587C70.957 46.0668 73.008 47.9255 74.3671 50.0229C76.3786 51.9363 77.3118 54.2185 78.7386 56.3353C79.928 58.4906 81.5855 60.4848 82.3081 62.8004C82.0139 63.3283 81.798 63.8963 81.6672 64.4864C81.4796 64.7034 81.3692 64.9764 81.3535 65.2628C81.3398 65.4218 81.3033 65.5779 81.2453 65.7265C81.2166 65.7855 81.1739 65.8365 81.1209 65.8751C81.0679 65.9137 81.0063 65.9388 80.9414 65.9481ZM62.0988 58.7558C62.7544 58.5342 63.4291 57.9384 64.2067 57.7861C64.2907 57.7688 64.4142 57.9266 64.5005 57.9294C64.5644 57.9302 64.7115 57.7109 64.7901 57.7061C65.0441 57.6939 65.2015 57.838 65.4485 57.8465C65.5594 57.8499 65.9074 57.7534 66.0337 57.7674C67.0869 57.8841 69.1256 59.1091 69.85 59.6287C70.3767 60.3111 70.7355 61.1078 70.8973 61.9544C71.2159 62.292 71.0921 62.783 71.2007 63.1929C71.34 63.6329 70.9328 64.2631 71.4326 64.578C72.7498 64.6154 73.9695 64.3785 75.3033 64.4671C76.5007 64.1626 77.8849 64.3991 78.8714 63.4851C75.4708 57.4488 70.7783 51.8599 66.6437 46.0729C66.0199 45.9146 65.7247 46.7167 65.1904 46.8183C64.6639 46.9597 64.1278 47.0624 63.5863 47.1256C62.7214 47.1492 61.8583 47.0345 61.0296 46.7861C59.5818 46.2903 58.3226 45.3592 57.4243 44.1202C56.6971 43.1266 56.2697 41.9454 56.1929 40.7165C56.116 39.4876 56.3928 38.2624 56.9905 37.1859C57.3795 36.3063 57.9864 36.0572 58.5078 35.5635C55.5867 32.3754 53.4267 28.9262 50.5954 25.7076C48.0408 22.3526 45.5326 18.9816 41.227 16.2321C40.6261 16.4574 40.0816 16.8112 39.6316 17.2689C38.9679 17.349 38.3061 17.4406 37.6643 17.5813C37.3505 18.5626 36.7887 18.8216 36.3682 19.493C35.7048 19.8594 35.0734 20.2811 34.4808 20.7534C33.2683 21.1338 32.0257 21.4238 30.8399 21.8845C29.5264 21.972 28.2883 22.5294 27.3518 23.4546C26.1783 25.5676 27.2984 26.8928 26.7466 28.7917C26.4511 29.3682 26.1655 29.9707 25.8781 30.5724C25.3087 31.8639 24.6403 33.1095 23.8788 34.2979C23.1233 34.8762 22.3979 35.4929 21.7057 36.1457C21.0564 36.9807 20.1856 37.1708 19.6837 38.4308C19.2763 41.5035 20.6441 43.9659 19.5532 47.2708L18.6936 49.0332C17.0694 51.644 14.8703 52.5928 13.202 55.0769C13.3366 56.4554 14.0419 57.6373 14.627 58.8611C14.9006 60.1916 15.5608 61.3901 15.8344 62.7206C15.9348 63.1783 16.0121 63.6408 16.0661 64.1063C16.3024 64.552 15.8456 65.2404 16.4458 65.5619C20.0695 65.5636 23.6869 65.5394 27.3298 65.6011C29.1474 65.5567 30.9635 65.5109 32.7327 65.3287C34.4836 64.9594 36.2715 64.7948 38.0605 64.8381C38.8487 64.5275 39.7942 64.6711 40.6127 64.4472C41.5646 64.491 42.436 64.3043 43.3876 64.3472C45.2481 64.4228 47.0486 64.336 48.9398 64.5113C52.6712 64.7046 56.2568 64.4759 59.8956 64.4033C59.8852 63.0954 60.1741 61.8025 60.7402 60.6235C61.0702 59.9205 61.5312 59.2869 62.0985 58.7565L62.0988 58.7558ZM66.1629 63.4642C66.4166 63.6106 66.5613 63.4317 66.8214 63.6024C67.5207 63.7703 66.7267 64.4492 67.1969 64.6929C67.7246 64.4497 68.444 64.7719 69.0206 64.675C69.1527 64.0623 69.1251 63.426 68.9405 62.827C68.7559 62.2281 68.4205 61.6867 67.9664 61.2547C68.0807 61.9336 67.3809 62.6971 66.6607 62.0713C66.7328 61.9235 66.6277 61.8382 66.6577 61.7053C66.7012 61.5791 66.773 61.4645 66.8675 61.3701C66.962 61.2757 67.0767 61.2041 67.203 61.1607C67.3293 61.1173 67.4638 61.1032 67.5963 61.1194C67.7289 61.1357 67.8559 61.1819 67.9679 61.2547L68.04 61.1069C67.7049 60.5721 66.5913 60.3035 65.912 59.8882C65.1087 60.0102 64.3251 60.2383 63.5818 60.5666C63.0531 61.7866 62.8401 63.1201 62.9625 64.4441C63.9088 64.5512 64.8616 64.5906 65.8135 64.5619C65.8608 64.2655 65.9331 63.9737 66.0295 63.6895C66.067 63.6108 66.1112 63.5354 66.1619 63.4645L66.1629 63.4642ZM58.4924 41.1875C58.5178 41.7372 58.7007 42.268 59.0194 42.7165C59.0811 42.8132 59.0929 43.0495 59.1702 43.153C60.1519 43.7574 60.9021 43.6907 61.8838 44.2951C62.3645 44.2739 62.9538 44.5651 63.4194 44.4988C63.912 44.3927 64.5326 44.6583 64.8762 44.1196C64.8104 43.4917 64.1443 43.0684 63.8401 42.5231C63.4258 41.9471 62.9554 41.4137 62.4358 40.9307C62.1634 40.3186 61.7286 39.7927 61.1787 39.4101C60.8475 38.8117 60.4506 38.2521 59.9953 37.7417C59.5696 38.0697 59.2301 38.4965 59.0063 38.985C58.6731 39.6719 58.4972 40.4244 58.4915 41.1879L58.4924 41.1875ZM25.5746 21.4966C26.1698 21.098 26.7233 20.577 27.3151 20.1653C27.9785 19.9448 28.6129 19.6448 29.2043 19.2718C30.1814 19.036 31.141 18.7494 32.1193 18.5127C32.7397 18.1057 33.3963 17.7569 34.0809 17.4708C34.5857 16.69 35.3355 16.6224 35.892 15.9916C36.9177 15.5414 38.174 15.7609 39.0202 14.795C39.3889 14.0175 38.9323 13.5226 39.0744 12.8235C38.9576 12.3575 38.1071 12.9772 37.8996 12.2506C38.7804 10.3192 37.9191 8.9872 37.7074 7.43201C37.0456 6.43846 36.6297 5.3592 35.4865 4.53394L33.872 3.74647C33.4577 3.80764 33.0355 3.78741 32.629 3.68697C30.9321 4.31652 29.1778 4.77978 28.1389 7.3115C29.2676 8.18494 30.8035 8.91814 29.8502 10.5085C29.1419 11.4071 27.8134 10.4982 26.7069 10.2474C26.4471 10.3322 26.1777 10.3839 25.905 10.4015C25.5027 10.5413 25.1137 10.7164 24.7423 10.9249C24.4446 11.0701 24.1213 11.0757 23.8696 11.226C23.7142 11.3181 23.6365 11.5146 23.5081 11.5949C23.2322 11.7521 22.9655 11.925 22.7095 12.1129C21.3487 13.0988 20.153 14.2944 19.1669 15.6551C17.4254 18.9822 16.554 22.0108 16.9904 24.5876C17.1906 24.5895 17.3882 24.6334 17.5703 24.7167C17.7524 24.7999 17.915 24.9206 18.0474 25.0708C18.1798 25.2209 18.2793 25.3973 18.3391 25.5884C18.3989 25.7795 18.4178 25.981 18.3946 26.1799C17.84 27.7621 16.6041 27.3703 15.6354 27.741C13.6924 28.7171 12.0051 30.1346 10.7083 31.8799C9.31802 34.2599 8.35463 36.8648 7.86178 39.5767C7.80844 40.6533 7.89202 41.7323 8.11051 42.7879C8.22078 43.8905 9.08633 44.7316 8.50861 46.0711C9.54917 46.4463 10.1243 46.9802 9.84011 47.811C9.5929 48.6047 8.81298 48.7325 8.31959 49.0681C7.33536 49.6307 6.47338 50.3842 5.78435 51.2844L4.42389 54.0738C3.91664 56.0499 4.11844 58.1414 4.9941 59.9841C5.74355 60.153 6.23134 59.5576 7.11407 60.1106C7.68461 60.5704 7.26239 61.371 6.84076 62.1704C6.71364 62.4109 6.58536 62.6568 6.48493 62.8907C6.01929 63.1744 5.53316 63.4231 5.03068 63.6348C4.26659 64.587 3.77333 65.7276 3.60269 66.9364C3.79417 67.1877 3.89959 67.4939 3.90339 67.8098C4.38287 68.2838 4.89974 68.7185 5.44891 69.1096C6.30437 69.5142 7.22011 69.7764 8.16008 69.8859C8.99476 69.9437 9.91178 70.2419 10.5697 69.7892C9.54931 69.5656 8.56324 69.207 7.6376 68.7229C7.48344 68.287 6.5274 68.1277 6.96703 67.4884C7.60126 66.6082 9.01916 68.0053 9.89282 67.8234C10.3517 68.0398 10.8501 68.1593 11.3572 68.1746C11.8397 68.1589 12.494 68.6346 12.8176 68.1602C12.6097 67.5786 11.7018 67.9767 11.1322 67.5197C10.4461 67.3296 9.78234 67.0667 9.15222 66.7355C8.9705 66.3096 8.42188 66.0095 8.70094 65.4249C9.98595 64.6648 12.2423 66.7257 13.5267 65.9637C13.1516 65.3157 12.2556 65.6735 11.6216 65.3982C10.9451 65.2347 9.72478 64.9321 10.0746 64.0985C10.6991 62.719 12.416 64.5153 13.211 63.6295C12.8488 62.3829 9.73458 63.2808 9.90215 61.4705C10.4746 60.6487 11.6308 61.5203 12.3091 61.0087C11.7106 59.9674 11.2795 58.8385 11.0316 57.6633C10.8337 56.8238 10.8253 55.9506 11.007 55.1074C12.0231 51.8008 14.3611 50.823 16.053 48.4827L17.1257 46.2835C17.8411 43.1871 16.3074 40.8646 17.1131 37.7367C16.8961 37.5272 16.165 37.4943 16.3043 37.1607C16.0414 36.9244 15.2497 36.8732 15.3474 36.5132C14.5972 36.1209 14.121 35.6323 14.5281 34.841C15.4753 33.8616 17.3617 36.9618 18.3341 35.6068C17.5115 34.7103 15.0954 34.3599 15.8236 32.9289C16.2287 32.331 16.973 32.7167 17.7249 33.1288C18.4583 33.3662 19.4367 34.3153 19.8487 33.6194C20.0829 33.1718 19.6191 32.966 19.1823 32.7499C19.2754 32.3514 18.7676 32.1597 19.1712 31.6532C19.4844 31.7304 19.5653 31.1414 19.9734 31.5001C20.3185 31.6684 20.5293 31.4566 20.9261 31.7825C21.6751 32.3028 22.1471 32.0188 22.5296 31.4748C22.3735 30.9994 21.5955 30.7372 21.9329 30.0919C22.1752 29.9688 22.3377 29.614 22.6591 29.7208C22.9015 29.4783 23.4889 30.2382 23.607 29.6379C23.6502 29.3481 23.7734 29.0761 23.9628 28.8526C24.1446 28.5974 24.29 28.3181 24.3948 28.0227C24.344 27.3653 24.3623 26.7043 24.4492 26.0506C24.1065 25.4774 24.3629 24.6957 24.3552 24.0061L25.5746 21.4966ZM72.2868 62.0884C71.0901 61.1002 73.3832 59.6453 74.0259 60.7557C74.0374 60.9594 73.9969 61.1627 73.9079 61.3463C73.7519 61.6273 73.51 61.851 73.2176 61.9845C72.9253 62.118 72.5977 62.1544 72.2832 62.0882L72.2868 62.0884ZM68.4088 54.0187C67.8051 53.9247 67.3581 54.2799 66.7287 54.1068C65.5889 54.2676 64.4313 54.2545 63.2955 54.068C62.0107 53.2477 61.7577 52.0732 61.3651 50.9463L61.4369 50.7991C62.0938 49.7515 63.2962 50.288 64.2044 49.9687C65.1413 49.8509 66.0706 49.7083 66.9745 49.5049C67.3414 49.6256 67.6378 49.5403 68.0732 49.8585C68.3064 49.706 68.5201 49.5003 68.8751 49.7044C69.3249 50.1694 69.6509 50.7399 69.823 51.3636C69.9951 51.9872 70.0079 52.6441 69.8603 53.274L69.8546 53.2856C69.5221 53.9674 68.8716 53.7242 68.407 54.0194L68.4088 54.0187ZM64.2338 52.8899C65.3625 52.6222 66.4196 52.1449 67.5837 51.9799C67.9398 52.1801 68.2833 52.3551 68.4599 52.0443C68.0228 51.7464 68.2157 51.2332 67.7193 50.9563C66.4754 51.4764 65.1247 51.6901 63.781 51.5794C63.6431 51.7722 63.416 51.7076 63.2724 51.8765C63.6661 52.1903 63.5096 52.6925 64.2323 52.8915L64.2338 52.8899ZM64.6219 62.8948C64.4805 62.9153 64.3364 62.9071 64.1983 62.8708C64.0601 62.8344 63.9306 62.7706 63.8175 62.6833C63.7912 62.342 63.8922 62.003 64.101 61.7318C64.4249 61.9654 64.5503 61.6182 64.9061 61.9415C64.9449 62.1771 64.8957 62.4188 64.7678 62.6204C64.7206 62.7093 64.6751 62.8028 64.6219 62.8948ZM57.3012 61.1392C55.3155 63.5298 52.3678 63.1266 49.2036 62.0945C48.0952 61.5022 47.2128 60.5613 46.6928 59.4173C46.8987 58.9392 46.6751 58.6085 46.9725 58.0995C47.2235 57.728 47.5578 57.4203 47.9487 57.201C48.3397 56.9817 48.7765 56.8567 49.2244 56.8361C49.459 56.1845 48.8596 55.8211 48.9155 55.2321C48.7001 54.7761 48.8097 54.2087 48.5367 53.7746C48.8792 52.8429 48.6673 52.099 49.3128 51.064C49.5904 51.0482 49.7557 50.6954 49.9641 50.4742C50.3865 50.2972 50.8448 50.2223 51.3015 50.2556C51.7583 50.2889 52.2007 50.4295 52.593 50.6659C54.0747 51.9475 53.9342 53.7876 53.8106 55.6209C54.4529 55.7118 54.9513 55.3862 55.7122 55.8216C56.2908 56.1754 56.7754 56.6638 57.1244 57.2453C57.4735 57.8268 57.6768 58.484 57.717 59.1611C57.8122 59.709 57.7406 60.273 57.5114 60.7797C57.4512 60.905 57.3809 61.0253 57.3012 61.1392ZM48.8843 59.3956C50.9465 61.4964 54.1482 61.3649 55.6043 59.4026C55.6762 59.028 55.6589 58.6417 55.5537 58.2751C55.4485 57.9084 55.2583 57.5717 54.9987 57.2923C54.5327 57.292 54.0678 57.2474 53.6103 57.1589C53.2045 57.2839 52.5872 56.7929 52.0721 56.5916C51.8057 55.9097 52.1529 55.0165 52.3416 54.1784C51.9187 53.4284 52.4067 52.3643 51.2949 51.853C50.547 51.9647 50.569 52.535 50.2132 53.3249C50.2875 54.0628 50.4172 54.7942 50.6011 55.5127C50.5338 55.9019 50.8982 56.1439 50.8306 56.5321C50.8731 56.9241 51.4115 57.1459 50.9872 57.6997C50.446 58.5829 49.4641 58.1864 48.969 59.2017C48.937 59.2654 48.9085 59.3308 48.8834 59.3975L48.8843 59.3956ZM58.8407 54.2569C57.7227 53.7056 58.0438 52.6582 57.8668 51.7839C57.9974 51.2185 58.3316 51.2431 58.5905 51.0457C59.4818 51.3889 59.5112 52.031 59.4101 52.7174C59.5223 52.8565 59.588 53.0272 59.598 53.2056C59.608 53.384 59.5618 53.5611 59.4659 53.7118C59.4124 53.8462 59.3277 53.9659 59.2188 54.0611C59.1099 54.1563 58.9799 54.2243 58.8395 54.2593L58.8407 54.2569ZM61.9448 43.0506C61.4756 43.2142 61.0878 42.7256 60.9879 42.4031C61.1598 41.9576 61.5119 42.0311 61.7865 41.8852C62.1898 42.1031 62.2576 42.4371 62.0484 42.866C62.0168 42.9302 61.9819 42.9926 61.9436 43.0531L61.9448 43.0506ZM60.104 41.6075C59.7688 41.5197 59.764 41.3169 59.5884 41.1746C59.7348 41.0078 59.9607 41.0703 60.0977 40.8778C60.2975 41.0123 60.3138 41.21 60.1946 41.4544C60.1673 41.5081 60.1366 41.5601 60.1028 41.61L60.104 41.6075ZM42.2041 63.4062C42.1853 63.2802 42.1936 63.1517 42.2282 63.0291C42.2629 62.9065 42.3232 62.7927 42.4051 62.6952C42.4871 62.5977 42.5888 62.5187 42.7036 62.4634C42.8184 62.4082 42.9436 62.378 43.0709 62.3748C43.388 61.8798 43.8833 61.8968 44.456 62.1429C44.53 62.3809 44.5125 62.638 44.4069 62.8638C44.1625 63.1997 43.8075 63.4385 43.4043 63.5381C43.0011 63.6378 42.5756 63.5919 42.2029 63.4086L42.2041 63.4062ZM50.3118 48.6436C48.9828 48.5141 48.3261 47.1828 49.4844 46.2406C50.1218 46.0786 50.7963 46.1498 51.3859 46.4413C51.4733 46.7007 51.5987 46.9456 51.7581 47.1681C51.7349 47.2239 51.711 47.2772 51.6862 47.3281C51.3667 47.8926 50.8887 48.351 50.3112 48.6463L50.3118 48.6436ZM54.6287 34.5783C54.0022 35.5651 51.4692 34.3894 52.6413 33.0637C53.3851 32.7527 55.1895 33.4316 54.6499 34.5379L54.6287 34.5783ZM40.8648 60.9381C38.9653 62.5162 36.8067 63.3448 33.9365 62.1022C33.1176 61.5449 32.4158 60.8324 31.871 60.0051C31.2909 58.282 31.2481 56.4232 31.7481 54.6752C31.6128 54.6425 31.6375 54.5501 31.6733 54.4564L32.1745 53.4289C33.0423 52.4068 34.1703 51.6386 35.4392 51.2054C35.5293 51.2656 35.6383 51.2908 35.7457 51.2764C35.8531 51.2619 35.9516 51.2088 36.0226 51.1269C36.2856 51.1629 36.4086 51.2442 36.6824 51.2658C37.0294 51.2419 37.3777 51.2883 37.7064 51.4022C37.8906 51.4663 38.0101 51.3794 38.0714 51.3995C40.3327 52.1137 42.3185 54.0472 42.7156 55.6625C42.6667 57.0037 42.3443 58.3207 41.768 59.5327C41.5248 60.036 41.2211 60.5078 40.8635 60.9374L40.8648 60.9381ZM33.4534 57.5048C34.3484 58.2158 34.8973 59.0409 35.8128 59.7468C36.4104 59.9138 37.0211 60.03 37.6383 60.0941C38.047 59.625 38.5835 59.5282 38.9398 58.914C39.3133 58.5143 39.6047 58.0453 39.7977 57.5334C39.8724 57.3801 39.943 57.2262 40.0199 57.0777C39.8608 56.9698 39.9737 56.7678 40.0882 56.5657C39.9615 56.1904 39.9083 55.7943 39.9314 55.3988C39.4823 54.8025 38.933 54.2887 38.3081 53.8804C37.6162 53.6555 36.9061 53.4913 36.1857 53.3897C35.9155 53.6708 35.5292 53.6132 35.166 53.6198C34.5696 54.0681 34.0559 54.617 33.6481 55.2419C33.4906 55.9853 33.4246 56.7453 33.4519 57.5048L33.4534 57.5048ZM49.0193 43.4729C48.6615 43.5881 48.3545 43.8233 48.1502 44.1387C47.8042 44.1848 47.4631 44.2616 47.1308 44.3682C46.8378 44.4199 46.5366 44.3982 46.2541 44.3051C45.0889 44.0582 42.9214 42.6865 42.3537 41.4954C42.1129 41.4634 41.9932 41.7816 41.8745 42.101C41.8196 42.278 41.7379 42.4455 41.6323 42.5977C41.3918 42.5651 41.2722 42.8834 41.1528 43.2025C41.0978 43.3796 41.016 43.5473 40.9103 43.6997C40.5402 43.6833 40.454 44.5034 40.0402 44.3658C39.8846 44.8601 39.4558 44.561 39.2422 44.8841C38.0376 44.7352 37.1663 43.8345 36.4499 43.1577C35.9249 42.1983 35.6162 41.163 35.1781 40.1758C35.2674 39.2082 35.0025 38.3652 35.2968 37.326C35.5147 36.2469 35.8986 35.2082 36.435 34.2468C38.0597 31.8707 40.141 30.8191 42.912 31.7736C44.1047 32.3795 45.2529 33.0038 45.4904 33.9386C45.0481 34.9373 44.5196 35.8956 43.9112 36.8027C43.97 37.2851 44.745 36.8872 45.0824 37.011C45.4382 36.7466 46.0072 37.096 46.3965 36.9244C48.8457 37.6395 50.0359 39.3763 50.091 41.271L49.0193 43.4729ZM41.1645 39.4589C43.331 39.8917 45.2801 42.4493 47.4727 42.1726C47.5811 42.0123 47.6514 41.744 47.8353 41.8042C48.4456 40.6583 47.6612 39.9906 46.861 39.3304C46.0612 38.9002 45.5259 39.235 44.8119 39.0584C44.1099 38.6729 43.5747 38.7749 42.8323 38.2737C42.7637 38.11 42.6632 37.9617 42.5366 37.8374C42.41 37.7131 42.2599 37.6152 42.095 37.5496C42.2308 37.4524 42.3389 37.3216 42.4086 37.17C42.4783 37.0183 42.5073 36.8511 42.4926 36.6848C42.5034 36.4499 42.5624 36.2197 42.6659 36.0085C42.5709 35.7769 42.7422 35.4537 42.912 35.1304C43.0818 34.8071 43.2534 34.4832 43.1593 34.2513C42.2424 33.7171 41.5476 33.8252 40.7455 33.6185C40.2491 33.8346 39.7964 34.1689 39.2913 34.3627C39.1844 34.5245 39.1128 34.7921 38.9305 34.7319C38.8268 34.9445 38.7219 35.1595 38.6149 35.3712C38.128 36.2659 37.7312 37.2067 37.4303 38.1798C37.5697 39.801 37.6558 41.4386 38.8631 42.6937C39.1925 42.1171 39.5788 41.5749 40.0163 41.0752C40.0743 40.9485 40.1326 40.8227 40.1922 40.7005C40.378 40.1953 40.7176 39.7611 41.1631 39.4589L41.1645 39.4589ZM37.8 56.95C37.4325 56.795 37.216 56.3287 37.8902 55.8597L38.6232 56.2172C38.639 56.3832 38.6121 56.5505 38.545 56.7031C38.4777 56.8334 38.3618 56.932 38.2224 56.9777C38.083 57.0233 37.9312 57.0123 37.7999 56.947L37.8 56.95ZM35.3495 57.3429C35.3105 57.2762 35.285 57.2024 35.2745 57.1258C35.264 57.0492 35.2687 56.9712 35.2883 56.8964C35.3079 56.8216 35.3419 56.7513 35.3887 56.6897C35.4354 56.6281 35.4939 56.5763 35.5606 56.5373C35.6274 56.4982 35.7012 56.4727 35.7778 56.4622C35.8544 56.4517 35.9323 56.4563 36.0071 56.4759C36.0819 56.4955 36.1522 56.5297 36.2138 56.5764C36.2754 56.6232 36.3272 56.6816 36.3663 56.7484C36.3421 56.8159 36.3144 56.8821 36.2831 56.9467C36.0742 57.3719 35.7696 57.5236 35.3513 57.3408L35.3495 57.3429ZM36.2803 55.4345C36.0511 55.4539 35.821 55.411 35.6143 55.3101C35.4076 55.2093 35.232 55.0544 35.1062 54.8618L35.3925 54.2748C35.6217 54.2556 35.8518 54.2987 36.0584 54.3995C36.2651 54.5003 36.4407 54.6551 36.5667 54.8474L36.2803 55.4345ZM47.4068 28.152C46.4091 27.5618 47.8671 26.0686 48.7065 26.605C48.7786 26.8572 48.7508 27.1275 48.6288 27.3597C48.5198 27.5928 48.3474 27.7904 48.1312 27.93C47.9151 28.0696 47.664 28.1455 47.4067 28.149L47.4068 28.152ZM25.8296 62.3308C24.883 61.8933 25.7899 59.6942 26.8316 60.2764C27.2135 60.5383 27.1868 61.0335 26.9732 61.4715C26.7294 61.9681 26.2381 62.3985 25.8295 62.3278L25.8296 62.3308ZM41.323 26.0945C40.7892 25.8744 40.3231 25.5169 39.9722 25.0583C39.6213 24.5997 39.3981 24.0564 39.3251 23.4836L39.7548 22.6028C41.2751 22.1215 42.6249 23.9928 42.4834 25.2055C42.2015 25.6173 41.7949 25.9276 41.3233 26.0909L41.323 26.0945ZM30.9337 46.6485C30.732 46.8615 30.5142 47.0587 30.2823 47.2382C29.7658 47.4198 29.2252 47.5239 28.6782 47.5471C28.3883 47.588 28.1217 47.6772 27.8773 47.7009C27.5678 47.7292 27.2794 47.6105 27.0006 47.6378C26.454 47.6888 25.8782 47.9018 25.3977 47.9458C25.0931 47.9734 24.7762 47.8695 24.5213 47.882C24.2483 47.897 23.9786 47.9489 23.7195 48.0362C22.9097 47.4575 22.3613 47.6407 21.6674 47.3998C21.1306 46.7238 20.7708 45.9245 20.6207 45.0744C20.7134 44.411 21.0142 43.7941 21.48 43.3126C23.0315 42.851 24.8377 43.1293 26.367 42.6063C28.1213 42.7307 29.4635 41.6687 31.4025 42.3399C31.9365 43.4156 31.5758 44.805 31.5857 46.0636C31.583 46.1227 31.5686 46.1807 31.5433 46.2342C31.4364 46.452 31.1395 46.4887 30.9343 46.6458L30.9337 46.6485ZM22.8247 46.5093C23.5096 46.7269 23.9024 46.0905 24.576 46.2738C25.129 46.0428 25.7332 45.9614 26.3276 46.0377C27.3938 45.5882 28.7106 45.8652 29.7533 45.3461C29.416 45.0546 29.7707 44.5227 29.3777 44.2555C28.305 44.53 27.2011 44.6637 26.0939 44.6532C24.9616 44.7142 23.8401 44.7639 22.7361 44.8304L22.7292 44.8445C22.3958 45.5235 22.8306 45.939 22.8246 46.5063L22.8247 46.5093ZM22.5076 58.7119C21.8997 58.7179 21.2918 58.7239 20.6839 58.7299C20.3997 58.8356 20.0962 58.8789 19.7938 58.8569C19.4914 58.8348 19.1973 58.7478 18.9315 58.6019C18.5167 58.3998 18.1734 58.076 17.9475 57.6737C17.7216 57.2714 17.6238 56.8097 17.6672 56.3504L18.312 55.0284C18.4959 55.0886 18.5647 54.8204 18.6734 54.6594C18.9523 54.5232 19.2731 54.5073 19.472 54.1415C20.3165 53.8321 21.2237 53.7325 22.1153 53.8512C23.0068 53.9699 23.8562 54.3034 24.5904 54.823C24.6956 55.235 25.3202 55.4678 25.3328 55.9103C25.6464 56.21 25.4117 56.6974 25.4893 57.0778C25.4659 57.132 25.442 57.1841 25.4176 57.2342C24.7462 58.5968 23.5971 58.568 22.5088 58.7095L22.5076 58.7119ZM19.7891 57.2045C20.6506 57.7003 21.1879 57.2455 21.9079 57.3305C22.5954 57.1969 23.3514 57.2655 23.874 56.6545C22.7055 55.1075 20.1955 54.9715 19.3445 56.6263C19.6359 56.7653 19.3372 57.1127 19.7891 57.2015L19.7891 57.2045ZM28.4281 36.8858C27.276 36.4479 27.3918 34.536 28.5486 34.4014C28.8565 34.6039 29.0824 34.9092 29.186 35.2628C29.2896 35.6164 29.2641 35.9953 29.1142 36.3319C29.0496 36.4701 28.9542 36.5917 28.8352 36.6872C28.7163 36.7827 28.577 36.8496 28.4281 36.8828L28.4281 36.8858ZM29.1685 30.5242C29.049 30.2792 28.6978 30.1154 28.579 29.8722C29.18 28.426 30.2807 28.4267 31.3398 28.3111C31.8793 28.5742 31.6519 29.0993 31.8632 29.4738C31.2186 30.5614 30.1836 30.5126 29.1687 30.5205L29.1685 30.5242Z" fill="#D6D6D6"/>
</svg>
