<svg width="18" height="19" viewBox="0 0 18 19" fill="none" xmlns="http://www.w3.org/2000/svg">
<path d="M11.25 6.5L6.75 11M11.25 11H11.2433M6.75675 6.5H6.75M8.1555 16.634L6.633 15.7302C6.246 15.5007 6.05325 15.386 5.838 15.38C5.607 15.3725 5.4105 15.4827 4.99275 15.7302C4.52475 16.0077 3.59475 16.7727 2.99325 16.4082C2.625 16.1847 2.625 15.6177 2.625 14.4845V6.5C2.625 4.379 2.625 3.31775 3.28425 2.65925C3.94275 2 5.004 2 7.125 2H10.875C12.996 2 14.0573 2 14.7158 2.65925C15.375 3.31775 15.375 4.379 15.375 6.5V14.4845C15.375 15.6177 15.375 16.1847 15.0075 16.4082C14.4053 16.7727 13.4753 16.0077 13.0073 15.7302C12.621 15.5007 12.4275 15.386 12.2138 15.38C11.9813 15.3725 11.7848 15.4827 11.3678 15.7302L9.84525 16.634C9.43425 16.8777 9.22875 17 9 17C8.77125 17 8.56575 16.8777 8.1555 16.634Z" stroke="#322F2F" stroke-width="1.5" stroke-linecap="round" stroke-linejoin="round"/>
</svg>
