<svg width="340" height="227" viewBox="0 0 340 227" fill="none" xmlns="http://www.w3.org/2000/svg">
<path d="M215.932 118.683C215.932 118.683 213.693 131.318 204.168 144.424C203.52 145.312 202.84 146.205 202.124 147.098C199.231 150.698 195.763 154.27 191.611 157.566C178.709 167.811 159.234 175.364 130.044 172.648L121.199 128.317C121.199 128.317 127.111 132.927 138.476 135.951H138.494C144.025 137.424 150.852 138.517 158.912 138.517C183.542 138.517 194.014 116.403 195.569 110.587C195.569 110.587 208.756 113.593 215.932 118.683Z" fill="#FA818A"/>
<path opacity="0.31" d="M191.611 157.565C178.709 167.811 159.234 175.363 130.044 172.648L121.199 128.316C121.199 128.316 127.111 132.927 138.476 135.951C132.02 135.089 133.167 149.841 139.478 158.227C144.614 165.059 173.319 169.057 191.611 157.565Z" fill="#562C2C"/>
<path opacity="0.31" d="M204.169 144.424C203.52 145.312 202.84 146.205 202.124 147.098C202.133 147.089 202.138 147.08 202.142 147.071C202.795 146.001 203.475 145.122 204.169 144.424Z" fill="#562C2C"/>
<path d="M89.2301 48.1216C71.133 52.0202 64.197 27.1186 79.5469 20.3549C80.3221 20.0058 81.1562 19.7112 82.0493 19.4664C93.1514 16.4381 100.178 21.8962 102.096 28.8866C104.167 36.421 100.31 45.737 89.2301 48.1216Z" fill="#955452"/>
<path opacity="0.31" d="M89.2301 48.1212C71.133 52.0198 64.197 27.1182 79.5469 20.3545C73.6717 25.051 74.9954 33.3652 77.2303 34.5892C79.157 35.6409 85.7575 28.5689 102.096 28.8862C104.167 36.4206 100.31 45.7366 89.2301 48.1212Z" fill="#562C2C"/>
<path d="M149.107 64.6866C148.626 65.4573 147.085 66.1328 145.743 66.4093C145.743 66.4093 144.868 70.5618 144.483 77.7653C144.097 84.9688 145.063 88.0922 146.364 96.3746C147.66 104.657 151.904 114.472 130.407 116.403C117.577 117.554 86.7551 116.784 71.854 111.493C70.7025 111.085 69.6463 110.646 68.6988 110.183C61.3503 106.575 61.8761 100.133 65.0223 91.9456C67.4703 85.5626 71.582 79.8098 70.9065 75.9565C70.2311 72.1032 64.646 62.5696 69.7505 50.4338C74.8551 38.2981 84.5428 33.5562 92.4489 31.421C95.8761 30.4962 101.865 29.6077 108.656 29.653C120.968 29.7256 135.924 32.8536 143.032 44.3592C149.27 54.4549 149.587 63.916 149.107 64.6866Z" fill="#955452"/>
<path opacity="0.31" d="M76.1425 56.5856C75.4988 72.0261 81.9769 71.9989 77.2305 82.3893C72.4841 92.7752 64.2289 104.73 71.8449 111.484C71.8495 111.489 71.8495 111.489 71.854 111.493C70.7025 111.085 69.6463 110.646 68.6988 110.183C61.3503 106.575 61.8761 100.133 65.0223 91.9456C67.4703 85.5626 71.582 79.8098 70.9065 75.9565C70.2311 72.1032 64.646 62.5696 69.7505 50.4338C74.8551 38.2981 84.5428 33.5562 92.4489 31.421C95.8761 30.4962 101.865 29.6077 108.656 29.653C92.4308 31.4346 76.7863 41.1541 76.1425 56.5856Z" fill="#562C2C"/>
<path opacity="0.58" d="M127.413 33.7471C127.413 33.7471 146.956 40.1921 147.539 64.1449C147.539 64.1449 148.362 64.7333 144.479 65.3834C144.479 65.3834 147.533 45.3828 127.413 33.7471Z" fill="#C1707A"/>
<path opacity="0.58" d="M90.2759 20.4604C89.862 20.4826 89.4277 20.532 89.0904 20.7727C88.7531 21.0139 88.5623 21.5071 88.7835 21.8576C88.9354 22.0983 89.226 22.2057 89.4971 22.2923C91.4346 22.9147 93.5761 23.4043 94.8908 24.9579C95.1664 25.2834 95.3972 25.6488 95.7113 25.9376C96.0251 26.2263 96.4525 26.4353 96.8714 26.3546C97.4172 26.2495 97.7731 25.6683 97.7853 25.1125C97.7976 24.5567 97.5424 24.0304 97.2477 23.5589C95.6365 20.9795 93.174 20.3053 90.2759 20.4604Z" fill="#C1707A"/>
<path d="M113.452 127.84C109.154 129.844 105.11 130.12 101.633 129.603C94.7743 128.588 90.1367 124.485 90.1367 124.485C91.6962 116.099 90.1367 107.535 90.1367 107.535C98.469 115.632 112.346 115.228 112.346 115.228C112.259 115.799 112.2 116.38 112.169 116.96C111.829 122.409 113.452 127.84 113.452 127.84Z" fill="#F9C3A9"/>
<path opacity="0.26" d="M112.346 115.228C112.259 115.799 112.2 116.38 112.169 116.96C109.734 117.051 105.464 117.1 102.739 116.507C98.7591 115.636 96.2205 113.873 96.2431 117.182C96.2613 119.503 97.4671 125.582 101.633 129.603C94.7743 128.588 90.1367 124.485 90.1367 124.485C91.6962 116.099 90.1367 107.535 90.1367 107.535C98.469 115.632 112.346 115.228 112.346 115.228Z" fill="#AA4141"/>
<path d="M141.44 226.767H63.0045C63.0045 226.767 62.6781 224.677 62.1976 221.114C62.1976 221.109 62.1976 221.109 62.1976 221.105C60.28 206.879 55.9235 169.18 60.144 146.921C61.2683 141.005 62.9955 136.182 65.5341 133.176C65.5341 133.176 69.6323 129.137 81.3147 125.819C82.4208 125.506 83.5949 125.197 84.8416 124.903C85.712 124.694 86.6141 124.49 87.5525 124.295C87.82 124.241 88.0965 124.182 88.3731 124.128L88.3776 124.123L90.6805 120.247C90.6805 120.247 90.6805 120.247 90.6851 120.247C90.8256 120.311 93.2373 121.367 97.2765 122.45C98.6864 122.831 100.291 123.216 102.073 123.561C102.073 123.561 103.378 126.761 105.409 129.817C105.414 129.821 105.418 129.831 105.423 129.835C105.423 129.835 105.423 129.831 105.432 129.817C105.532 129.549 106.842 126.159 107.227 123.516C107.227 123.516 110.686 123.325 112.305 121.788L115.242 123.815L115.573 124.041C115.573 124.041 115.655 124.078 115.804 124.146C116.589 124.508 117.35 124.962 118.089 125.501C118.094 125.506 118.103 125.51 118.107 125.515C119.195 126.304 120.233 127.256 121.199 128.325C124.291 131.73 126.707 136.281 128.003 140.171C128.031 140.248 128.053 140.33 128.081 140.407C128.285 141.037 128.493 141.672 128.706 142.315C128.765 142.492 128.819 142.669 128.878 142.855C130.619 148.531 131.598 157.697 133.067 166.546C133.208 167.398 133.344 168.232 133.471 169.048C133.534 169.429 133.589 169.801 133.647 170.173C133.793 171.12 133.933 172.049 134.065 172.956C134.264 174.339 134.45 175.681 134.627 176.982C134.677 177.349 134.722 177.716 134.772 178.079C134.89 178.995 134.998 179.888 135.107 180.772C135.157 181.175 135.207 181.579 135.257 181.977C135.293 182.29 135.329 182.608 135.366 182.92C135.42 183.374 135.47 183.823 135.52 184.267C135.891 187.472 136.222 190.586 136.576 193.791C136.626 194.208 136.671 194.63 136.717 195.052C136.862 196.316 137.007 197.599 137.161 198.914C137.206 199.295 137.251 199.68 137.297 200.07C137.338 200.392 137.378 200.718 137.419 201.045C137.455 201.339 137.492 201.634 137.528 201.929C137.582 202.35 137.637 202.772 137.691 203.198C137.714 203.375 137.737 203.556 137.759 203.733C137.786 203.937 137.814 204.145 137.841 204.354C137.891 204.762 137.945 205.175 138.004 205.587C138.176 206.852 138.358 208.157 138.553 209.508C138.648 210.166 138.747 210.832 138.847 211.508C138.942 212.12 139.038 212.745 139.137 213.38C139.563 216.127 140.049 219.06 140.615 222.238C140.706 222.764 140.806 223.299 140.901 223.838C141.073 224.79 141.254 225.769 141.44 226.767Z" fill="#FA818A"/>
<path opacity="0.31" d="M92.4304 169.411C91.5645 179.008 91.6597 191.987 93.2509 204.014C94.3888 212.614 96.2928 220.724 99.1579 226.767H63.0045C63.0045 226.767 62.6781 224.677 62.1976 221.114C62.1976 221.109 62.1976 221.109 62.1976 221.105C60.28 206.879 55.9235 169.18 60.144 146.921C61.2683 141.005 62.9955 136.182 65.5341 133.176C65.5341 133.176 69.6323 129.137 81.3147 125.819C82.4208 125.506 83.5949 125.197 84.8416 124.903C85.712 124.694 86.6141 124.49 87.5525 124.295C87.82 124.241 88.0965 124.182 88.3731 124.128L88.3776 124.123L90.6805 120.247C90.6805 120.247 90.6805 120.247 90.6851 120.247C90.8256 120.311 93.2373 121.367 97.2765 122.45C98.6864 122.831 100.291 123.216 102.073 123.561C102.073 123.561 103.378 126.761 105.409 129.817C105.414 129.821 105.418 129.831 105.423 129.835C105.423 129.835 105.423 129.831 105.432 129.817C105.532 129.549 106.842 126.159 107.227 123.516C107.227 123.516 110.686 123.325 112.305 121.788L115.242 123.815L115.573 124.041C115.573 124.041 115.655 124.078 115.804 124.146C116.589 124.508 117.35 124.962 118.089 125.501C117.731 125.986 117.337 126.489 116.91 126.997C115.129 129.114 112.753 131.372 109.693 133.176L107.662 129.604L106.044 133.176L101.633 129.604C101.633 129.604 100.862 133.661 101.792 136.676C101.792 136.676 96.3427 134.971 92.0496 133.176C92.0496 133.176 87.2669 131.617 87.2669 141.898C87.2669 148.163 106.683 145.634 118.955 144.954C116.793 145.112 114.027 145.67 111.135 146.54C104.657 148.494 97.5485 152.021 95.2093 156.11C94.62 157.139 94.0896 158.776 93.6363 160.888C93.3008 162.448 93.0061 164.266 92.7568 166.288C92.6344 167.28 92.5256 168.323 92.4304 169.411Z" fill="#562C2C"/>
<path opacity="0.31" d="M122.903 144.22C122.563 144.292 121.253 144.573 119.317 144.931C121.23 144.514 122.563 144.274 122.903 144.22Z" fill="#562C2C"/>
<path d="M128.706 142.315C128.706 142.315 126.082 143.43 122.99 144.201C122.99 144.201 119.898 129.676 112.128 118.887C112.119 118.529 112.123 118.171 112.133 117.812C113.089 118.452 114.417 119.431 115.931 120.795C119.871 124.345 125.053 130.51 128.072 140.121C128.294 140.833 128.507 141.563 128.706 142.315Z" fill="#7096BD"/>
<path opacity="0.31" d="M128.706 142.315C128.706 142.315 126.082 143.43 122.99 144.201C122.99 144.201 119.898 129.676 112.128 118.887C112.119 118.529 112.123 118.171 112.133 117.812C113.089 118.452 114.417 119.431 115.931 120.795C116.208 121.602 116.666 122.69 117.414 124.127C119.78 128.702 122.301 135.044 123.955 141.894C123.955 141.894 126.163 141.662 128.072 140.121C128.294 140.833 128.507 141.563 128.706 142.315Z" fill="#2E2C54"/>
<path d="M90.83 116.407C90.83 117.169 90.8118 117.962 90.771 118.774L88.3729 124.127C88.3729 124.127 88.11 124.422 87.711 125.066C86.2921 127.378 83.1777 134.223 84.6374 148.159C84.6374 148.159 82.7697 148.159 80.6164 148.159H77.307C77.307 148.159 75.3622 123.225 90.83 116.407Z" fill="#7096BD"/>
<path opacity="0.31" d="M90.83 116.407C90.83 117.169 90.8118 117.962 90.771 118.774L88.3729 124.127C88.3729 124.127 88.11 124.422 87.711 125.066C87.5524 124.39 87.3937 123.493 87.2668 122.323C87.2668 122.323 79.0206 127.473 80.6164 148.159H77.307C77.307 148.159 75.3622 123.225 90.83 116.407Z" fill="#2E2C54"/>
<path d="M84.6378 226.766H54.8085C49.2189 216.875 42.5458 201.593 42.0698 184.538C41.3037 157.284 55.9962 140.982 65.5343 133.176C65.5343 133.176 69.1519 133.357 73.5357 139.264C77.9194 145.176 77.1578 157.375 74.6146 161.949C72.0714 166.523 68.1773 176.8 70.0813 192.236C70.9426 199.177 73.9663 206.856 77.0399 213.207C80.8071 220.982 84.6378 226.766 84.6378 226.766Z" fill="#FA818A"/>
<path opacity="0.31" d="M51.8663 168.844C50.9189 184.348 53.1493 203.964 62.1978 221.104C62.1978 221.109 62.1978 221.109 62.1978 221.113C63.2133 223.031 64.3103 224.921 65.5026 226.766H54.8085C49.2189 216.875 42.5458 201.593 42.0698 184.538C41.3037 157.284 55.9962 140.982 65.5343 133.176C65.5343 133.176 69.152 133.357 73.5357 139.264C71.3869 137.999 65.3258 140.624 60.1442 146.921C56.0189 151.935 52.4511 159.279 51.8663 168.844Z" fill="#562C2C"/>
<path d="M141.441 226.767H76.1426C76.1426 226.767 76.5279 221.109 77.0402 213.208C77.5298 205.75 78.1236 196.289 78.6223 187.712C79.6423 170.05 77.3076 148.159 77.3076 148.159C77.3076 148.159 78.5226 148.204 80.6215 148.231C86.4514 148.309 99.0722 148.227 111.135 146.54C115.247 145.969 119.3 145.208 122.99 144.201C123.004 144.197 123.013 144.197 123.022 144.192C123.452 144.074 123.879 143.957 124.296 143.83C125.819 143.381 127.274 142.887 128.639 142.343C128.661 142.334 128.679 142.324 128.702 142.315H128.707C128.766 142.492 128.82 142.669 128.879 142.855C130.62 148.531 131.599 157.697 133.068 166.546C133.208 167.398 133.344 168.232 133.471 169.048C133.535 169.425 133.593 169.801 133.648 170.173C133.793 171.12 133.934 172.05 134.065 172.956C134.264 174.339 134.45 175.681 134.627 176.982C134.677 177.349 134.722 177.716 134.772 178.079C134.89 178.995 134.999 179.888 135.108 180.772C135.157 181.175 135.207 181.579 135.257 181.978C135.293 182.29 135.33 182.608 135.366 182.92C135.42 183.374 135.47 183.823 135.52 184.267C135.892 187.472 136.223 190.586 136.576 193.791C136.622 194.209 136.667 194.63 136.717 195.052C136.862 196.317 137.007 197.599 137.161 198.914C137.207 199.295 137.252 199.68 137.297 200.07C137.338 200.392 137.379 200.718 137.42 201.045C137.456 201.335 137.492 201.63 137.528 201.929C137.583 202.35 137.637 202.772 137.692 203.198C137.71 203.375 137.737 203.552 137.76 203.733C137.787 203.937 137.814 204.146 137.841 204.354C137.891 204.762 137.946 205.175 138.004 205.587C138.177 206.852 138.358 208.158 138.553 209.508C138.648 210.166 138.748 210.832 138.848 211.508C138.943 212.12 139.038 212.745 139.138 213.38C139.564 216.127 140.049 219.06 140.616 222.238C140.706 222.764 140.806 223.299 140.901 223.838C141.073 224.79 141.255 225.77 141.441 226.767Z" fill="#7096BD"/>
<path opacity="0.31" d="M141.441 226.767H76.1426C76.1426 226.767 76.5279 221.11 77.0402 213.208C77.5298 205.751 78.1236 196.29 78.6223 187.713C79.6423 170.051 77.3076 148.159 77.3076 148.159C77.3076 148.159 78.5226 148.205 80.6215 148.232C81.9679 156.578 84.1575 171.547 84.638 183.143C85.0234 192.468 88.1196 199.25 93.2514 204.014C97.4764 207.945 103.084 210.497 109.694 211.979C119.214 214.115 131.25 211.472 138.553 209.509C138.648 210.166 138.748 210.833 138.848 211.508C138.943 212.12 139.038 212.746 139.138 213.38C139.564 216.127 140.049 219.061 140.616 222.238C140.706 222.764 140.806 223.299 140.901 223.839C141.073 224.791 141.255 225.77 141.441 226.767Z" fill="#2E2C54"/>
<path d="M123.924 163.037C123.692 167.689 122.142 174.489 115.528 177.685C113.696 178.573 111.475 179.181 108.791 179.394C97.7346 180.264 93.1469 172.154 91.3063 166.546C90.3589 163.663 90.1367 161.442 90.1367 161.442C90.1367 161.442 92.7842 160.984 97.0229 160.408C103.465 159.538 113.597 158.404 123.724 158.228C123.724 158.228 124.06 160.245 123.924 163.037Z" fill="#5B7D99"/>
<path d="M123.924 163.037C108.569 163.672 96.5967 165.576 91.3063 166.546C90.3589 163.663 90.1367 161.442 90.1367 161.442C90.1367 161.442 106.937 158.522 123.724 158.228C123.724 158.228 124.06 160.245 123.924 163.037Z" fill="#5B7D99"/>
<path opacity="0.31" d="M115.528 177.685C113.696 178.573 111.475 179.181 108.791 179.394C97.7346 180.264 93.1469 172.154 91.3063 166.546C90.3589 163.663 90.1367 161.442 90.1367 161.442C90.1367 161.442 92.7842 160.984 97.0229 160.408L96.9503 160.648C96.9503 160.648 97.313 180.645 113.266 177.943C114.114 177.798 114.866 177.716 115.528 177.685Z" fill="#2E2C54"/>
<path d="M90.4932 116.867C90.4932 116.867 95.6929 122.381 102.073 123.561C102.073 123.561 99.9751 129.809 100.063 133.174C100.063 133.174 92.3174 130.29 88.3467 124.435C88.3467 124.435 88.7016 119.525 90.4932 116.867Z" fill="#FFA4AF"/>
<path d="M107.229 123.516C107.229 123.516 110.637 120.458 112.472 117.181C112.472 117.181 114.133 120.545 115.575 124.041C115.575 124.041 112.997 129.066 110.157 131.076C110.157 131.076 108.671 126.838 107.229 123.516Z" fill="#FFA4AF"/>
<path d="M149.804 126.893C149.605 126.73 149.41 126.567 149.22 126.399C129.273 109.304 130.565 69.6692 130.565 69.6692L141.898 69.1025C139.536 86.8641 142.329 102.921 145.23 113.575C147.483 121.871 149.804 126.893 149.804 126.893Z" fill="#955452"/>
<path opacity="0.31" d="M149.22 126.399C129.273 109.304 130.565 69.6692 130.565 69.6692L141.898 69.1025C139.536 86.8641 142.329 102.921 145.23 113.575C144.369 114.436 143.444 115.197 142.601 115.556C142.601 115.556 145.729 121.707 149.22 126.399Z" fill="#562C2C"/>
<path d="M143.82 108.918C141.544 111.484 138.004 113.138 133.86 114.186C127.341 115.845 119.317 116.008 112.345 115.895C102 115.727 88.3411 113.048 84.2203 98.1195C83.7942 96.5827 83.4723 94.9144 83.2638 93.1102C83.2638 93.1102 80.0451 94.928 76.7494 92.7067C75.6296 91.9542 74.5054 90.7392 73.4944 88.8307C69.7635 81.7995 72.5062 73.644 80.2899 74.995C80.852 75.0902 81.4414 75.2352 82.0534 75.4347C82.0534 75.4347 82.4251 69.7544 83.912 66.0371C83.912 66.0371 95.8211 68.7344 110.985 68.8251C126.145 68.9203 140.783 68.0816 145.742 66.4088C145.742 66.4088 145.81 66.8622 145.883 67.6555C146.046 69.4462 146.236 72.955 145.742 76.8264C145.03 82.407 144.631 84.9502 145.901 88.7944C145.996 89.0891 146.105 89.42 146.209 89.7782C146.794 91.7275 147.465 94.5608 147.533 97.6435C147.614 101.415 146.798 105.563 143.82 108.918Z" fill="#F9C3A9"/>
<path opacity="0.26" d="M84.2203 98.1193C83.7942 96.5825 83.4723 94.9142 83.2638 93.1099C83.2638 93.1099 80.0451 94.9278 76.7494 92.7065C75.6296 91.9539 74.5054 90.739 73.4944 88.8305C69.7635 81.7993 72.5062 73.6438 80.2899 74.9947C74.3648 74.3193 71.6267 79.9315 74.1155 87.2665C76.6043 94.6059 82.0488 91.8678 82.0488 91.8678C82.0488 91.8678 80.4622 74.691 83.572 74.9403C86.4598 75.1715 89.8734 93.4545 84.2203 98.1193Z" fill="#AA4141"/>
<path opacity="0.26" d="M97.1416 103.645C94.6754 93.0821 95.8677 75.6673 97.1416 72.9699C98.4109 70.2726 114.892 71.3094 128.007 70.4616C136.811 69.8904 142.813 68.5214 145.882 67.6555C145.81 66.8622 145.742 66.4088 145.742 66.4088C140.782 68.0816 126.144 68.9203 110.985 68.8251C95.8206 68.7344 83.9115 66.0371 83.9115 66.0371C82.8824 68.6093 82.3878 72.1199 82.1807 74.0398C82.7972 77.0028 82.5383 80.3021 82.9205 83.2039C83.4994 87.6017 84.6735 91.9011 84.9759 96.3365C85.0317 97.1512 84.7878 97.9191 84.3594 98.5774C88.6348 113.093 102.108 115.728 112.345 115.895C119.317 116.008 127.341 115.845 133.86 114.186C133.108 114.245 132.269 114.372 131.34 114.571C117.73 117.49 99.6032 114.212 97.1416 103.645Z" fill="#AA4141"/>
<g opacity="0.57">
<path d="M75.072 86.397C74.649 85.4613 74.4087 84.4368 74.3838 83.3773C74.3983 82.8492 74.4373 82.3029 74.6354 81.7802C74.8344 81.2689 75.1268 80.7521 75.5742 80.3881C75.7737 80.1741 76.0353 80.0558 76.2774 79.9048C76.5262 79.7706 76.781 79.6804 77.0412 79.5816C77.5725 79.4143 78.1578 79.3295 78.7435 79.4243C79.3292 79.5136 79.885 79.7892 80.3243 80.1664C80.7731 80.5504 81.099 80.9928 81.3547 81.5495L81.7468 82.404L80.8102 82.1443C80.1466 81.9602 79.3333 82.0006 78.8373 82.4095C78.3242 82.8166 78.0871 83.599 78.0404 84.3647C77.9805 85.1249 78.2067 85.8951 78.7471 86.4491C79.2834 87.0017 80.1112 87.3028 80.9435 87.2039C80.1484 87.4782 79.1841 87.315 78.4774 86.7542C77.7652 86.1971 77.3631 85.2546 77.3753 84.3561C77.3572 83.9028 77.4293 83.4635 77.5408 83.011C77.685 82.5672 77.9252 82.1216 78.3065 81.7843C78.6855 81.4461 79.1764 81.2498 79.6533 81.1909C80.1411 81.132 80.5863 81.1655 81.0763 81.2952L80.5319 81.89C80.1565 81.122 79.4371 80.4184 78.5962 80.2883C78.1737 80.2203 77.7253 80.2543 77.2788 80.3708C76.83 80.5105 76.3975 80.6832 76.053 80.962C75.3217 81.4906 74.9645 82.4321 74.8584 83.4C74.7601 84.3788 74.8575 85.3983 75.072 86.397Z" fill="#5E3434"/>
</g>
<g opacity="0.57">
<path d="M127.398 75.3799C126.619 77.093 126.042 78.8724 125.712 80.6789C125.546 81.5824 125.47 82.4945 125.473 83.3994C125.464 84.3069 125.599 85.2 125.798 86.0731L125.031 85.8718L126.007 84.8614L126.495 84.3563C126.665 84.1868 126.846 84 127.048 83.8445C127.448 83.5295 127.914 83.2384 128.489 83.1478C129.058 83.0294 129.716 83.2697 130.088 83.6754C130.478 84.0803 130.714 84.5223 130.842 85.0522C130.954 85.5758 130.888 86.1062 130.728 86.5759C130.562 87.0469 130.312 87.4703 130.015 87.8479C129.719 88.2251 129.378 88.566 128.985 88.8289C129.315 88.4935 129.58 88.1072 129.806 87.7087C130.029 87.3084 130.213 86.8873 130.299 86.4548C130.393 86.0264 130.395 85.5899 130.268 85.2045C130.143 84.8364 129.895 84.4334 129.606 84.1936C129.463 84.0644 129.301 83.9819 129.137 83.9406C128.974 83.8921 128.801 83.8908 128.624 83.9307C128.269 83.9991 127.912 84.2271 127.596 84.5055C127.434 84.646 127.287 84.7947 127.129 84.9597L126.648 85.4724L125.686 86.4979L125.095 87.1276L124.919 86.2966C124.716 85.3387 124.577 84.364 124.616 83.3916C124.663 82.4238 124.766 81.4577 125.022 80.5311C125.257 79.6009 125.581 78.6996 125.974 77.8342C126.378 76.9738 126.833 76.1374 127.398 75.3799Z" fill="#5E3434"/>
</g>
<path d="M128.254 84.8305C128.223 84.8694 128.193 84.9121 128.183 84.961C128.166 85.0508 128.218 85.1378 128.263 85.2176C128.457 85.5617 128.547 85.9638 128.519 86.3577C128.51 86.4892 128.499 86.6479 128.606 86.7245C128.647 86.7535 128.697 86.7644 128.747 86.768C128.964 86.7857 129.181 86.6814 129.328 86.5196C129.475 86.3582 129.556 86.1447 129.587 85.9289C129.627 85.6455 129.582 85.345 129.429 85.1034C129.186 84.7203 128.59 84.4138 128.254 84.8305Z" fill="#FFDFD2"/>
<path d="M126.518 82.1529C126.529 82.3043 126.547 82.4607 126.622 82.5931C126.698 82.725 126.845 82.8274 126.995 82.8048C127.269 82.7635 127.332 82.4031 127.338 82.1261C127.362 80.9606 127.567 79.7987 127.942 78.6953C128.071 78.3159 128.589 77.2215 128.15 76.8951C127.649 76.522 127.343 77.7714 127.242 78.0602C126.781 79.3712 126.419 80.7516 126.518 82.1529Z" fill="#FFDFD2"/>
<path d="M124.149 95.2511C125.449 95.0026 126.762 94.9156 128.077 94.8948C129.389 94.8907 130.717 94.9405 132.007 95.2511L130.041 95.3105L128.082 95.3476C126.775 95.354 125.467 95.359 124.149 95.2511Z" fill="#AD405F"/>
<path d="M126.113 96.7627C126.443 96.8901 126.762 96.9857 127.084 97.0596C127.405 97.1276 127.724 97.1866 128.049 97.1988C128.371 97.2156 128.697 97.2192 129.026 97.1847C129.357 97.1621 129.686 97.1013 130.042 97.0651C129.759 97.2763 129.436 97.44 129.09 97.5329C128.747 97.6431 128.381 97.6626 128.02 97.6512C127.658 97.6277 127.3 97.5411 126.971 97.3937C126.643 97.2478 126.335 97.0438 126.113 96.7627Z" fill="#AD405F"/>
<path d="M110.587 82.1798C110.587 84.0158 109.735 85.5041 108.685 85.5041C107.635 85.5041 106.783 84.0158 106.783 82.1798C106.783 80.3438 107.635 78.8555 108.685 78.8555C109.735 78.8555 110.587 80.3438 110.587 82.1798Z" fill="#562C2C"/>
<path d="M137.574 85.5041C138.624 85.5041 139.475 84.0157 139.475 82.1798C139.475 80.3438 138.624 78.8555 137.574 78.8555C136.523 78.8555 135.672 80.3438 135.672 82.1798C135.672 84.0157 136.523 85.5041 137.574 85.5041Z" fill="#562C2C"/>
<path d="M99.6971 76.9541C100.705 75.7537 102.784 73.579 105.674 72.0866C106.389 71.7176 106.589 70.7502 106.102 69.956C106.095 69.9437 106.087 69.932 106.079 69.9197C105.646 69.2257 104.827 68.9206 104.188 69.2229C102.632 69.9592 99.4042 71.772 97.3647 74.9059C97.027 75.425 97.0728 76.1793 97.5016 76.7338C97.512 76.7474 97.5225 76.7605 97.5329 76.7741C98.1313 77.5262 99.1567 77.5974 99.6971 76.9541Z" fill="#955452"/>
<path d="M143.218 76.2848C142.146 75.2635 139.964 73.4515 137.084 72.4297C136.372 72.1772 136.086 71.2615 136.467 70.411C136.473 70.3979 136.479 70.3852 136.485 70.372C136.825 69.6276 137.567 69.2056 138.202 69.4046C139.746 69.8892 142.977 71.1731 145.217 73.9293C145.588 74.3858 145.62 75.1302 145.271 75.7372C145.262 75.7517 145.254 75.7667 145.245 75.7812C144.755 76.6072 143.793 76.8325 143.218 76.2848Z" fill="#955452"/>
<g opacity="0.25">
<path d="M104.294 102.23C108.74 102.23 112.344 100.197 112.344 97.6901C112.344 95.1829 108.74 93.1504 104.294 93.1504C99.8482 93.1504 96.2441 95.1829 96.2441 97.6901C96.2441 100.197 99.8482 102.23 104.294 102.23Z" fill="#AD405F"/>
<path d="M147.532 97.6436C147.192 97.6754 146.848 97.689 146.494 97.689C142.618 97.689 139.477 95.9165 139.477 93.7314C139.477 91.6007 142.464 89.8599 146.209 89.7783C146.793 91.7277 147.464 94.561 147.532 97.6436Z" fill="#AD405F"/>
</g>
<path d="M94.6426 121.086C94.6426 121.086 78.2455 102.327 82.8741 67.2388C82.8786 67.2071 82.8786 67.1889 82.8786 67.1889C82.9602 66.5679 83.0509 65.9423 83.1461 65.3076L93.9037 67.2297C93.9037 67.2297 88.16 90.1412 94.6426 121.086Z" fill="#955452"/>
<path opacity="0.31" d="M94.6426 121.085C94.6426 121.085 78.2455 102.326 82.8741 67.2383C82.8151 68.6572 81.6592 99.2209 94.6426 121.085Z" fill="#562C2C"/>
<path d="M197.643 90.8378C196.024 94.6068 196.024 98.874 196.297 102.687C196.569 106.501 196.57 109.951 196.161 111.585C196.161 111.585 207.464 114.4 214.274 118.304C214.274 118.304 217.542 110.587 219.176 105.775C220.811 100.963 222.765 93.5174 222.765 93.5174C222.765 93.5174 210.369 89.6133 205.104 89.0684C199.838 88.5235 197.643 90.8378 197.643 90.8378Z" fill="#F9C3A9"/>
<path d="M197.089 95.7382C197.919 93.9466 198.692 93.3052 200.202 92.0032C201.712 90.7012 202.82 89.9142 204.025 90.7883C205.23 91.6623 204.826 93.6869 202.869 97.469C200.913 101.251 201.002 103.332 198.69 103.643C196.378 103.955 196.208 97.6408 197.089 95.7382Z" fill="#F9C3A9"/>
<path d="M307.356 170.738C307.351 170.806 307.342 170.874 307.333 170.942C307.306 171.241 307.265 171.536 307.206 171.822V171.835C307.034 172.756 306.739 173.63 306.336 174.442C304.785 177.624 301.639 179.877 297.926 180.154C275.165 181.863 212.07 185.757 166.147 180.458C161.514 179.923 157.837 176.314 157.194 171.695C155.407 158.933 152.833 131.865 157.162 101.21C157.837 96.4505 161.759 92.8102 166.555 92.4657C167.19 92.4203 167.861 92.375 168.568 92.3251C189.539 90.8835 240.63 88.3267 297.836 92.4339C302.895 92.8011 306.934 96.8177 307.31 101.877C308.299 115.209 309.636 142.069 307.356 170.738Z" fill="#D00000"/>
<path opacity="0.73" d="M172.802 95.1162C172.802 95.1162 221.858 92.034 250.154 92.3251C278.45 92.6161 296.92 92.8101 300.372 95.2504C303.824 97.6907 305.618 97.3829 306.336 107.072C307.053 116.76 307.925 140.289 306.336 154.59C306.336 154.59 306.131 112.761 304.131 105.226C302.132 97.6907 301.979 96.6938 290.599 95.1162C279.219 93.5386 200.175 91.7729 172.802 95.1162Z" fill="black"/>
<path opacity="0.17" d="M306.336 174.442C304.785 177.624 301.639 179.877 297.926 180.154C275.165 181.863 212.07 185.757 166.147 180.458C161.514 179.923 157.837 176.314 157.194 171.695C155.407 158.933 152.833 131.865 157.162 101.211C157.837 96.4505 161.759 92.8103 166.555 92.4657C167.19 92.4204 167.861 92.3751 168.568 92.3252C161.333 94.3516 160.041 104.488 159.574 116.406C159.107 128.324 160.53 151.395 161.917 163.517C163.3 175.639 170.576 177.162 221.59 179.456C268.41 181.559 300.696 183.187 306.336 174.442Z" fill="#562C2C"/>
<path opacity="0.17" d="M307.333 170.942C307.306 171.242 307.265 171.536 307.206 171.822C307.233 171.486 307.274 171.196 307.333 170.942Z" fill="#562C2C"/>
<path d="M212.017 118.575C211.34 118.575 210.79 118.454 210.366 118.214C209.942 117.967 209.616 117.619 209.389 117.17C209.161 116.721 209.003 116.193 208.914 115.586C208.832 114.972 208.791 114.295 208.791 113.555V111.933H210.698V113.631C210.698 114.801 210.78 115.64 210.945 116.146C211.116 116.645 211.479 116.895 212.036 116.895C212.422 116.895 212.703 116.807 212.88 116.629C213.064 116.446 213.181 116.155 213.231 115.757C213.282 115.358 213.307 114.833 213.307 114.182C213.307 113.435 213.174 112.793 212.909 112.255C212.649 111.718 212.273 111.202 211.78 110.709L210.689 109.618C210.372 109.295 210.062 108.944 209.759 108.565C209.455 108.179 209.202 107.742 209 107.255C208.804 106.768 208.706 106.212 208.706 105.585C208.706 104.744 208.794 104.017 208.971 103.403C209.148 102.79 209.471 102.315 209.939 101.98C210.407 101.645 211.071 101.477 211.932 101.477C212.608 101.477 213.149 101.594 213.554 101.828C213.965 102.062 214.272 102.397 214.474 102.834C214.683 103.264 214.819 103.776 214.882 104.371C214.952 104.965 214.987 105.623 214.987 106.344V107.331H213.108V106.212C213.108 105.535 213.08 104.972 213.023 104.523C212.972 104.067 212.865 103.726 212.7 103.498C212.536 103.27 212.279 103.156 211.932 103.156C211.615 103.156 211.356 103.235 211.154 103.394C210.957 103.545 210.815 103.783 210.727 104.105C210.638 104.428 210.594 104.842 210.594 105.348C210.594 105.791 210.648 106.158 210.755 106.449C210.863 106.733 211.024 106.999 211.239 107.246C211.46 107.492 211.729 107.783 212.045 108.119L213.184 109.324C213.785 109.95 214.275 110.652 214.655 111.43C215.04 112.202 215.233 113.1 215.233 114.125C215.233 115.048 215.142 115.842 214.958 116.506C214.781 117.17 214.462 117.683 214 118.043C213.538 118.397 212.877 118.575 212.017 118.575ZM220.31 118.575C219.475 118.575 218.814 118.391 218.327 118.024C217.846 117.657 217.501 117.104 217.292 116.364C217.09 115.624 216.989 114.697 216.989 113.584V106.221C216.989 105.26 217.084 104.425 217.273 103.716C217.463 103.008 217.802 102.457 218.289 102.065C218.776 101.673 219.465 101.477 220.357 101.477C221.027 101.477 221.575 101.591 221.998 101.819C222.422 102.04 222.748 102.359 222.976 102.777C223.21 103.188 223.371 103.685 223.46 104.267C223.548 104.848 223.592 105.5 223.592 106.221V113.584C223.592 114.697 223.491 115.624 223.289 116.364C223.093 117.104 222.754 117.657 222.274 118.024C221.799 118.391 221.144 118.575 220.31 118.575ZM220.31 116.886C220.67 116.886 220.945 116.784 221.135 116.582C221.325 116.373 221.454 116.029 221.524 115.548C221.594 115.067 221.628 114.419 221.628 113.603V106.107C221.628 105.108 221.549 104.368 221.391 103.887C221.233 103.406 220.888 103.166 220.357 103.166C219.807 103.166 219.433 103.406 219.237 103.887C219.048 104.361 218.953 105.098 218.953 106.098V113.603C218.953 114.425 218.988 115.077 219.057 115.557C219.127 116.032 219.26 116.373 219.456 116.582C219.652 116.784 219.936 116.886 220.31 116.886ZM226.135 118.385V101.686H229.636C230.522 101.686 231.177 101.844 231.6 102.16C232.024 102.47 232.299 102.941 232.426 103.574C232.559 104.2 232.625 104.991 232.625 105.946C232.625 106.977 232.521 107.796 232.312 108.403C232.103 109.011 231.698 109.403 231.097 109.58C231.401 109.63 231.651 109.76 231.847 109.969C232.049 110.178 232.208 110.503 232.321 110.946C232.435 111.389 232.514 111.983 232.559 112.73C232.609 113.47 232.635 114.403 232.635 115.529C232.635 115.636 232.635 115.791 232.635 115.994C232.635 116.196 232.638 116.418 232.644 116.658C232.65 116.898 232.657 117.136 232.663 117.37C232.676 117.604 232.691 117.812 232.71 117.996C232.729 118.173 232.755 118.303 232.786 118.385H230.832C230.806 118.328 230.784 118.201 230.765 118.005C230.746 117.809 230.731 117.55 230.718 117.227C230.705 116.905 230.696 116.522 230.689 116.079C230.683 115.63 230.68 115.13 230.68 114.58C230.68 114.023 230.68 113.416 230.68 112.758C230.68 112.126 230.652 111.645 230.595 111.316C230.544 110.981 230.417 110.75 230.215 110.624C230.019 110.491 229.703 110.412 229.266 110.386L228.099 110.32V118.385H226.135ZM228.099 108.878H229.352C229.712 108.878 229.987 108.808 230.177 108.669C230.373 108.524 230.506 108.239 230.576 107.815C230.645 107.385 230.68 106.743 230.68 105.889V105.775C230.68 105.067 230.645 104.532 230.576 104.172C230.512 103.805 230.386 103.558 230.196 103.432C230.006 103.305 229.719 103.242 229.333 103.242H228.099V108.878ZM235.054 118.385V101.686H238.555C239.441 101.686 240.095 101.844 240.519 102.16C240.943 102.47 241.218 102.941 241.345 103.574C241.477 104.2 241.544 104.991 241.544 105.946C241.544 106.977 241.439 107.796 241.231 108.403C241.022 109.011 240.617 109.403 240.016 109.58C240.32 109.63 240.57 109.76 240.766 109.969C240.968 110.178 241.126 110.503 241.24 110.946C241.354 111.389 241.433 111.983 241.477 112.73C241.528 113.47 241.553 114.403 241.553 115.529C241.553 115.636 241.553 115.791 241.553 115.994C241.553 116.196 241.556 116.418 241.563 116.658C241.569 116.898 241.575 117.136 241.582 117.37C241.594 117.604 241.61 117.812 241.629 117.996C241.648 118.173 241.673 118.303 241.705 118.385H239.751C239.725 118.328 239.703 118.201 239.684 118.005C239.665 117.809 239.649 117.55 239.637 117.227C239.624 116.905 239.615 116.522 239.608 116.079C239.602 115.63 239.599 115.13 239.599 114.58C239.599 114.023 239.599 113.416 239.599 112.758C239.599 112.126 239.57 111.645 239.513 111.316C239.463 110.981 239.336 110.75 239.134 110.624C238.938 110.491 238.621 110.412 238.185 110.386L237.018 110.32V118.385H235.054ZM237.018 108.878H238.27C238.631 108.878 238.906 108.808 239.096 108.669C239.292 108.524 239.425 108.239 239.494 107.815C239.564 107.385 239.599 106.743 239.599 105.889V105.775C239.599 105.067 239.564 104.532 239.494 104.172C239.431 103.805 239.305 103.558 239.115 103.432C238.925 103.305 238.637 103.242 238.251 103.242H237.018V108.878ZM245.652 118.385V111.373L242.749 101.686H244.694L246.629 108.47H246.667L248.347 101.686H250.311L247.616 111.373V118.385H245.652Z" fill="#FFC000"/>
<path d="M194.765 164.099C193.45 164.099 192.402 163.781 191.621 163.143C190.84 162.496 190.28 161.551 189.941 160.307C189.601 159.064 189.432 157.553 189.432 155.775V144.476C189.432 143.284 189.509 142.195 189.663 141.208C189.817 140.212 190.09 139.353 190.48 138.634C190.881 137.905 191.436 137.344 192.145 136.954C192.854 136.553 193.763 136.353 194.873 136.353C195.932 136.353 196.795 136.543 197.463 136.923C198.131 137.293 198.65 137.827 199.02 138.526C199.39 139.215 199.642 140.037 199.775 140.993C199.919 141.938 199.991 142.986 199.991 144.137V147.143H196.862V144.122C196.862 142.436 196.738 141.178 196.492 140.345C196.255 139.502 195.716 139.081 194.873 139.081C193.979 139.081 193.378 139.513 193.07 140.376C192.772 141.229 192.623 142.472 192.623 144.106V155.852C192.623 157.168 192.679 158.236 192.792 159.059C192.905 159.87 193.116 160.461 193.424 160.831C193.743 161.201 194.195 161.386 194.781 161.386C195.634 161.386 196.194 160.955 196.461 160.091C196.728 159.228 196.862 157.81 196.862 155.837V152.831H200.022V155.806C200.022 157.615 199.862 159.136 199.544 160.369C199.236 161.602 198.701 162.532 197.941 163.159C197.18 163.786 196.122 164.099 194.765 164.099ZM203.891 163.775V136.646H207.082V161.139H212.091V163.775H203.891ZM219.398 164.084C218.041 164.084 216.968 163.786 216.176 163.19C215.395 162.594 214.835 161.694 214.496 160.492C214.167 159.29 214.003 157.784 214.003 155.976V144.014C214.003 142.452 214.157 141.095 214.465 139.944C214.774 138.793 215.323 137.899 216.115 137.262C216.906 136.625 218.026 136.307 219.475 136.307C220.564 136.307 221.453 136.491 222.142 136.861C222.83 137.221 223.36 137.74 223.729 138.418C224.11 139.086 224.372 139.893 224.516 140.838C224.659 141.784 224.731 142.842 224.731 144.014V155.976C224.731 157.784 224.567 159.29 224.238 160.492C223.92 161.694 223.37 162.594 222.589 163.19C221.818 163.786 220.754 164.084 219.398 164.084ZM219.398 161.34C219.984 161.34 220.431 161.175 220.739 160.847C221.047 160.507 221.258 159.947 221.371 159.166C221.484 158.385 221.541 157.332 221.541 156.006V143.829C221.541 142.205 221.412 141.003 221.155 140.222C220.898 139.441 220.338 139.05 219.475 139.05C218.581 139.05 217.975 139.441 217.656 140.222C217.348 140.993 217.194 142.19 217.194 143.813V156.006C217.194 157.342 217.25 158.401 217.363 159.182C217.476 159.953 217.692 160.507 218.011 160.847C218.329 161.175 218.792 161.34 219.398 161.34ZM233.24 164.084C232.141 164.084 231.247 163.888 230.558 163.498C229.87 163.097 229.34 162.532 228.97 161.802C228.6 161.073 228.344 160.215 228.2 159.228C228.066 158.231 227.999 157.132 227.999 155.929V153.293H231.098V156.053C231.098 157.954 231.231 159.315 231.498 160.138C231.776 160.949 232.367 161.355 233.271 161.355C233.898 161.355 234.355 161.211 234.643 160.924C234.941 160.626 235.131 160.153 235.213 159.506C235.296 158.858 235.337 158.005 235.337 156.947C235.337 155.734 235.121 154.691 234.689 153.818C234.268 152.944 233.656 152.107 232.855 151.305L231.082 149.532C230.568 149.008 230.065 148.438 229.572 147.821C229.078 147.194 228.667 146.485 228.338 145.694C228.02 144.903 227.861 143.998 227.861 142.981C227.861 141.614 228.004 140.433 228.292 139.436C228.58 138.439 229.104 137.668 229.864 137.123C230.625 136.579 231.704 136.307 233.102 136.307C234.201 136.307 235.08 136.497 235.737 136.877C236.405 137.257 236.904 137.802 237.233 138.511C237.572 139.21 237.793 140.042 237.896 141.008C238.009 141.974 238.065 143.043 238.065 144.214V145.817H235.013V143.998C235.013 142.899 234.967 141.984 234.874 141.255C234.792 140.515 234.617 139.96 234.35 139.59C234.083 139.22 233.667 139.035 233.102 139.035C232.588 139.035 232.166 139.163 231.838 139.42C231.519 139.667 231.288 140.052 231.144 140.576C231 141.1 230.928 141.774 230.928 142.596C230.928 143.315 231.015 143.911 231.19 144.384C231.365 144.846 231.627 145.278 231.976 145.679C232.336 146.079 232.773 146.552 233.287 147.097L235.136 149.054C236.113 150.072 236.909 151.212 237.526 152.476C238.152 153.73 238.466 155.189 238.466 156.854C238.466 158.355 238.317 159.644 238.019 160.723C237.731 161.802 237.212 162.635 236.462 163.22C235.712 163.796 234.638 164.084 233.24 164.084ZM241.626 163.775V136.646H249.734V139.297H244.817V148.577H249.472V151.228H244.817V161.124H249.796V163.775H241.626ZM253.279 163.775V136.646H258.382C259.8 136.646 260.904 136.944 261.696 137.54C262.487 138.125 263.042 138.968 263.36 140.068C263.679 141.167 263.838 142.483 263.838 144.014L263.854 155.929C263.854 157.759 263.669 159.254 263.299 160.415C262.939 161.566 262.348 162.414 261.526 162.958C260.714 163.503 259.63 163.775 258.274 163.775H253.279ZM256.455 161.201H258.089C258.664 161.201 259.142 161.078 259.522 160.831C259.902 160.574 260.185 160.102 260.37 159.413C260.565 158.725 260.663 157.728 260.663 156.423V143.937C260.663 142.231 260.463 141.013 260.062 140.283C259.661 139.544 259.003 139.174 258.089 139.174H256.455V161.201Z" fill="white"/>
<path d="M225.048 126.878L224.443 122.294H224.941L225.331 125.808L225.852 122.294H226.292L226.826 125.808L227.157 122.294H227.652L227.11 126.878H226.576L226.087 123.495L225.568 126.878H225.048ZM228.167 126.878V122.294H229.537V122.742H228.707V124.31H229.493V124.758H228.707V126.43H229.548V126.878H228.167ZM231.178 126.878L231.873 122.294H232.522L233.28 126.878H232.772L232.642 126.003H231.811L231.691 126.878H231.178ZM231.871 125.565H232.574L232.212 123.143H232.204L231.871 125.565ZM233.788 126.878V122.294H234.749C234.992 122.294 235.171 122.338 235.288 122.425C235.404 122.51 235.479 122.639 235.514 122.813C235.551 122.985 235.569 123.202 235.569 123.464C235.569 123.747 235.54 123.972 235.483 124.138C235.426 124.305 235.315 124.413 235.15 124.461C235.233 124.475 235.302 124.511 235.355 124.568C235.411 124.625 235.454 124.715 235.486 124.836C235.517 124.958 235.538 125.121 235.551 125.326C235.565 125.529 235.571 125.785 235.571 126.094C235.571 126.124 235.571 126.166 235.571 126.222C235.571 126.277 235.572 126.338 235.574 126.404C235.576 126.47 235.578 126.535 235.579 126.599C235.583 126.664 235.587 126.721 235.592 126.771C235.598 126.82 235.604 126.855 235.613 126.878H235.077C235.07 126.862 235.064 126.828 235.058 126.774C235.053 126.72 235.049 126.649 235.045 126.56C235.042 126.472 235.039 126.367 235.038 126.245C235.036 126.122 235.035 125.985 235.035 125.834C235.035 125.681 235.035 125.514 235.035 125.334C235.035 125.16 235.027 125.028 235.012 124.938C234.998 124.846 234.963 124.782 234.907 124.748C234.854 124.711 234.767 124.689 234.647 124.683L234.327 124.664V126.878H233.788ZM234.327 124.268H234.67C234.769 124.268 234.845 124.249 234.897 124.211C234.951 124.171 234.987 124.093 235.006 123.977C235.025 123.859 235.035 123.682 235.035 123.448V123.417C235.035 123.222 235.025 123.076 235.006 122.977C234.989 122.876 234.954 122.808 234.902 122.774C234.85 122.739 234.771 122.721 234.665 122.721H234.327V124.268ZM236.236 126.878V122.294H237.605V122.742H236.775V124.31H237.561V124.758H236.775V126.43H237.616V126.878H236.236Z" fill="#FFC000"/>
<path d="M205.643 173.49V168.907H206.565C206.747 168.907 206.894 168.937 207.007 168.998C207.122 169.059 207.21 169.146 207.27 169.261C207.331 169.375 207.372 169.513 207.393 169.675C207.415 169.836 207.427 170.018 207.427 170.219V170.29C207.427 170.597 207.402 170.855 207.354 171.063C207.307 171.271 207.221 171.429 207.096 171.534C206.973 171.639 206.795 171.691 206.565 171.691H206.182V173.49H205.643ZM206.182 171.243H206.51C206.616 171.243 206.696 171.213 206.749 171.154C206.803 171.093 206.84 170.994 206.859 170.855C206.88 170.716 206.89 170.527 206.89 170.29V170.201C206.89 169.906 206.867 169.688 206.822 169.547C206.777 169.405 206.677 169.334 206.523 169.334H206.182V171.243ZM207.971 173.49V168.907H208.51V173.045H209.356V173.49H207.971ZM209.783 173.49V168.907H211.153V169.355H210.322V170.922H211.109V171.37H210.322V173.042H211.164V173.49H209.783ZM211.507 173.49L212.203 168.907H212.851L213.609 173.49H213.101L212.971 172.615H212.14L212.02 173.49H211.507ZM212.2 172.178H212.903L212.541 169.756H212.534L212.2 172.178ZM214.857 173.542C214.671 173.542 214.52 173.509 214.403 173.443C214.287 173.376 214.198 173.28 214.135 173.157C214.073 173.034 214.029 172.889 214.005 172.722C213.982 172.554 213.971 172.368 213.971 172.165V171.719H214.495V172.185C214.495 172.507 214.517 172.737 214.562 172.876C214.609 173.013 214.709 173.081 214.862 173.081C214.968 173.081 215.045 173.057 215.094 173.008C215.144 172.958 215.176 172.878 215.19 172.769C215.204 172.659 215.211 172.515 215.211 172.337C215.211 172.132 215.174 171.955 215.101 171.808C215.03 171.66 214.927 171.519 214.791 171.383L214.492 171.084C214.405 170.995 214.32 170.899 214.237 170.795C214.153 170.689 214.084 170.569 214.028 170.435C213.975 170.302 213.948 170.149 213.948 169.977C213.948 169.746 213.972 169.546 214.021 169.378C214.069 169.21 214.158 169.079 214.286 168.987C214.415 168.895 214.597 168.849 214.833 168.849C215.019 168.849 215.167 168.882 215.278 168.946C215.391 169.01 215.476 169.102 215.531 169.222C215.588 169.34 215.626 169.481 215.643 169.644C215.662 169.807 215.672 169.987 215.672 170.185V170.456H215.156V170.149C215.156 169.963 215.148 169.809 215.133 169.685C215.119 169.56 215.089 169.467 215.044 169.404C214.999 169.342 214.929 169.31 214.833 169.31C214.746 169.31 214.675 169.332 214.62 169.375C214.566 169.417 214.527 169.482 214.502 169.571C214.478 169.659 214.466 169.773 214.466 169.912C214.466 170.033 214.481 170.134 214.51 170.214C214.54 170.292 214.584 170.365 214.643 170.433C214.704 170.501 214.778 170.58 214.864 170.672L215.177 171.003C215.342 171.175 215.476 171.368 215.581 171.581C215.686 171.793 215.739 172.04 215.739 172.321C215.739 172.574 215.714 172.792 215.664 172.975C215.615 173.157 215.528 173.298 215.401 173.396C215.274 173.494 215.093 173.542 214.857 173.542ZM216.273 173.49V168.907H217.643V169.355H216.812V170.922H217.599V171.37H216.812V173.042H217.654V173.49H216.273ZM220.378 173.545C220.155 173.545 219.978 173.491 219.846 173.383C219.714 173.274 219.62 173.114 219.563 172.904C219.505 172.694 219.477 172.439 219.477 172.139V170.23C219.477 170.028 219.49 169.844 219.516 169.678C219.542 169.509 219.588 169.364 219.654 169.243C219.721 169.119 219.815 169.025 219.935 168.959C220.055 168.891 220.208 168.857 220.396 168.857C220.575 168.857 220.721 168.889 220.833 168.954C220.946 169.016 221.034 169.106 221.096 169.224C221.159 169.341 221.201 169.48 221.224 169.641C221.248 169.801 221.261 169.978 221.261 170.172V170.68H220.732V170.17C220.732 169.885 220.711 169.672 220.669 169.532C220.629 169.389 220.538 169.318 220.396 169.318C220.245 169.318 220.143 169.391 220.091 169.537C220.041 169.681 220.016 169.891 220.016 170.167V172.152C220.016 172.374 220.025 172.554 220.044 172.693C220.063 172.83 220.099 172.93 220.151 172.993C220.205 173.055 220.281 173.087 220.38 173.087C220.524 173.087 220.619 173.014 220.664 172.868C220.709 172.722 220.732 172.482 220.732 172.149V171.641H221.266V172.144C221.266 172.449 221.239 172.706 221.185 172.915C221.133 173.123 221.043 173.28 220.914 173.386C220.786 173.492 220.607 173.545 220.378 173.545ZM222.779 173.542C222.55 173.542 222.368 173.492 222.235 173.391C222.103 173.291 222.008 173.139 221.951 172.936C221.895 172.732 221.867 172.478 221.867 172.172V170.152C221.867 169.888 221.893 169.658 221.945 169.464C221.998 169.27 222.09 169.119 222.224 169.011C222.358 168.903 222.547 168.849 222.792 168.849C222.976 168.849 223.126 168.881 223.242 168.943C223.359 169.004 223.448 169.092 223.511 169.206C223.575 169.319 223.619 169.455 223.643 169.615C223.668 169.775 223.68 169.954 223.68 170.152V172.172C223.68 172.478 223.652 172.732 223.597 172.936C223.543 173.139 223.45 173.291 223.318 173.391C223.188 173.492 223.008 173.542 222.779 173.542ZM222.779 173.079C222.878 173.079 222.953 173.051 223.005 172.995C223.057 172.938 223.093 172.844 223.112 172.712C223.131 172.58 223.141 172.402 223.141 172.178V170.12C223.141 169.846 223.119 169.643 223.076 169.511C223.032 169.379 222.938 169.313 222.792 169.313C222.641 169.313 222.538 169.379 222.485 169.511C222.432 169.641 222.406 169.843 222.406 170.118V172.178C222.406 172.403 222.416 172.582 222.435 172.714C222.454 172.844 222.491 172.938 222.544 172.995C222.598 173.051 222.676 173.079 222.779 173.079ZM224.378 173.49V168.907H224.998L225.706 172.571L226.381 168.907H227.003V173.49H226.542V171.756L226.586 170.042L225.896 173.49H225.511L224.792 170.042L224.836 171.756V173.49H224.378ZM227.753 173.49V168.907H229.123V169.355H228.292V170.922H229.079V171.37H228.292V173.042H229.133V173.49H227.753ZM231.008 173.49V168.907H231.837C232.071 168.907 232.252 168.941 232.381 169.011C232.509 169.08 232.6 169.191 232.652 169.342C232.704 169.493 232.731 169.691 232.732 169.938V170.037C232.732 170.292 232.708 170.501 232.659 170.662C232.613 170.822 232.521 170.937 232.386 171.008C232.495 171.052 232.58 171.127 232.641 171.235C232.702 171.343 232.745 171.472 232.769 171.623C232.795 171.774 232.808 171.936 232.808 172.11V172.206C232.804 172.505 232.774 172.749 232.717 172.938C232.661 173.127 232.568 173.267 232.438 173.357C232.308 173.446 232.13 173.49 231.904 173.49H231.008ZM231.547 173.055H231.878C231.981 173.055 232.06 173.03 232.115 172.98C232.171 172.929 232.21 172.842 232.232 172.717C232.255 172.59 232.266 172.415 232.266 172.191V172.032C232.266 171.749 232.244 171.546 232.199 171.422C232.153 171.297 232.056 171.235 231.907 171.235H231.547V173.055ZM231.547 170.821H231.852C231.925 170.821 231.984 170.813 232.029 170.797C232.074 170.78 232.109 170.746 232.133 170.696C232.159 170.645 232.177 170.571 232.185 170.472C232.194 170.373 232.199 170.24 232.199 170.073V169.946C232.199 169.772 232.185 169.643 232.159 169.558C232.133 169.473 232.092 169.416 232.034 169.388C231.979 169.361 231.905 169.347 231.813 169.347H231.547V170.821ZM233.154 173.49L233.85 168.907H234.498L235.256 173.49H234.748L234.618 172.615H233.787L233.667 173.49H233.154ZM233.847 172.178H234.55L234.188 169.756H234.18L233.847 172.178ZM236.613 173.545C236.391 173.545 236.213 173.491 236.081 173.383C235.95 173.274 235.855 173.114 235.798 172.904C235.74 172.694 235.712 172.439 235.712 172.139V170.23C235.712 170.028 235.725 169.844 235.751 169.678C235.777 169.509 235.823 169.364 235.889 169.243C235.956 169.119 236.05 169.025 236.17 168.959C236.29 168.891 236.443 168.857 236.631 168.857C236.81 168.857 236.956 168.889 237.069 168.954C237.181 169.016 237.269 169.106 237.332 169.224C237.394 169.341 237.437 169.48 237.459 169.641C237.483 169.801 237.496 169.978 237.496 170.172V170.68H236.967V170.17C236.967 169.885 236.946 169.672 236.904 169.532C236.865 169.389 236.773 169.318 236.631 169.318C236.48 169.318 236.378 169.391 236.326 169.537C236.276 169.681 236.251 169.891 236.251 170.167V172.152C236.251 172.374 236.26 172.554 236.279 172.693C236.299 172.83 236.334 172.93 236.386 172.993C236.44 173.055 236.516 173.087 236.615 173.087C236.759 173.087 236.854 173.014 236.899 172.868C236.944 172.722 236.967 172.482 236.967 172.149V171.641H237.501V172.144C237.501 172.449 237.474 172.706 237.42 172.915C237.368 173.123 237.278 173.28 237.149 173.386C237.021 173.492 236.842 173.545 236.613 173.545ZM238.155 173.49V168.907H238.694V171.092L239.509 168.907H240.05L239.196 171.17L240.11 173.49H239.548L238.699 171.297V173.49H238.155ZM241.566 173.49L242.261 168.907H242.91L243.668 173.49H243.16L243.03 172.615H242.199L242.079 173.49H241.566ZM242.259 172.178H242.962L242.6 169.756H242.592L242.259 172.178ZM244.949 173.535C244.683 173.535 244.479 173.425 244.337 173.206C244.195 172.988 244.124 172.627 244.124 172.126V170.204C244.124 170.002 244.137 169.82 244.165 169.657C244.195 169.492 244.244 169.349 244.314 169.23C244.383 169.11 244.478 169.018 244.598 168.954C244.719 168.889 244.872 168.857 245.056 168.857C245.247 168.857 245.399 168.89 245.512 168.956C245.626 169.02 245.713 169.112 245.772 169.232C245.831 169.352 245.87 169.495 245.889 169.662C245.908 169.829 245.918 170.013 245.918 170.214V170.568H245.397V169.972C245.397 169.75 245.374 169.586 245.329 169.48C245.286 169.372 245.195 169.318 245.056 169.318C244.908 169.318 244.806 169.382 244.749 169.508C244.691 169.635 244.663 169.859 244.663 170.18V172.107C244.663 172.458 244.686 172.709 244.733 172.86C244.782 173.011 244.884 173.087 245.04 173.087C245.19 173.087 245.29 173.011 245.342 172.86C245.396 172.707 245.423 172.453 245.423 172.097V171.501H245.051V171.084H245.918V173.49H245.634L245.561 173.136C245.512 173.265 245.435 173.363 245.329 173.433C245.225 173.501 245.098 173.535 244.949 173.535ZM246.379 173.49L247.074 168.907H247.723L248.481 173.49H247.973L247.842 172.615H247.012L246.892 173.49H246.379ZM247.072 172.178H247.775L247.413 169.756H247.405L247.072 172.178ZM248.988 173.49V168.907H249.527V173.49H248.988ZM250.28 173.49V168.907H250.686L251.749 172.027L251.694 170.701V168.907H252.171V173.49H251.775L250.746 170.344L250.777 171.501V173.49H250.28Z" fill="white"/>
<path d="M164.56 100.861C165.264 100.861 165.835 100.291 165.835 99.5868C165.835 98.883 165.264 98.3125 164.56 98.3125C163.857 98.3125 163.286 98.883 163.286 99.5868C163.286 100.291 163.857 100.861 164.56 100.861Z" fill="#774636"/>
<path d="M300.372 100.861C301.076 100.861 301.646 100.291 301.646 99.5868C301.646 98.883 301.076 98.3125 300.372 98.3125C299.668 98.3125 299.098 98.883 299.098 99.5868C299.098 100.291 299.668 100.861 300.372 100.861Z" fill="#774636"/>
<path d="M164.561 98.9564L231.829 30.7139" stroke="#955452" stroke-width="0.803782" stroke-miterlimit="10" stroke-linecap="round"/>
<path d="M299.098 98.9564L231.829 30.7139" stroke="#955452" stroke-width="0.803782" stroke-miterlimit="10" stroke-linecap="round"/>
<path d="M236.476 31.9174C237.144 29.3484 235.604 26.7241 233.035 26.0557C230.466 25.3873 227.841 26.928 227.173 29.497C226.505 32.0659 228.045 34.6903 230.614 35.3586C233.183 36.027 235.808 34.4863 236.476 31.9174Z" fill="#955452"/>
<path d="M231.829 32.6879C232.919 32.6879 233.803 31.8042 233.803 30.714C233.803 29.6239 232.919 28.7402 231.829 28.7402C230.739 28.7402 229.855 29.6239 229.855 30.714C229.855 31.8042 230.739 32.6879 231.829 32.6879Z" fill="#FFA55C"/>
<path d="M221.893 96.6558C221.408 96.5788 220.868 96.3748 220.275 96.0302C220.275 96.0302 222.813 90.0916 219.998 84.7468C219.998 84.7468 221.512 83.6316 223.026 84.4612C223.602 84.7785 224.173 85.3724 224.663 86.4196C226.245 89.8014 225.855 97.3086 221.893 96.6558Z" fill="#F9C3A9"/>
<path opacity="0.26" d="M222.51 94.7156C222.228 95.3321 221.87 95.9985 221.893 96.6558C221.408 96.5788 220.868 96.3748 220.275 96.0302C220.275 96.0302 222.813 90.0916 219.998 84.7468C219.998 84.7468 221.512 83.6316 223.026 84.4612C222.179 85.5129 222.659 86.7777 222.999 87.9473C223.647 90.1641 223.471 92.6121 222.51 94.7156Z" fill="#AA4141"/>
<path d="M219.26 97.0269C218.28 97.6071 217.519 97.589 216.947 97.3125C215.878 96.8002 215.456 95.3994 215.456 95.3994C215.456 95.3994 217.863 90.9069 214.898 84.1069C214.898 84.1069 216.598 82.5791 218.484 83.4541C218.988 83.6898 219.5 84.0933 219.998 84.7461C222.369 87.8378 222.07 95.3541 219.26 97.0269Z" fill="#F9C3A9"/>
<path opacity="0.26" d="M217.646 88.5813C217.94 89.8143 218.013 91.1154 217.7 92.3439C217.464 93.2597 217.029 94.1119 216.802 95.0322C216.621 95.7847 216.607 96.6325 216.947 97.3125C215.878 96.8002 215.456 95.3994 215.456 95.3994C215.456 95.3994 217.863 90.9069 214.898 84.1069C214.898 84.1069 216.598 82.5791 218.484 83.4541C217.759 83.7079 217.21 84.2157 217.088 85.3173C216.966 86.4234 217.392 87.5023 217.646 88.5813Z" fill="#AA4141"/>
<path d="M213.334 96.5827C212.586 96.6461 211.77 96.4059 210.959 95.7893C210.959 95.7893 212.346 89.6421 208.511 84.6011C208.511 84.6011 209.458 82.6608 211.444 82.4115C211.448 82.4115 211.453 82.4115 211.453 82.4115C211.698 82.3843 211.952 82.3797 212.224 82.4069C214.74 82.6563 216.29 85.5893 216.739 90.3085C217.065 93.7901 215.451 96.4013 213.334 96.5827Z" fill="#F9C3A9"/>
<path opacity="0.26" d="M213.334 96.5833C212.586 96.6468 211.77 96.4065 210.959 95.79C210.959 95.79 212.346 89.6428 208.511 84.6017C208.511 84.6017 209.458 82.6614 211.444 82.4121C211.222 82.5209 211.018 82.675 210.841 82.8745C209.762 84.1076 210.968 85.6489 211.666 86.7278C212.908 88.6454 213.407 91.03 213.044 93.283C212.858 94.4164 212.564 95.8172 213.334 96.5833Z" fill="#AA4141"/>
<path d="M210.447 96.4423C209.966 96.8956 209.486 97.1857 209.023 97.3398C207.359 97.8929 205.972 96.6327 205.854 94.6062C205.709 92.0132 204.685 90.5897 204.685 90.5897L197.645 90.8391C197.645 90.8391 199.562 87.0855 202.377 85.4988C202.667 85.3356 202.962 85.1769 203.261 85.0364C205.818 83.7942 208.466 83.4724 209.93 86.1652C211.154 88.4319 212.668 94.3524 210.447 96.4423Z" fill="#F9C3A9"/>
<path opacity="0.26" d="M209.023 97.3396C207.359 97.8927 205.972 96.6324 205.854 94.606C205.709 92.0129 204.685 90.5895 204.685 90.5895L197.645 90.8388C197.645 90.8388 199.562 87.0852 202.377 85.4985C202.667 85.3353 202.962 85.1767 203.261 85.0361C203.021 85.3535 202.871 85.7161 202.958 86.0969C203.18 87.0716 204.544 87.0716 205.46 87.4796C206.843 88.0961 207.264 89.8596 207.223 91.3737C207.196 92.3529 207.047 93.3321 207.128 94.3068C207.205 95.286 207.554 96.2969 208.325 96.8999C208.543 97.0676 208.783 97.2036 209.023 97.3396Z" fill="#AA4141"/>
<path opacity="0.2" d="M37.2295 194.893L146.88 0.00305047C146.88 0.00305047 168.249 0.895664 167.356 0.00305047C166.464 -0.889109 54.6257 194.211 54.6257 194.211L37.2295 194.893Z" fill="white"/>
<path opacity="0.2" d="M262.443 194.892L340 57.0469V89.8229C310.615 140.859 279.842 194.665 279.842 194.665L262.443 194.892Z" fill="white"/>
<path opacity="0.2" d="M155.244 194.893L263.463 0.00292969L270.904 0.101756L163.061 194.893H155.244Z" fill="white"/>
<path d="M28.2141 0.101562H20.1035V199.298H28.2141V0.101562Z" fill="#955452"/>
<path d="M340 199.298H0V226.765H340V199.298Z" fill="#955452"/>
<path d="M340 194.893H0V199.298H340V194.893Z" fill="#BF806F"/>
</svg>
