<svg width="39" height="26" viewBox="0 0 39 26" fill="none" xmlns="http://www.w3.org/2000/svg">
<path d="M17.6071 12.1855H2.58907C1.16148 12.1857 0 13.347 0 14.7746V15.9956H20.1962V14.7746C20.1962 13.347 19.0347 12.1855 17.6071 12.1855Z" fill="#D00000" stroke="#D00000" stroke-width="0.00064"/>
<path d="M0 18.1729V22.9112C0 24.3388 1.16148 25.5003 2.58907 25.5003H17.6072C19.0348 25.5003 20.1963 24.3389 20.1963 22.9112V18.1729H0ZM6.17332 21.8535H3.05889V19.6768H6.17332V21.8535Z" fill="#D00000" stroke="#D00000" stroke-width="0.00064"/>
<path d="M6.17334 0.5V4.67109H7.26174C8.96156 4.67109 10.3446 3.28809 10.3446 1.58834V0.5H6.17334Z" fill="#D00000" stroke="#D00000" stroke-width="0.00064"/>
<path d="M29.2061 0.5V1.5884C29.2061 3.28822 30.589 4.67115 32.2889 4.67115H33.3773V0.5H29.2061Z" fill="#D00000" stroke="#D00000" stroke-width="0.00064"/>
<path d="M32.2889 11.5195C30.589 11.5195 29.2061 12.9025 29.2061 14.6023V15.6907H33.3773V11.5196H32.2889V11.5195Z" fill="#D00000" stroke="#D00000" stroke-width="0.00064"/>
<path d="M32.2887 6.84783C29.3886 6.84783 27.0291 4.48836 27.0291 1.58834V0.5H12.5213V1.5884C12.5213 4.48849 10.1618 6.8479 7.26174 6.8479H6.17334V10.009H14.7048C14.3349 9.43169 14.1263 8.78233 14.1263 8.09537C14.1263 5.69867 16.6554 3.7557 19.7752 3.7557C22.8949 3.7557 25.4241 5.69861 25.4241 8.09537C25.4241 9.9974 23.8305 11.6126 21.6136 12.1987C22.0932 12.9421 22.3729 13.8261 22.3729 14.7748V15.6907H27.0291V14.6024C27.0291 11.7022 29.3886 9.34283 32.2887 9.34283H33.3771V6.8479L32.2887 6.84783Z" fill="#D00000" stroke="#D00000" stroke-width="0.00064"/>
</svg>
