<svg width="33" height="32" viewBox="0 0 33 32" fill="none" xmlns="http://www.w3.org/2000/svg">
<circle cx="16.75" cy="16" r="15.5" fill="#505050" stroke="#EA0000"/>
<path d="M24.4714 7.28116C24.3386 6.90628 23.8085 6.90628 23.6756 7.28116L23.2203 8.56598C23.1778 8.68598 23.0834 8.78038 22.9634 8.8229L21.6786 9.27816C21.3038 9.41099 21.3038 9.94113 21.6786 10.074L22.9634 10.5292C23.0834 10.5717 23.1778 10.6661 23.2203 10.7861L23.6756 12.071C23.8085 12.4458 24.3386 12.4458 24.4714 12.071L24.9266 10.7861C24.9692 10.6661 25.0636 10.5717 25.1836 10.5292L26.4684 10.074C26.8433 9.94113 26.8433 9.41099 26.4684 9.27816L25.1836 8.8229C25.0636 8.78038 24.9692 8.68598 24.9266 8.56598L24.4714 7.28116Z" fill="#363636"/>
<path d="M19.5172 11.476C19.6091 11.217 19.9752 11.217 20.0671 11.476L20.318 12.1841C20.3473 12.267 20.4126 12.3322 20.4954 12.3616L21.2036 12.6125C21.4625 12.7043 21.4625 13.0705 21.2036 13.1622L20.4954 13.4132C20.4126 13.4425 20.3473 13.5077 20.318 13.5906L20.0671 14.2988C19.9752 14.5577 19.6091 14.5577 19.5172 14.2988L19.2663 13.5906C19.237 13.5077 19.1718 13.4425 19.0889 13.4132L18.3807 13.1622C18.1218 13.0705 18.1218 12.7043 18.3807 12.6125L19.0889 12.3616C19.1718 12.3322 19.237 12.267 19.2663 12.1841L19.5172 11.476Z" fill="#363636"/>
<path d="M22.2847 14.6221C22.3458 14.4495 22.5899 14.4495 22.6512 14.6221L22.8184 15.0943C22.838 15.1495 22.8815 15.193 22.9367 15.2126L23.4088 15.3799C23.5814 15.441 23.5814 15.6852 23.4088 15.7464L22.9367 15.9136C22.8815 15.9332 22.838 15.9767 22.8184 16.0319L22.6512 16.5041C22.5899 16.6766 22.3458 16.6766 22.2847 16.5041L22.1174 16.0319C22.0977 15.9767 22.0543 15.9332 21.999 15.9136L21.5269 15.7464C21.3543 15.6852 21.3543 15.441 21.5269 15.3799L21.999 15.2126C22.0543 15.193 22.0977 15.1495 22.1174 15.0943L22.2847 14.6221Z" fill="#363636"/>
<path d="M16.3366 8.74239C16.5 9.02825 16.4723 9.38488 16.2666 9.64204C15.4039 10.7211 14.8932 12.072 14.8932 13.5384C14.8932 17.0359 17.8176 19.9102 21.4737 19.9102C22.478 19.9102 23.4271 19.6928 24.2758 19.3054C24.5741 19.1694 24.9252 19.2283 25.1627 19.4543C25.4002 19.6803 25.4763 20.0281 25.3551 20.3327C24.0318 23.6578 20.7194 25.9999 16.8591 25.9999C11.8502 25.9999 7.75 22.0483 7.75 17.1257C7.75 12.6482 11.1443 8.97244 15.526 8.346C15.8519 8.2994 16.1732 8.45653 16.3366 8.74239Z" fill="#363636"/>
</svg>
