<svg width="15" height="18" viewBox="0 0 15 18" fill="none" xmlns="http://www.w3.org/2000/svg">
<path d="M7.1085 10.4292C7.1085 8.60727 5.62623 7.125 3.80421 7.125C1.98224 7.125 0.5 8.60727 0.5 10.4292C0.5 10.9632 0.627393 11.4678 0.853263 11.9146L3.80421 18.0001L6.75569 11.9137C6.98122 11.4671 7.1085 10.9628 7.1085 10.4292ZM3.80421 12.2578C2.79596 12.2578 1.97564 11.4375 1.97564 10.4292C1.97564 9.421 2.79596 8.60068 3.80421 8.60068C4.8125 8.60068 5.63278 9.421 5.63278 10.4292C5.63278 11.4375 4.8125 12.2578 3.80421 12.2578Z" fill="#D00000"/>
<path d="M13.1668 0C12.2443 0 11.4937 0.750576 11.4937 1.67316C11.4937 1.94353 11.5582 2.19906 11.6726 2.42534L13.1668 5.50687L14.6614 2.42486C14.7756 2.19873 14.84 1.94334 14.84 1.67319C14.84 0.750576 14.0894 0 13.1668 0ZM13.1668 2.59911C12.6563 2.59911 12.2409 2.18374 12.2409 1.67316C12.2409 1.16261 12.6563 0.747205 13.1668 0.747205C13.6774 0.747205 14.0928 1.16261 14.0928 1.67316C14.0928 2.18374 13.6774 2.59911 13.1668 2.59911Z" fill="#D00000"/>
<path d="M11.7095 10.855C11.6416 10.5358 11.5535 10.2229 11.4424 9.91577C11.2935 9.50422 11.115 9.10204 10.9783 8.68581C10.7227 7.90778 11.1636 7.25849 11.2465 7.14046C11.3916 6.93381 11.5614 6.74416 11.7405 6.56653C12.0854 6.22462 12.4657 5.91897 12.8636 5.63747C12.8144 5.5611 12.7666 5.4839 12.7211 5.40527C12.1488 5.62964 9.20557 6.65831 9.27734 8.93082C9.29172 9.38638 9.46774 9.81995 9.57622 10.2615C9.62847 10.4743 9.67379 10.689 9.70151 10.9065C9.71346 11.0044 9.7208 11.1029 9.72882 11.2013C9.72904 11.2005 9.72897 11.2 9.72852 11.1996C9.72878 11.2024 9.73608 11.5115 9.72237 11.6453C9.67941 12.0645 9.61753 12.4879 9.44084 12.8724C9.27652 13.2298 9.02858 13.5407 8.72192 13.7864C8.02086 14.3481 7.09199 14.5726 6.21552 14.6629C6.17379 14.6672 6.13206 14.671 6.09033 14.6746L4.52539 17.9017C5.29754 17.8537 6.06771 17.748 6.81911 17.5631C7.70337 17.3454 8.56512 17.0167 9.33727 16.5293C10.1088 16.0425 10.7722 15.3839 11.2139 14.5821C11.6759 13.7434 11.861 12.7827 11.8216 11.8308C11.8082 11.5056 11.7774 11.1742 11.7095 10.855Z" fill="#D00000"/>
</svg>
