<svg width="30" height="29" viewBox="0 0 30 29" fill="none" xmlns="http://www.w3.org/2000/svg">
<path d="M12.761 9.57324H24.7405M5.57324 19.1569H17.5528" stroke="white" stroke-width="1.19796" stroke-linecap="round"/>
<path d="M5.57301 9.57336C5.57301 11.5582 7.18204 13.1672 9.16687 13.1672C11.1517 13.1672 12.7607 11.5582 12.7607 9.57336C12.7607 7.58852 11.1517 5.97949 9.16687 5.97949C7.18204 5.97949 5.57301 7.58852 5.57301 9.57336Z" stroke="white" stroke-width="1.19796" stroke-linecap="round"/>
<path d="M17.5525 19.1573C17.5525 21.1422 19.1615 22.7512 21.1464 22.7512C23.1312 22.7512 24.7402 21.1422 24.7402 19.1573C24.7402 17.1725 23.1312 15.5635 21.1464 15.5635C19.1615 15.5635 17.5525 17.1725 17.5525 19.1573Z" stroke="white" stroke-width="1.19796" stroke-linecap="round"/>
</svg>
