<svg width="15" height="15" viewBox="0 0 15 15" fill="none" xmlns="http://www.w3.org/2000/svg">
<path d="M1 2.44444H3.31187M8.70625 2.44444H13.33M8.70625 2.44444C8.70625 1.6467 8.01623 1 7.165 1C6.31377 1 5.62375 1.6467 5.62375 2.44444C5.62375 3.24219 6.31377 3.88889 7.165 3.88889C8.01623 3.88889 8.70625 3.24219 8.70625 2.44444ZM5.62375 7.5H10.2475M10.2475 7.5C10.2475 8.29777 10.9375 8.94444 11.7887 8.94444C12.64 8.94444 13.33 8.29777 13.33 7.5C13.33 6.70223 12.64 6.05556 11.7887 6.05556C10.9375 6.05556 10.2475 6.70223 10.2475 7.5ZM1 7.5H3.31187M6.39437 12.5556H13.33M2.54125 11.1111C3.39246 11.1111 4.0825 11.7578 4.0825 12.5556C4.0825 13.3533 3.39246 14 2.54125 14C1.69004 14 1 13.3533 1 12.5556C1 11.7578 1.69004 11.1111 2.54125 11.1111Z" stroke="white" stroke-width="1.472" stroke-linecap="round"/>
</svg>
