<svg width="360" height="800" viewBox="0 0 360 800" fill="none" xmlns="http://www.w3.org/2000/svg">
<path d="M46.376 470.5H36.5886C36.4817 470.5 36.3801 470.543 36.3053 470.618L34.8193 472.104L33.3546 470.639C33.2798 470.564 33.1782 470.521 33.0713 470.521H29.6236C29.4044 470.521 29.2227 470.703 29.2227 470.922V483.078C29.2227 483.297 29.4044 483.479 29.6236 483.479H33.0713C33.1782 483.479 33.2798 483.436 33.3546 483.361L34.8193 481.896L36.3053 483.382C36.3801 483.457 36.4817 483.5 36.5886 483.5H46.376C46.5952 483.5 46.7769 483.318 46.7769 483.099V470.901C46.7769 470.676 46.5952 470.5 46.376 470.5ZM45.9751 482.698H36.7543L35.1026 481.046C34.9476 480.891 34.691 480.891 34.536 481.046L32.9056 482.677H30.0245V471.323H32.9056L34.536 472.954C34.691 473.109 34.9476 473.109 35.1026 472.954L36.7543 471.302H45.9751V482.698Z" fill="#D00000" stroke="#D00000" stroke-width="0.00064"/>
<path d="M39.1168 475.888C39.94 475.888 40.6135 475.214 40.6135 474.391C40.6135 473.568 39.94 472.895 39.1168 472.895C38.2936 472.895 37.6201 473.568 37.6201 474.391C37.6201 475.214 38.2883 475.888 39.1168 475.888ZM39.1168 473.696C39.5017 473.696 39.8117 474.006 39.8117 474.391C39.8117 474.776 39.5017 475.086 39.1168 475.086C38.732 475.086 38.4219 474.776 38.4219 474.391C38.4219 474.006 38.732 473.696 39.1168 473.696Z" fill="#D00000" stroke="#D00000" stroke-width="0.00064"/>
<path d="M43.5592 477.342C42.736 477.342 42.0625 478.015 42.0625 478.839C42.0625 479.662 42.736 480.335 43.5592 480.335C44.3824 480.335 45.0559 479.662 45.0559 478.839C45.0559 478.015 44.3824 477.342 43.5592 477.342ZM43.5592 479.533C43.1743 479.533 42.8643 479.223 42.8643 478.839C42.8643 478.454 43.1743 478.144 43.5592 478.144C43.9441 478.144 44.2541 478.454 44.2541 478.839C44.2541 479.223 43.9441 479.533 43.5592 479.533Z" fill="#D00000" stroke="#D00000" stroke-width="0.00064"/>
<path d="M38.0319 479.924C38.1121 480.004 38.2136 480.041 38.3152 480.041C38.4168 480.041 38.5183 480.004 38.5985 479.924L44.6441 473.878C44.7992 473.723 44.7992 473.467 44.6441 473.312C44.4891 473.157 44.2326 473.157 44.0775 473.312L38.0319 479.357C37.8715 479.512 37.8715 479.763 38.0319 479.924Z" fill="#D00000" stroke="#D00000" stroke-width="0.00064"/>
<path d="M34.8194 474.141C34.7125 474.141 34.6109 474.183 34.5361 474.258C34.4612 474.333 34.4185 474.435 34.4185 474.542C34.4185 474.648 34.4612 474.75 34.5361 474.825C34.6109 474.9 34.7125 474.942 34.8194 474.942C34.9263 474.942 35.0278 474.9 35.1027 474.825C35.1775 474.75 35.2203 474.648 35.2203 474.542C35.2203 474.435 35.1775 474.333 35.1027 474.258C35.0278 474.183 34.9209 474.141 34.8194 474.141Z" fill="#D00000" stroke="#D00000" stroke-width="0.00064"/>
<path d="M34.8194 475.781C34.7125 475.781 34.6109 475.824 34.5361 475.899C34.4612 475.974 34.4185 476.075 34.4185 476.182C34.4185 476.289 34.4612 476.391 34.5361 476.465C34.6109 476.54 34.7125 476.583 34.8194 476.583C34.9263 476.583 35.0278 476.54 35.1027 476.465C35.1775 476.391 35.2203 476.289 35.2203 476.182C35.2203 476.075 35.1775 475.974 35.1027 475.899C35.0278 475.824 34.9209 475.781 34.8194 475.781Z" fill="#D00000" stroke="#D00000" stroke-width="0.00064"/>
<path d="M34.8194 477.417C34.7125 477.417 34.6109 477.46 34.5361 477.535C34.4612 477.609 34.4185 477.711 34.4185 477.818C34.4185 477.925 34.4612 478.026 34.5361 478.101C34.6109 478.176 34.7125 478.219 34.8194 478.219C34.9263 478.219 35.0278 478.176 35.1027 478.101C35.1775 478.026 35.2203 477.925 35.2203 477.818C35.2203 477.711 35.1775 477.609 35.1027 477.535C35.0278 477.46 34.9209 477.417 34.8194 477.417Z" fill="#D00000" stroke="#D00000" stroke-width="0.00064"/>
<path d="M34.8194 479.058C34.7125 479.058 34.6109 479.1 34.5361 479.175C34.4612 479.25 34.4185 479.352 34.4185 479.459C34.4185 479.565 34.4612 479.667 34.5361 479.742C34.6109 479.817 34.7125 479.859 34.8194 479.859C34.9263 479.859 35.0278 479.817 35.1027 479.742C35.1775 479.667 35.2203 479.565 35.2203 479.459C35.2203 479.352 35.1775 479.25 35.1027 479.175C35.0278 479.1 34.9209 479.058 34.8194 479.058Z" fill="#D00000" stroke="#D00000" stroke-width="0.00064"/>
</svg>
