<svg width="18" height="18" viewBox="0 0 18 18" fill="none" xmlns="http://www.w3.org/2000/svg">
<path fill-rule="evenodd" clip-rule="evenodd" d="M13.662 12.4003H17.0219V11.2803H13.662V12.4003ZM15.9019 5.68057H0.222656V16.8801C0.222656 17.4983 0.724393 18 1.3426 18H15.9019C16.5201 18 17.0219 17.4983 17.0219 16.8801V13.5202H13.1021C12.793 13.5202 12.5421 13.2699 12.5421 12.9602V10.7203C12.5421 10.4112 12.793 10.1604 13.1021 10.1604H17.0219V6.80052C17.0219 6.18231 16.5201 5.68057 15.9019 5.68057ZM15.9019 0.640803C15.9019 0.331138 15.7698 0.159779 15.4819 0.0461042C15.2602 -0.0418118 15.0446 0.0108324 14.782 0.0808291L0.222656 4.56062H15.9019V0.640803Z" fill="#D00000"/>
</svg>
