<svg width="17" height="17" viewBox="0 0 17 17" fill="none" xmlns="http://www.w3.org/2000/svg">
<path d="M5.48669 9.40774L2.64835 6.57617C2.1412 6.06705 1.85645 5.37772 1.85645 4.65911C1.85645 3.94049 2.1412 3.25116 2.64835 2.74204L7.40376 7.4839L5.48669 9.40774ZM10.0795 8.18163L9.08373 9.17742L13.7443 13.838L12.7892 14.7931L8.12858 10.1326L3.46801 14.7931L2.51286 13.838L9.12437 7.22648C8.64341 6.19005 8.98212 4.73362 10.0592 3.65654C11.3531 2.35591 13.2091 2.11205 14.1982 3.10106C15.194 4.09686 14.9501 5.95296 13.6495 7.24681C12.5724 8.32389 11.116 8.66259 10.0795 8.18163Z" fill="white"/>
</svg>
