<svg width="23" height="23" viewBox="0 0 23 23" fill="none" xmlns="http://www.w3.org/2000/svg">
<g clip-path="url(#clip0_1187_35407)">
<path d="M5.91869 4.6895C8.35658 2.91827 9.57552 2.03266 10.9676 1.98159C11.0793 1.97749 11.1911 1.97749 11.3027 1.98159C12.6948 2.03266 13.9138 2.91827 16.3517 4.6895C18.7896 6.46073 20.0085 7.34635 20.4873 8.65452C20.5257 8.75946 20.5602 8.86578 20.5908 8.97325C20.9724 10.313 20.5068 11.7459 19.5756 14.6119C18.6444 17.4778 18.1789 18.9107 17.0826 19.7703C16.9947 19.8392 16.9043 19.9049 16.8115 19.9673C15.6553 20.7442 14.1486 20.7442 11.1352 20.7442C8.12178 20.7442 6.61509 20.7442 5.45884 19.9673C5.36609 19.9049 5.27565 19.8392 5.18771 19.7703C4.09151 18.9107 3.62591 17.4778 2.69472 14.6119C1.76353 11.7459 1.29793 10.313 1.67955 8.97325C1.71016 8.86578 1.7447 8.75946 1.78311 8.65452C2.26186 7.34635 3.4808 6.46073 5.91869 4.6895Z" fill="#D00000"/>
<path d="M2.69472 14.6119L3.34678 14.4L2.69472 14.6119ZM1.67955 8.97325L2.33894 9.16107L1.67955 8.97325ZM5.91869 4.6895L5.51569 4.13482L5.91869 4.6895ZM1.78311 8.65452L2.42696 8.89015L1.78311 8.65452ZM5.45884 19.9673L5.07645 20.5363L5.45884 19.9673ZM5.18771 19.7703L4.76465 20.3098L5.18771 19.7703ZM19.5756 14.6119L18.9236 14.4L19.5756 14.6119ZM17.0826 19.7703L17.5057 20.3098L17.0826 19.7703ZM16.8115 19.9673L17.1939 20.5363L16.8115 19.9673ZM16.3517 4.6895L16.7547 4.13483L16.3517 4.6895ZM20.4873 8.65452L19.8434 8.89015L20.4873 8.65452ZM20.5908 8.97325L19.9314 9.16107L20.5908 8.97325ZM11.3027 1.98159L11.2776 2.66675L11.3027 1.98159ZM10.9676 1.98159L10.9927 2.66675L10.9676 1.98159ZM3.34678 14.4C2.87658 12.9529 2.54164 11.919 2.3659 11.0797C2.19345 10.2562 2.18972 9.68492 2.33894 9.16107L1.02016 8.78543C0.787759 9.60132 0.826028 10.4164 1.02377 11.3608C1.21821 12.2893 1.58167 13.4049 2.04266 14.8237L3.34678 14.4ZM5.51569 4.13482C4.3088 5.01168 3.35903 5.70058 2.65591 6.33753C1.94087 6.98529 1.4308 7.62223 1.13925 8.41889L2.42696 8.89015C2.61416 8.37864 2.95294 7.91869 3.57653 7.35378C4.21204 6.77807 5.09069 6.13855 6.32168 5.24418L5.51569 4.13482ZM2.33894 9.16107C2.36496 9.06972 2.39432 8.97935 2.42696 8.89015L1.13925 8.41889C1.09509 8.53957 1.05536 8.66184 1.02016 8.78543L2.33894 9.16107ZM11.1352 20.0586C9.61358 20.0586 8.52684 20.0577 7.67431 19.9654C6.83777 19.875 6.29334 19.702 5.84123 19.3982L5.07645 20.5363C5.78059 21.0095 6.56763 21.225 7.52685 21.3287C8.47008 21.4308 9.64338 21.4298 11.1352 21.4298V20.0586ZM2.04266 14.8237C2.50365 16.2425 2.86534 17.3587 3.25384 18.2242C3.64893 19.1044 4.09708 19.7863 4.76465 20.3098L5.61077 19.2308C5.18215 18.8947 4.84939 18.4303 4.50483 17.6627C4.15369 16.8804 3.81698 15.8471 3.34678 14.4L2.04266 14.8237ZM5.84123 19.3982C5.76239 19.3452 5.68552 19.2894 5.61077 19.2308L4.76465 20.3098C4.86578 20.3891 4.96979 20.4647 5.07645 20.5363L5.84123 19.3982ZM18.9236 14.4C18.4534 15.8471 18.1167 16.8804 17.7655 17.6627C17.421 18.4303 17.0882 18.8947 16.6596 19.2308L17.5057 20.3098C18.1733 19.7863 18.6214 19.1044 19.0165 18.2242C19.405 17.3587 19.7667 16.2425 20.2277 14.8237L18.9236 14.4ZM11.1352 21.4298C12.627 21.4298 13.8003 21.4308 14.7435 21.3287C15.7027 21.225 16.4898 21.0095 17.1939 20.5363L16.4291 19.3982C15.977 19.702 15.4326 19.875 14.5961 19.9654C13.7435 20.0577 12.6568 20.0586 11.1352 20.0586V21.4298ZM16.6596 19.2308C16.5848 19.2894 16.508 19.3452 16.4291 19.3982L17.1939 20.5363C17.3006 20.4647 17.4046 20.3891 17.5057 20.3098L16.6596 19.2308ZM15.9487 5.24418C17.1797 6.13855 18.0583 6.77807 18.6938 7.35378C19.3174 7.91869 19.6562 8.37864 19.8434 8.89015L21.1311 8.41889C20.8396 7.62223 20.3295 6.98529 19.6144 6.33753C18.9113 5.70058 17.9616 5.01168 16.7547 4.13483L15.9487 5.24418ZM20.2277 14.8237C20.6887 13.4049 21.0521 12.2893 21.2466 11.3608C21.4443 10.4164 21.4826 9.60132 21.2502 8.78543L19.9314 9.16107C20.0806 9.68492 20.0769 10.2562 19.9045 11.0797C19.7287 11.919 19.3938 12.9529 18.9236 14.4L20.2277 14.8237ZM19.8434 8.89015C19.876 8.97935 19.9054 9.06972 19.9314 9.16107L21.2502 8.78543C21.215 8.66184 21.1753 8.53958 21.1311 8.41889L19.8434 8.89015ZM16.7547 4.13483C15.5478 3.25797 14.5991 2.56757 13.776 2.09569C12.939 1.61581 12.1756 1.32753 11.3279 1.29643L11.2776 2.66675C11.8219 2.68671 12.3641 2.86678 13.094 3.28528C13.8379 3.71179 14.7177 4.3498 15.9487 5.24418L16.7547 4.13483ZM6.32168 5.24418C7.55268 4.3498 8.43242 3.71179 9.17634 3.28528C9.90629 2.86678 10.4484 2.68671 10.9927 2.66675L10.9425 1.29643C10.0947 1.32753 9.33132 1.61581 8.49431 2.09569C7.67126 2.56757 6.72258 3.25797 5.51569 4.13482L6.32168 5.24418ZM11.3279 1.29643C11.1995 1.29172 11.0709 1.29172 10.9425 1.29643L10.9927 2.66675C11.0877 2.66326 11.1827 2.66326 11.2776 2.66675L11.3279 1.29643Z" fill="#D00000"/>
<path d="M9.30664 15.7548C8.92798 15.7548 8.62102 16.0618 8.62102 16.4404C8.62102 16.8191 8.92798 17.126 9.30664 17.126V15.7548ZM12.9633 17.126C13.3419 17.126 13.6489 16.8191 13.6489 16.4404C13.6489 16.0618 13.3419 15.7548 12.9633 15.7548V17.126ZM9.30664 17.126H12.9633V15.7548H9.30664V17.126Z" fill="white"/>
</g>
<defs>
<clipPath id="clip0_1187_35407">
<rect width="21.9398" height="21.9398" fill="white" transform="translate(0.165039 0.150391)"/>
</clipPath>
</defs>
</svg>
