<svg width="13" height="13" viewBox="0 0 13 13" fill="none" xmlns="http://www.w3.org/2000/svg">
<path fill-rule="evenodd" clip-rule="evenodd" d="M6.5 1.18182C3.56285 1.18182 1.18182 3.56285 1.18182 6.5C1.18182 9.43717 3.56285 11.8182 6.5 11.8182C9.43717 11.8182 11.8182 9.43717 11.8182 6.5C11.8182 3.56285 9.43717 1.18182 6.5 1.18182ZM0 6.5C0 2.91015 2.91015 0 6.5 0C10.0898 0 13 2.91015 13 6.5C13 10.0898 10.0898 13 6.5 13C2.91015 13 0 10.0898 0 6.5ZM7.23864 9.30682C7.23864 9.71478 6.90796 10.0455 6.5 10.0455C6.09204 10.0455 5.76136 9.71478 5.76136 9.30682C5.76136 8.89885 6.09204 8.56818 6.5 8.56818C6.90796 8.56818 7.23864 8.89885 7.23864 9.30682ZM5.39813 4.70621C5.55449 4.40793 5.9582 4.13636 6.5 4.13636C7.25814 4.13636 7.68182 4.6295 7.68182 5.02273C7.68182 5.41598 7.25814 5.90909 6.5 5.90909C6.17364 5.90909 5.90909 6.17364 5.90909 6.5V7.09091C5.90909 7.41727 6.17364 7.68182 6.5 7.68182C6.82636 7.68182 7.09091 7.41727 7.09091 7.09091V7.0239C8.05504 6.80343 8.86364 6.0551 8.86364 5.02273C8.86364 3.7842 7.69996 2.95455 6.5 2.95455C5.58799 2.95455 4.74216 3.41222 4.35144 4.15743C4.1999 4.44646 4.31136 4.80362 4.60039 4.95516C4.88943 5.1067 5.24658 4.99524 5.39813 4.70621Z" fill="white"/>
</svg>
