<svg width="19" height="14" viewBox="0 0 19 14" fill="none" xmlns="http://www.w3.org/2000/svg">
<path d="M9.07108 10.1425V8.96399C9.07108 7.48252 9.07108 6.74179 8.61083 6.28154C8.1506 5.82129 7.40986 5.82129 5.92838 5.82129H5.45697C5.16514 5.82129 5.01922 5.82129 4.89612 5.83095C4.54863 5.85829 4.21725 5.94173 3.911 6.07223M9.07108 10.1425H12.9995M9.07108 10.1425H2.86424C2.79128 10.1425 2.75481 10.1425 2.72403 10.1401C2.33875 10.1097 2.03275 9.80372 2.00242 9.4185C2 9.3877 2 9.35125 2 9.27826C2 8.98646 2 8.84048 2.00969 8.71745C2.03181 8.43633 2.09063 8.16574 2.18137 7.91048" stroke="white" stroke-width="2.112" stroke-linecap="round"/>
<path d="M7.89276 10.1426C7.89276 11.4444 6.83748 12.4996 5.53574 12.4996C4.23399 12.4996 3.17871 11.4444 3.17871 10.1426" stroke="white" stroke-width="2.112" stroke-linecap="round"/>
<path d="M9.85742 1.5H10.2722C11.2172 1.5 11.6897 1.5 12.0694 1.73468C12.4491 1.96936 12.6605 2.39199 13.0831 3.23724L15.3571 7.7854" stroke="white" stroke-width="2.112" stroke-linecap="round"/>
<path d="M14.6822 6.21471L15.2177 5.82014C15.4242 5.66796 15.5275 5.5919 15.5993 5.49275C15.6482 5.42525 15.686 5.35042 15.7114 5.27103C15.7486 5.15441 15.7486 5.02615 15.7486 4.76963C15.7486 4.28452 15.7486 4.04196 15.6452 3.86086C15.5755 3.73894 15.4745 3.63791 15.3526 3.56828C15.1715 3.46484 14.9289 3.46484 14.4439 3.46484H13.3916" stroke="white" stroke-width="2.112" stroke-linecap="round"/>
<path d="M14.5704 12.3651C14.8161 12.4519 15.0806 12.4992 15.356 12.4992C16.6578 12.4992 17.7131 11.444 17.7131 10.1422C17.7131 8.8404 16.6578 7.78516 15.356 7.78516C14.0543 7.78516 12.999 8.8404 12.999 10.1422C12.999 10.4176 13.0463 10.6821 13.1331 10.9279" stroke="white" stroke-width="2.112" stroke-linecap="round"/>
</svg>
