<svg width="32" height="32" viewBox="0 0 32 32" fill="none" xmlns="http://www.w3.org/2000/svg">
<circle cx="16" cy="16" r="16" fill="#55565A"/>
<path d="M24.4546 24.1822C25.0644 24.0551 25.429 23.4166 25.1252 22.8708C24.4557 21.6699 23.4018 20.6138 22.054 19.8095C20.3173 18.7733 18.1884 18.2109 16.001 18.2109C13.8135 18.2109 11.6847 18.7722 9.94798 19.8095C8.60017 20.6138 7.54623 21.6699 6.87675 22.8708C6.57294 23.4166 6.93751 24.0551 7.54734 24.1822C13.1228 25.3442 18.878 25.3442 24.4535 24.1822" fill="white"/>
<path d="M16.0004 17.1052C19.0511 17.1052 21.5242 14.6321 21.5242 11.5814C21.5242 8.53071 19.0511 6.05762 16.0004 6.05762C12.9497 6.05762 10.4766 8.53071 10.4766 11.5814C10.4766 14.6321 12.9497 17.1052 16.0004 17.1052Z" fill="white"/>
</svg>
