<svg width="55" height="36" viewBox="0 0 55 36" fill="none" xmlns="http://www.w3.org/2000/svg">
<path d="M30.2273 5.49991V3.68182C30.2273 1.9245 28.8028 0.5 27.0455 0.5C25.2882 0.5 23.8637 1.9245 23.8637 3.68182V5.49991C24.903 5.35132 25.965 5.27273 27.0455 5.27273C28.1259 5.27273 29.188 5.35132 30.2273 5.49991Z" fill="#505050"/>
<path d="M27.0455 30.7272H49.3182V27.5454C49.3182 16.3249 41.0208 7.04418 30.2273 5.49989C29.1879 5.3513 28.1258 5.27271 27.0455 5.27271V30.7272Z" fill="#FF4C00"/>
<path d="M27.0455 5.27271C25.9649 5.27271 24.903 5.3513 23.8637 5.49989C13.0703 7.04418 4.77275 16.3249 4.77275 27.5454V30.7272H27.0455V5.27271Z" fill="#FF8800"/>
<path d="M4.77273 30.7272H0V35.4999H27.0455V30.7272H4.77273Z" fill="#505050"/>
<path d="M49.3182 30.7272H27.0455V35.4999H54.0909V30.7272H49.3182Z" fill="#505050"/>
</svg>
