<svg width="33" height="36" viewBox="0 0 33 36" fill="none" xmlns="http://www.w3.org/2000/svg">
<path d="M31.354 31.6721H1.02432V34.6799H31.354V31.6721Z" fill="#F7F7F7"/>
<path d="M30.6254 33.3124C30.6254 33.715 30.9501 34.0408 31.3539 34.0408V32.584C30.9501 32.584 30.6254 32.9097 30.6254 33.3124Z" fill="#D6D6D6"/>
<path d="M2.08706 32.5905H31.3538C31.7555 32.5905 32.0823 32.2647 32.0823 31.862V1.229C32.0823 0.826286 31.7555 0.5 31.3538 0.5H2.91593C1.30521 0.5 0 1.80583 0 3.41648C0 3.41648 0 3.41703 0 3.41757V30.4115V31.862V33.3126C0 34.5205 0.979474 35.5 2.18748 35.5H31.3538C31.7555 35.5 32.0823 35.1732 32.0823 34.7715C32.0823 34.3678 31.7555 34.0409 31.3538 34.0409H31.3517H2.18748C1.78476 34.0409 1.45793 33.7141 1.45793 33.3126C1.45793 32.9451 1.7324 32.6396 2.08706 32.5905Z" fill="#FF4C00"/>
<g opacity="0.2">
<path d="M31.3538 0.5H29.8948C30.2985 0.5 30.6254 0.826286 30.6254 1.229V31.862C30.6254 32.2647 30.2985 32.5904 29.8948 32.5904H31.3538C31.7555 32.5904 32.0823 32.2646 32.0823 31.862V1.229C32.0823 0.826355 31.7555 0.5 31.3538 0.5Z" fill="white"/>
</g>
<path d="M16.041 23.8342C15.6383 23.8342 15.3126 24.16 15.3126 24.5627C15.3115 24.9654 15.6384 25.2911 16.041 25.2911C16.4437 25.2911 16.7706 24.9653 16.7706 24.5627C16.7706 24.16 16.4437 23.8342 16.041 23.8342Z" fill="#DA4453"/>
<path d="M13.124 23.8343C12.9509 23.8343 12.7918 23.8942 12.6668 23.9956V23.9945C12.6646 23.9966 12.4553 24.1548 12.1904 24.2295C11.8796 24.3192 11.6542 24.2637 11.4352 24.0458C10.8403 23.4541 10.068 23.2575 9.26055 23.4947C8.719 23.6527 8.33556 23.9582 8.28641 23.9988C8.28641 23.9999 8.28531 24.0009 8.28531 24.0009H8.28422C8.12296 24.1355 8.02042 24.3363 8.02042 24.5628C8.02042 24.9655 8.34725 25.2913 8.74887 25.2913C8.9262 25.2913 9.08855 25.2293 9.21454 25.1246C9.21666 25.1225 9.41539 24.9687 9.66948 24.8939C9.96747 24.8073 10.1875 24.8618 10.4055 25.0797C10.8359 25.507 11.3614 25.7292 11.9297 25.7292C12.1454 25.7292 12.3676 25.6971 12.5929 25.632C13.1462 25.4728 13.5393 25.1652 13.582 25.131C13.7476 24.9964 13.8534 24.7924 13.8534 24.5628C13.8535 24.1601 13.5277 23.8343 13.124 23.8343Z" fill="#DA4453"/>
<path d="M23.7982 24.0009C23.7961 24.0009 23.7961 23.9999 23.7961 23.9988C23.7448 23.9582 23.3625 23.6528 22.822 23.4947C22.0145 23.2575 21.2412 23.4541 20.6473 24.0458C20.4358 24.2573 20.218 24.315 19.9231 24.238C19.6368 24.1654 19.4125 23.9923 19.4104 23.9913L19.4146 23.9945V23.9956C19.2908 23.8942 19.1306 23.8343 18.9575 23.8343C18.5559 23.8343 18.2291 24.1602 18.2291 24.5628C18.2291 24.7924 18.3358 24.9965 18.5004 25.131C18.5431 25.1652 18.9362 25.4728 19.4894 25.632C19.7137 25.6971 19.9359 25.7292 20.1517 25.7292C20.7199 25.7292 21.2476 25.507 21.677 25.0797C21.8863 24.8693 22.0978 24.8116 22.3819 24.8853C22.6575 24.9579 22.8711 25.1267 22.8733 25.1288L22.8691 25.1267C22.9951 25.2293 23.1575 25.2912 23.3326 25.2912C23.7363 25.2912 24.061 24.9654 24.061 24.5627C24.0609 24.3364 23.9584 24.1355 23.7982 24.0009Z" fill="#DA4453"/>
<path d="M16.041 7.79175C15.6383 7.79175 15.3126 8.11858 15.3126 8.52123C15.3126 8.92394 15.6384 9.25023 16.041 9.25023C16.4437 9.25023 16.7706 8.92394 16.7706 8.52123C16.7706 8.11858 16.4437 7.79175 16.041 7.79175Z" fill="#DA4453"/>
<path d="M18.9574 9.25019C19.1305 9.25019 19.2906 9.18928 19.4146 9.08837V9.08892C19.4167 9.08735 19.6261 8.92978 19.891 8.85342C20.2028 8.76421 20.4293 8.81924 20.6472 9.03765C21.0766 9.466 21.6 9.68708 22.1618 9.68708C22.3775 9.68708 22.5976 9.65447 22.8219 9.58932C23.3645 9.43073 23.7468 9.12467 23.796 9.08407C23.796 9.08407 23.796 9.08352 23.7981 9.08297V9.08243C23.9583 8.94837 24.063 8.7465 24.063 8.52112C24.063 8.11847 23.7361 7.79164 23.3324 7.79164C23.1551 7.79164 22.9927 7.85467 22.8667 7.95933C22.8667 7.9609 22.6659 8.11471 22.4117 8.1895C22.1148 8.27652 21.8948 8.22101 21.6768 8.00417C21.0829 7.41353 20.3054 7.21754 19.4893 7.45195C18.9361 7.61055 18.543 7.91872 18.5003 7.95338C18.3358 8.08744 18.2289 8.29142 18.2289 8.52105C18.229 8.9239 18.5558 9.25019 18.9574 9.25019Z" fill="#DA4453"/>
<path d="M13.5822 7.9534C13.5394 7.91868 13.1464 7.61057 12.5931 7.45198C11.776 7.21695 10.9994 7.41356 10.4056 8.0042C10.1952 8.21406 9.98365 8.27231 9.70064 8.19807C9.42617 8.12595 9.21254 7.95723 9.21042 7.95559L9.21254 7.95771C9.08648 7.85407 8.92522 7.79159 8.75001 7.79159C8.3473 7.79159 8.02046 8.11843 8.02046 8.52107C8.02046 8.74646 8.123 8.94833 8.28427 9.08238C8.28427 9.08238 8.28536 9.08293 8.28536 9.08348C8.28536 9.08348 8.28536 9.08402 8.28645 9.08402C8.33451 9.12408 8.71795 9.43007 9.2606 9.58928C9.48386 9.65443 9.70487 9.68703 9.9196 9.68703C10.4825 9.68703 11.0048 9.46595 11.4353 9.03761C11.6468 8.8261 11.8636 8.76895 12.1605 8.84538C12.4468 8.91907 12.6689 9.09052 12.6711 9.09264L12.6668 9.08888V9.08833C12.7918 9.1893 12.9509 9.25014 13.124 9.25014C13.5277 9.25014 13.8536 8.92385 13.8536 8.52114C13.8535 8.29145 13.7477 8.08746 13.5822 7.9534ZM9.21363 7.95874L9.21473 7.95928C9.21473 7.95928 9.21473 7.95928 9.21363 7.95874Z" fill="#DA4453"/>
<path d="M8.74889 13.6251C8.52781 13.6251 8.33018 13.7245 8.19667 13.8798L6.56141 15.5146L4.9282 13.8804C4.7936 13.7244 4.59603 13.6251 4.37386 13.6251C3.97231 13.6251 3.64548 13.9514 3.64548 14.3541V18.7291C3.64548 19.1323 3.97231 19.4592 4.37386 19.4592C4.7776 19.4592 5.10341 19.1324 5.10341 18.7291V16.1187L6.04658 17.0613C6.17797 17.1932 6.36063 17.2749 6.56141 17.2749C6.76328 17.2749 6.94587 17.1932 7.07726 17.0613L8.02043 16.1187V18.7291C8.02043 19.1323 8.34727 19.4592 8.74889 19.4592C9.15263 19.4592 9.47843 19.1324 9.47843 18.7291V14.3541C9.47843 13.9514 9.15263 13.6251 8.74889 13.6251Z" fill="#FFCE54"/>
<path d="M21.8755 14.354C21.8755 13.9513 21.5487 13.625 21.1449 13.625C20.7432 13.625 20.4164 13.9513 20.4164 14.354V16.715L18.0601 13.8872C17.9255 13.7271 17.7248 13.6251 17.4984 13.6251C17.0973 13.6251 16.7704 13.9514 16.7704 14.3541V18.7291C16.7704 19.1323 17.0973 19.4592 17.4984 19.4592C17.902 19.4592 18.2289 19.1324 18.2289 18.7291V16.368L20.5852 19.1964C20.7198 19.3566 20.9206 19.4592 21.1449 19.4592C21.5487 19.4592 21.8756 19.1324 21.8756 18.7291L21.8734 18.7285V14.3552C21.8733 14.3545 21.8755 14.3545 21.8755 14.354Z" fill="#FFCE54"/>
<path d="M28.4379 14.3541C28.4379 13.9514 28.111 13.6251 27.7072 13.6251C27.3056 13.6251 26.9788 13.9514 26.9788 14.3541V16.9063C26.9788 17.5092 26.4874 18 25.885 18C25.2826 18 24.7912 17.5092 24.7912 16.9063V14.3551C24.7912 14.3545 24.7912 14.3545 24.7912 14.354C24.7912 13.9513 24.4645 13.625 24.0628 13.625C23.6591 13.625 23.3323 13.9513 23.3323 14.354V16.9063C23.3323 18.3156 24.4751 19.4591 25.885 19.4591C27.2949 19.4591 28.4357 18.3156 28.4357 16.9063V14.3551C28.4357 14.3545 28.4379 14.3545 28.4379 14.3541Z" fill="#FFCE54"/>
<path d="M14.583 15.0835C14.9857 15.0835 15.3114 14.7567 15.3114 14.354C15.3114 13.9513 14.9856 13.625 14.583 13.625H11.6659C11.2632 13.625 10.9375 13.9513 10.9375 14.354H10.9364V18.729H10.9375C10.9375 19.1322 11.2633 19.4591 11.6659 19.4591H14.583C14.9857 19.4591 15.3114 19.1323 15.3114 18.729C15.3114 18.3263 14.9856 18 14.583 18H12.3954V17.271H13.8534C14.2561 17.271 14.583 16.9442 14.583 16.5415C14.583 16.1388 14.2561 15.8125 13.8534 15.8125H12.3954V15.0835H14.583Z" fill="#FFCE54"/>
</svg>
