<svg width="20" height="23" viewBox="0 0 20 23" fill="none" xmlns="http://www.w3.org/2000/svg">
<path d="M0.693848 8.42032L6.54946 12.3992C6.54946 12.3992 5.82679 9.23635 3.98286 5.90405C3.98331 5.90405 1.12768 7.19597 0.693848 8.42032Z" fill="#7A7F88"/>
<path d="M0.946286 16.9556L6.54926 21.9548V12.9432L0.693265 8.72632C0.18774 11.2429 0.946286 16.9556 0.946286 16.9556Z" fill="#7A7F88"/>
<path d="M14.1404 4.28882V0.871381C14.1404 0.420643 13.7552 0.101103 13.2794 0.156976L5.07903 1.12656C4.60301 1.18244 4.21826 1.59391 4.21826 2.04476V5.61503C4.21826 5.61503 6.71246 10.0019 7.309 13.8785C7.90497 17.7552 6.76637 22.0906 6.76637 22.0906L17.6104 19.0811C17.6104 19.0811 20.1587 15.6125 18.5321 10.9198C16.906 6.22714 14.1404 4.28882 14.1404 4.28882ZM11.3026 3.56059L7.86902 4.13883C7.81395 4.14823 7.75919 4.15229 7.70541 4.15229C7.26771 4.15229 6.87878 3.85765 6.79942 3.4377C6.70943 2.96666 7.04316 2.5158 7.54405 2.43163L10.9778 1.85376C11.4784 1.76964 11.9576 2.08312 12.0474 2.55428C12.1376 3.02593 11.8039 3.4763 11.3026 3.56059Z" fill="#7A7F88"/>
</svg>
