<svg width="23" height="23" viewBox="0 0 23 23" fill="none" xmlns="http://www.w3.org/2000/svg">
<g clip-path="url(#clip0_849_38747)">
<path d="M5.91893 4.69011C8.35682 2.91888 9.57577 2.03327 10.9679 1.9822C11.0795 1.9781 11.1913 1.9781 11.303 1.9822C12.6951 2.03327 13.914 2.91888 16.3519 4.69011C18.7898 6.46134 20.0087 7.34696 20.4875 8.65513C20.5259 8.76007 20.5604 8.86639 20.5911 8.97386C20.9727 10.3136 20.5071 11.7466 19.5759 14.6125C18.6447 17.4784 18.1791 18.9113 17.0829 19.7709C16.9949 19.8398 16.9045 19.9056 16.8118 19.9679C15.6555 20.7448 14.1488 20.7448 11.1354 20.7448C8.12203 20.7448 6.61533 20.7448 5.45909 19.9679C5.36633 19.9056 5.2759 19.8398 5.18796 19.7709C4.09175 18.9113 3.62616 17.4784 2.69496 14.6125C1.76377 11.7466 1.29818 10.3136 1.67979 8.97386C1.7104 8.86639 1.74495 8.76007 1.78335 8.65513C2.2621 7.34696 3.48104 6.46134 5.91893 4.69011Z" fill="#7A7F88"/>
<path d="M2.69496 14.6125L3.34703 14.4006L2.69496 14.6125ZM1.67979 8.97386L2.33918 9.16168L1.67979 8.97386ZM5.91893 4.69011L5.51594 4.13544L5.91893 4.69011ZM1.78335 8.65513L2.42721 8.89076L1.78335 8.65513ZM5.45909 19.9679L5.0767 20.537L5.45909 19.9679ZM5.18796 19.7709L4.7649 20.3104L5.18796 19.7709ZM19.5759 14.6125L18.9238 14.4006L19.5759 14.6125ZM17.0829 19.7709L17.5059 20.3104L17.0829 19.7709ZM16.8118 19.9679L17.1942 20.537L16.8118 19.9679ZM16.3519 4.69011L16.7549 4.13544L16.3519 4.69011ZM20.4875 8.65513L19.8436 8.89076L20.4875 8.65513ZM20.5911 8.97386L19.9317 9.16168L20.5911 8.97386ZM11.303 1.9822L11.2779 2.66736L11.303 1.9822ZM10.9679 1.9822L10.993 2.66736L10.9679 1.9822ZM3.34703 14.4006C2.87683 12.9535 2.54189 11.9196 2.36614 11.0803C2.19369 10.2568 2.18997 9.68553 2.33918 9.16168L1.0204 8.78604C0.788003 9.60193 0.826272 10.417 1.02401 11.3614C1.21846 12.29 1.58191 13.4055 2.0429 14.8243L3.34703 14.4006ZM5.51594 4.13544C4.30905 5.01229 3.35928 5.70119 2.65616 6.33814C1.94112 6.9859 1.43105 7.62284 1.1395 8.4195L2.42721 8.89076C2.6144 8.37925 2.95318 7.9193 3.57677 7.35439C4.21228 6.77868 5.09093 6.13916 6.32193 5.24479L5.51594 4.13544ZM2.33918 9.16168C2.3652 9.07033 2.39456 8.97996 2.42721 8.89076L1.1395 8.4195C1.09533 8.54018 1.0556 8.66245 1.0204 8.78604L2.33918 9.16168ZM11.1354 20.0592C9.61382 20.0592 8.52708 20.0583 7.67455 19.9661C6.83801 19.8756 6.29358 19.7026 5.84148 19.3988L5.0767 20.537C5.78084 21.0101 6.56787 21.2256 7.52709 21.3293C8.47032 21.4314 9.64363 21.4304 11.1354 21.4304V20.0592ZM2.0429 14.8243C2.50389 16.2431 2.86558 17.3593 3.25408 18.2248C3.64917 19.105 4.09732 19.787 4.7649 20.3104L5.61102 19.2314C5.18239 18.8953 4.84964 18.4309 4.50508 17.6633C4.15393 16.881 3.81723 15.8477 3.34703 14.4006L2.0429 14.8243ZM5.84148 19.3988C5.76263 19.3458 5.68576 19.29 5.61102 19.2314L4.7649 20.3104C4.86603 20.3897 4.97003 20.4653 5.0767 20.537L5.84148 19.3988ZM18.9238 14.4006C18.4536 15.8477 18.1169 16.881 17.7658 17.6633C17.4212 18.4309 17.0885 18.8953 16.6598 19.2314L17.5059 20.3104C18.1735 19.787 18.6217 19.105 19.0168 18.2248C19.4053 17.3593 19.767 16.2431 20.2279 14.8243L18.9238 14.4006ZM11.1354 21.4304C12.6272 21.4304 13.8005 21.4314 14.7438 21.3293C15.703 21.2256 16.49 21.0101 17.1942 20.537L16.4294 19.3988C15.9773 19.7026 15.4328 19.8756 14.5963 19.9661C13.7438 20.0583 12.657 20.0592 11.1354 20.0592V21.4304ZM16.6598 19.2314C16.5851 19.29 16.5082 19.3458 16.4294 19.3988L17.1942 20.537C17.3008 20.4653 17.4048 20.3897 17.5059 20.3104L16.6598 19.2314ZM15.9489 5.24479C17.1799 6.13916 18.0586 6.77868 18.6941 7.35439C19.3177 7.9193 19.6564 8.37925 19.8436 8.89076L21.1314 8.4195C20.8398 7.62284 20.3297 6.9859 19.6147 6.33814C18.9116 5.70119 17.9618 5.01229 16.7549 4.13544L15.9489 5.24479ZM20.2279 14.8243C20.6889 13.4055 21.0524 12.29 21.2468 11.3614C21.4446 10.417 21.4828 9.60193 21.2504 8.78604L19.9317 9.16168C20.0809 9.68553 20.0772 10.2568 19.9047 11.0803C19.729 11.9196 19.394 12.9535 18.9238 14.4006L20.2279 14.8243ZM19.8436 8.89076C19.8763 8.97996 19.9056 9.07033 19.9317 9.16168L21.2504 8.78604C21.2152 8.66245 21.1755 8.54019 21.1314 8.4195L19.8436 8.89076ZM16.7549 4.13544C15.548 3.25858 14.5993 2.56818 13.7763 2.0963C12.9393 1.61642 12.1759 1.32814 11.3281 1.29704L11.2779 2.66736C11.8222 2.68732 12.3643 2.86739 13.0943 3.28589C13.8382 3.7124 14.7179 4.35042 15.9489 5.24479L16.7549 4.13544ZM6.32193 5.24479C7.55293 4.35042 8.43267 3.7124 9.17658 3.28589C9.90654 2.86739 10.4487 2.68732 10.993 2.66736L10.9427 1.29704C10.095 1.32814 9.33157 1.61642 8.49456 2.0963C7.6715 2.56818 6.72283 3.25858 5.51594 4.13544L6.32193 5.24479ZM11.3281 1.29704C11.1997 1.29233 11.0711 1.29233 10.9427 1.29704L10.993 2.66736C11.0879 2.66387 11.1829 2.66387 11.2779 2.66736L11.3281 1.29704Z" fill="#7A7F88"/>
<path d="M9.30713 15.7552C8.92847 15.7552 8.62151 16.0621 8.62151 16.4408C8.62151 16.8195 8.92847 17.1264 9.30713 17.1264V15.7552ZM12.9638 17.1264C13.3424 17.1264 13.6494 16.8195 13.6494 16.4408C13.6494 16.0621 13.3424 15.7552 12.9638 15.7552V17.1264ZM9.30713 17.1264H12.9638V15.7552H9.30713V17.1264Z" fill="white"/>
</g>
<defs>
<clipPath id="clip0_849_38747">
<rect width="21.9398" height="21.9398" fill="white" transform="translate(0.165527 0.150757)"/>
</clipPath>
</defs>
</svg>
