<svg width="23" height="23" viewBox="0 0 23 23" fill="none" xmlns="http://www.w3.org/2000/svg">
<path d="M18.1965 11.1202C18.1965 11.3627 18.1002 11.5952 17.9287 11.7666C17.7573 11.9381 17.5248 12.0344 17.2823 12.0344C17.0399 12.0344 16.8074 11.9381 16.6359 11.7666C16.4645 11.5952 16.3682 11.3627 16.3682 11.1202C16.3682 10.8778 16.4645 10.6452 16.6359 10.4738C16.8074 10.3024 17.0399 10.2061 17.2823 10.2061C17.5248 10.2061 17.7573 10.3024 17.9287 10.4738C18.1002 10.6452 18.1965 10.8778 18.1965 11.1202Z" fill="#7A7F88"/>
<path fill-rule="evenodd" clip-rule="evenodd" d="M9.91749 3.12109H12.7624C14.4426 3.12109 15.7736 3.12109 16.8149 3.26096C17.8863 3.4054 18.7538 3.7089 19.4385 4.3927C20.2832 5.2383 20.5529 6.37004 20.6507 7.83911C21.1782 8.07039 21.5768 8.5613 21.6197 9.18293C21.6243 9.2387 21.6243 9.29812 21.6243 9.35297V12.8871C21.6243 12.942 21.6243 13.0014 21.6207 13.0563C21.5768 13.6779 21.1782 14.1697 20.6507 14.4019C20.5529 15.8701 20.2832 17.0018 19.4385 17.8474C18.7538 18.5312 17.8863 18.8347 16.8149 18.9791C15.7727 19.119 14.4426 19.119 12.7624 19.119H9.91749C8.23725 19.119 6.90623 19.119 5.86499 18.9791C4.79359 18.8347 3.92604 18.5312 3.24133 17.8474C2.55754 17.1627 2.25403 16.2951 2.10959 15.2237C1.96973 14.1816 1.96973 12.8515 1.96973 11.1712V11.0689C1.96973 9.38862 1.96973 8.05759 2.10959 7.01636C2.25403 5.94495 2.55754 5.07741 3.24133 4.3927C3.92604 3.7089 4.79359 3.4054 5.86499 3.26096C6.90714 3.12109 8.23725 3.12109 9.91749 3.12109ZM19.2639 14.5482H17.4923C15.5314 14.5482 13.853 13.0599 13.853 11.1201C13.853 9.18019 15.5314 7.69193 17.4914 7.69193H19.263C19.1588 6.46603 18.9239 5.81789 18.4677 5.36263C18.081 4.97594 17.5508 4.74374 16.6311 4.62033C15.6923 4.49417 14.4536 4.49234 12.7103 4.49234H9.96777C8.22445 4.49234 6.98667 4.49417 6.046 4.62033C5.12726 4.74374 4.59704 4.97594 4.21035 5.36263C3.82366 5.74932 3.59237 6.27954 3.46896 7.19828C3.3428 8.13804 3.34098 9.37582 3.34098 11.1191C3.34098 12.8625 3.3428 14.1011 3.46896 15.0409C3.59237 15.9597 3.82457 16.4899 4.21126 16.8766C4.59796 17.2633 5.12817 17.4955 6.04782 17.6189C6.98759 17.745 8.22537 17.7468 9.96868 17.7468H12.7112C14.4545 17.7468 15.6932 17.745 16.633 17.6189C17.5517 17.4955 18.0819 17.2633 18.4686 16.8766C18.9248 16.4213 19.1597 15.7741 19.2639 14.5473M5.62639 7.46339C5.62639 7.28155 5.69863 7.10716 5.82721 6.97858C5.95579 6.85 6.13018 6.77776 6.31202 6.77776H9.96868C10.1505 6.77776 10.3249 6.85 10.4535 6.97858C10.5821 7.10716 10.6543 7.28155 10.6543 7.46339C10.6543 7.64522 10.5821 7.81962 10.4535 7.9482C10.3249 8.07678 10.1505 8.14901 9.96868 8.14901H6.31202C6.13018 8.14901 5.95579 8.07678 5.82721 7.9482C5.69863 7.81962 5.62639 7.64522 5.62639 7.46339ZM19.955 9.06318H17.4923C16.1905 9.06318 15.2242 10.0313 15.2242 11.1201C15.2242 12.2088 16.1905 13.1769 17.4914 13.1769H19.9761C20.1644 13.165 20.2457 13.038 20.2521 12.9612V9.27892C20.2457 9.20213 20.1644 9.07506 19.9761 9.06409L19.955 9.06318Z" fill="#7A7F88"/>
</svg>
