<svg width="23" height="23" viewBox="0 0 23 23" fill="none" xmlns="http://www.w3.org/2000/svg">
<path d="M18.7797 16.6056V9.29229C18.7797 7.56817 18.7797 6.70611 18.244 6.17132C17.7083 5.63562 16.8472 5.63562 15.1231 5.63562H4.15308V16.6056C4.15308 18.3288 4.15308 19.1909 4.68878 19.7266C5.22448 20.2623 6.08562 20.2623 7.80974 20.2623H15.1231C16.8472 20.2623 17.7083 20.2623 18.244 19.7266C18.7797 19.1909 18.7797 18.3288 18.7797 16.6056Z" stroke="#7A7F88" stroke-width="1.5" stroke-linecap="round" stroke-linejoin="round"/>
<path d="M11.4664 10.2065C12.1938 10.2065 12.8913 10.4954 13.4057 11.0097C13.92 11.524 14.2089 12.2216 14.2089 12.949M11.4664 10.2065C10.7391 10.2065 10.0415 10.4954 9.52717 11.0097C9.01285 11.524 8.72391 12.2216 8.72391 12.949M11.4664 10.2065V9.2923M14.2089 12.949H8.72391M14.2089 12.949H15.1231M8.72391 12.949H7.80974M7.80974 16.6056H15.1231M4.15308 5.63564L10.9042 2.8072C12.4117 2.17552 13.1649 1.85921 13.7655 2.02102C14.1549 2.12567 14.4988 2.35611 14.7437 2.67648C15.1231 3.17196 15.1231 3.99288 15.1231 5.63564" stroke="#7A7F88" stroke-width="1.5" stroke-linecap="round" stroke-linejoin="round"/>
</svg>
