<svg width="23" height="23" viewBox="0 0 23 23" fill="none" xmlns="http://www.w3.org/2000/svg">
<path d="M17.5276 11.1206C17.5276 11.363 17.4312 11.5956 17.2598 11.767C17.0884 11.9384 16.8558 12.0348 16.6134 12.0348C16.3709 12.0348 16.1384 11.9384 15.967 11.767C15.7955 11.5956 15.6992 11.363 15.6992 11.1206C15.6992 10.8781 15.7955 10.6456 15.967 10.4742C16.1384 10.3027 16.3709 10.2064 16.6134 10.2064C16.8558 10.2064 17.0884 10.3027 17.2598 10.4742C17.4312 10.6456 17.5276 10.8781 17.5276 11.1206Z" fill="#7A7F88"/>
<path fill-rule="evenodd" clip-rule="evenodd" d="M9.24903 3.1217H12.0939C13.7742 3.1217 15.1052 3.1217 16.1464 3.26157C17.2178 3.40601 18.0854 3.70951 18.7701 4.39331C19.6148 5.23891 19.8844 6.37065 19.9823 7.83972C20.5097 8.071 20.9083 8.56191 20.9513 9.18354C20.9559 9.23931 20.9559 9.29873 20.9559 9.35358V12.8877C20.9559 12.9426 20.9559 13.002 20.9522 13.0569C20.9083 13.6785 20.5097 14.1703 19.9823 14.4025C19.8844 15.8707 19.6148 17.0024 18.7701 17.848C18.0854 18.5318 17.2178 18.8353 16.1464 18.9798C15.1043 19.1196 13.7742 19.1196 12.0939 19.1196H9.24903C7.5688 19.1196 6.23777 19.1196 5.19653 18.9798C4.12513 18.8353 3.25759 18.5318 2.57288 17.848C1.88908 17.1633 1.58558 16.2958 1.44114 15.2244C1.30127 14.1822 1.30127 12.8521 1.30127 11.1719V11.0695C1.30127 9.38923 1.30127 8.0582 1.44114 7.01697C1.58558 5.94556 1.88908 5.07802 2.57288 4.39331C3.25759 3.70951 4.12513 3.40601 5.19653 3.26157C6.23868 3.1217 7.5688 3.1217 9.24903 3.1217ZM18.5955 14.5488H16.8238C14.8629 14.5488 13.1845 13.0605 13.1845 11.1207C13.1845 9.1808 14.8629 7.69254 16.8229 7.69254H18.5946C18.4903 6.46664 18.2554 5.8185 17.7992 5.36324C17.4125 4.97655 16.8823 4.74435 15.9627 4.62094C15.0238 4.49478 13.7851 4.49295 12.0418 4.49295H9.29931C7.556 4.49295 6.31822 4.49478 5.37754 4.62094C4.4588 4.74435 3.92858 4.97655 3.54189 5.36324C3.1552 5.74993 2.92392 6.28015 2.8005 7.19889C2.67435 8.13865 2.67252 9.37643 2.67252 11.1197C2.67252 12.8631 2.67435 14.1018 2.8005 15.0415C2.92392 15.9603 3.15611 16.4905 3.54281 16.8772C3.9295 17.2639 4.45972 17.4961 5.37937 17.6195C6.31913 17.7456 7.55691 17.7475 9.30023 17.7475H12.0427C13.786 17.7475 15.0247 17.7456 15.9645 17.6195C16.8832 17.4961 17.4135 17.2639 17.8001 16.8772C18.2563 16.4219 18.4913 15.7747 18.5955 14.5479M4.95794 7.464C4.95794 7.28216 5.03017 7.10777 5.15875 6.97919C5.28733 6.85061 5.46172 6.77837 5.64356 6.77837H9.30023C9.48207 6.77837 9.65646 6.85061 9.78504 6.97919C9.91362 7.10777 9.98585 7.28216 9.98585 7.464C9.98585 7.64583 9.91362 7.82023 9.78504 7.94881C9.65646 8.07739 9.48207 8.14962 9.30023 8.14962H5.64356C5.46172 8.14962 5.28733 8.07739 5.15875 7.94881C5.03017 7.82023 4.95794 7.64583 4.95794 7.464ZM19.2866 9.06379H16.8238C15.522 9.06379 14.5558 10.0319 14.5558 11.1207C14.5558 12.2094 15.522 13.1775 16.8229 13.1775H19.3076C19.4959 13.1657 19.5773 13.0386 19.5837 12.9618V9.27953C19.5773 9.20274 19.4959 9.07567 19.3076 9.0647L19.2866 9.06379Z" fill="#7A7F88"/>
</svg>
