<svg width="34" height="35" viewBox="0 0 34 35" fill="none" xmlns="http://www.w3.org/2000/svg">
<path d="M17 9.85C17 11.8789 16.194 13.8247 14.7593 15.2594C13.3247 16.694 11.3789 17.5 9.34995 17.5C7.32105 17.5 5.37524 16.694 3.94058 15.2594C2.50593 13.8247 1.69995 11.8789 1.69995 9.85C1.69995 7.82109 2.50593 5.87529 3.94058 4.44063C5.37524 3.00598 7.32105 2.2 9.34995 2.2C11.3789 2.2 13.3247 3.00598 14.7593 4.44063C16.194 5.87529 17 7.82109 17 9.85ZM10.2 6.45C10.2 6.22457 10.1104 6.00837 9.95099 5.84896C9.79159 5.68955 9.57539 5.6 9.34995 5.6C9.12452 5.6 8.90832 5.68955 8.74891 5.84896C8.5895 6.00837 8.49995 6.22457 8.49995 6.45V9H5.94995C5.72452 9 5.50832 9.08955 5.34891 9.24896C5.1895 9.40837 5.09995 9.62457 5.09995 9.85C5.09995 10.0754 5.1895 10.2916 5.34891 10.451C5.50832 10.6104 5.72452 10.7 5.94995 10.7H8.49995V13.25C8.49995 13.4754 8.5895 13.6916 8.74891 13.851C8.90832 14.0104 9.12452 14.1 9.34995 14.1C9.57539 14.1 9.79159 14.0104 9.95099 13.851C10.1104 13.6916 10.2 13.4754 10.2 13.25V10.7H12.75C12.9754 10.7 13.1916 10.6104 13.351 10.451C13.5104 10.2916 13.6 10.0754 13.6 9.85C13.6 9.62457 13.5104 9.40837 13.351 9.24896C13.1916 9.08955 12.9754 9 12.75 9H10.2V6.45ZM23.8 7.3H18.3481C18.1814 6.71289 17.9576 6.1435 17.68 5.6H23.8C25.1526 5.6 26.4498 6.13732 27.4062 7.09376C28.3626 8.05019 28.9 9.3474 28.9 10.7V24.3C28.9 25.6526 28.3626 26.9498 27.4062 27.9062C26.4498 28.8627 25.1526 29.4 23.8 29.4H10.2C8.84735 29.4 7.55014 28.8627 6.59371 27.9062C5.63727 26.9498 5.09995 25.6526 5.09995 24.3V18.18C5.63942 18.4565 6.20608 18.6792 6.79995 18.8481V24.3C6.79995 24.9341 6.97335 25.5274 7.27595 26.034L15.2133 18.2344C15.6901 17.7661 16.3317 17.5038 17 17.5038C17.6682 17.5038 18.3098 17.7661 18.7867 18.2344L26.7257 26.034C27.0365 25.509 27.2003 24.9101 27.2 24.3V10.7C27.2 9.79826 26.8417 8.93346 26.2041 8.29584C25.5665 7.65821 24.7017 7.3 23.8 7.3ZM23.8 13.25C23.8 13.5849 23.734 13.9165 23.6058 14.2258C23.4777 14.5352 23.2899 14.8163 23.0531 15.0531C22.8163 15.2899 22.5352 15.4777 22.2258 15.6059C21.9164 15.734 21.5848 15.8 21.25 15.8C20.9151 15.8 20.5835 15.734 20.2741 15.6059C19.9647 15.4777 19.6836 15.2899 19.4468 15.0531C19.21 14.8163 19.0222 14.5352 18.8941 14.2258C18.7659 13.9165 18.7 13.5849 18.7 13.25C18.7 12.5737 18.9686 11.9251 19.4468 11.4469C19.925 10.9687 20.5737 10.7 21.25 10.7C21.9263 10.7 22.5749 10.9687 23.0531 11.4469C23.5313 11.9251 23.8 12.5737 23.8 13.25ZM22.1 13.25C22.1 13.0246 22.0104 12.8084 21.851 12.649C21.6916 12.4896 21.4754 12.4 21.25 12.4C21.0245 12.4 20.8083 12.4896 20.6489 12.649C20.4895 12.8084 20.4 13.0246 20.4 13.25C20.4 13.4754 20.4895 13.6916 20.6489 13.851C20.8083 14.0104 21.0245 14.1 21.25 14.1C21.4754 14.1 21.6916 14.0104 21.851 13.851C22.0104 13.6916 22.1 13.4754 22.1 13.25ZM8.47955 27.2342C9.00139 27.5397 9.59527 27.7005 10.2 27.7H23.8C24.429 27.7 25.0155 27.53 25.5204 27.2342L17.595 19.4482C17.4361 19.2925 17.2224 19.2052 17 19.2052C16.7775 19.2052 16.5638 19.2925 16.405 19.4482L8.47955 27.2342Z" fill="#9C9BA6"/>
</svg>
