<svg width="23" height="23" viewBox="0 0 23 23" fill="none" xmlns="http://www.w3.org/2000/svg">
<g clip-path="url(#clip0_803_35228)">
<path d="M7.8095 14.7773V10.2065M11.4662 14.7773V7.464M15.1228 14.7773V12.949M11.4662 3.80734H5.98117C5.49626 3.80734 5.03122 3.99996 4.68834 4.34284C4.34546 4.68572 4.15283 5.15077 4.15283 5.63567V16.6057C4.15283 17.0906 4.34546 17.5556 4.68834 17.8985C5.03122 18.2414 5.49626 18.434 5.98117 18.434H16.9512C17.4361 18.434 17.9011 18.2414 18.244 17.8985C18.5869 17.5556 18.7795 17.0906 18.7795 16.6057V11.1207M17.8653 1.979V4.7215M17.8653 4.7215V7.464M17.8653 4.7215H20.6078M17.8653 4.7215H15.1228" stroke="#16D206" stroke-width="2" stroke-linecap="round" stroke-linejoin="round"/>
</g>
<defs>
<clipPath id="clip0_803_35228">
<rect width="21.94" height="21.94" fill="white" transform="translate(0.496094 0.150635)"/>
</clipPath>
</defs>
</svg>
