<svg width="19" height="24" viewBox="0 0 19 24" fill="none" xmlns="http://www.w3.org/2000/svg">
<path fill-rule="evenodd" clip-rule="evenodd" d="M5.28297 4.29814C5.86191 3.85177 6.54705 3.51636 7.34758 3.30833C7.33815 3.22748 7.33333 3.14522 7.33333 3.06184C7.33333 1.90033 8.27148 0.95874 9.42857 0.95874C10.5858 0.95874 11.5238 1.90033 11.5238 3.06184C11.5238 3.14522 11.519 3.22748 11.5096 3.30833C12.3102 3.51636 12.9953 3.85177 13.5742 4.29814C14.5965 5.08626 15.1885 6.14387 15.5388 7.19822C15.8865 8.24482 16.012 9.33532 16.0732 10.2539C16.098 10.6268 16.113 10.9854 16.1262 11.3014L16.1352 11.5147C16.1517 11.8942 16.1679 12.1771 16.1958 12.3862C16.4008 13.9233 16.6553 15.0014 17.0173 15.8635C17.3712 16.7061 17.8457 17.3841 18.5503 18.0915C18.8499 18.3922 18.9396 18.8445 18.7774 19.2375C18.6152 19.6304 18.2333 19.8866 17.8095 19.8866H11.2436C11.4218 20.196 11.5238 20.5551 11.5238 20.9381C11.5238 22.0997 10.5858 23.0412 9.42857 23.0412C8.27148 23.0412 7.33333 22.0997 7.33333 20.9381C7.33333 20.5551 7.43537 20.196 7.61368 19.8866H1.04765C0.623931 19.8866 0.241927 19.6304 0.0797766 19.2375C-0.0823739 18.8445 0.00725007 18.3922 0.306869 18.0915C1.01299 17.3828 1.48615 16.7096 1.83913 15.8706C2.20042 15.0118 2.45499 13.9343 2.6614 12.3862C2.6893 12.1771 2.70553 11.8942 2.722 11.5147L2.73101 11.3014C2.74419 10.9854 2.75913 10.6268 2.78399 10.2539C2.84523 9.33532 2.97064 8.24482 3.3184 7.19822C3.66872 6.14387 4.26072 5.08626 5.28297 4.29814ZM3.21482 17.7835C3.42119 17.4408 3.60522 17.0788 3.7693 16.6888C4.23536 15.5811 4.52113 14.2927 4.73813 12.6653C4.78034 12.3487 4.79928 11.9743 4.81526 11.6062L4.82486 11.3791C4.83799 11.0646 4.85162 10.7383 4.87455 10.3943C4.93161 9.53832 5.04232 8.65721 5.306 7.8636C5.56712 7.07775 5.9619 6.42659 6.55928 5.966C7.14981 5.51071 8.03765 5.16493 9.42857 5.16493C10.8196 5.16493 11.7074 5.51071 12.2979 5.966C12.8954 6.42659 13.2901 7.07775 13.5512 7.8636C13.8148 8.65721 13.9256 9.53832 13.9827 10.3943C14.0056 10.7383 14.0192 11.0646 14.0323 11.3791L14.042 11.6062C14.0579 11.9743 14.0769 12.3487 14.1191 12.6653C14.3348 14.2829 14.6206 15.5707 15.0866 16.6803C15.2516 17.0731 15.4367 17.438 15.6445 17.7835H3.21482Z" fill="black" stroke="black" stroke-width="0.00064"/>
</svg>
