<svg width="29" height="33" viewBox="0 0 29 33" fill="none" xmlns="http://www.w3.org/2000/svg">
<path d="M28.0964 4.74691H28.0938C28.0815 4.37628 27.7826 4.07987 27.4102 4.07308V4.07181H25.9854L25.985 29.6864L25.9854 29.6906C25.9854 30.0723 25.6797 30.3806 25.2997 30.3878V30.3899L3.7128 30.3891C3.36677 30.3891 3.08181 30.1367 3.02626 29.806V28.2785H23.1286V28.2773C23.1332 28.2773 23.1375 28.2785 23.1417 28.2785C23.5276 28.2785 23.8397 27.9669 23.8397 27.5805C23.8397 27.578 23.8389 27.5755 23.8389 27.5755L23.8397 1.19842C23.8397 0.812528 23.5276 0.5 23.1417 0.500424C23.1375 0.500424 23.1332 0.501696 23.129 0.501696V0.5L1.60144 0.500424C1.21555 0.500424 0.903442 0.812528 0.903442 1.19842C0.903442 1.20732 0.905987 1.21623 0.905987 1.22513V26.3448V31.7757C0.905563 31.7842 0.903442 31.7923 0.903442 31.8007C0.903442 31.8092 0.905563 31.8173 0.905987 31.8258V31.858H0.909379C0.939063 32.2163 1.23548 32.4987 1.60144 32.4987L27.3979 32.5H27.4102V32.4987C27.7902 32.4919 28.0959 32.1837 28.0959 31.802L28.0955 31.7978L28.0964 4.74691ZM3.01481 5.4203C3.01481 5.03526 3.32691 4.72231 3.7128 4.72231H21.0312C21.4167 4.72231 21.7292 5.03526 21.7292 5.4203L21.7288 10.662V10.6629C21.7288 11.0488 21.4162 11.3609 21.0308 11.3609H3.7128C3.32734 11.3609 3.01481 11.0488 3.01481 10.6629L3.01523 5.42412C3.01523 5.42285 3.01481 5.42158 3.01481 5.4203Z" fill="#16D206"/>
</svg>
