<svg width="327" height="136" viewBox="0 0 327 136" fill="none" xmlns="http://www.w3.org/2000/svg">
<g filter="url(#filter0_dd_297_20803)">
<rect x="4" y="4" width="319" height="128" rx="20" fill="#0A0A0A"/>
<path d="M35.8884 49.344H30.8004L29.8244 52H28.6404L32.7204 40.96H33.9844L38.0484 52H36.8644L35.8884 49.344ZM35.5524 48.416L33.3444 42.368L31.1364 48.416H35.5524ZM38.6939 47.632C38.6939 46.7253 38.8753 45.936 39.2379 45.264C39.6006 44.5813 40.1019 44.0587 40.7419 43.696C41.3819 43.3227 42.1126 43.136 42.9339 43.136C44.0113 43.136 44.8966 43.4027 45.5899 43.936C46.2939 44.4693 46.7473 45.1947 46.9499 46.112H45.7499C45.6006 45.4827 45.2753 44.992 44.7739 44.64C44.2833 44.2773 43.6699 44.096 42.9339 44.096C42.3473 44.096 41.8193 44.2293 41.3499 44.496C40.8806 44.7627 40.5073 45.1627 40.2299 45.696C39.9633 46.2187 39.8299 46.864 39.8299 47.632C39.8299 48.4 39.9633 49.0507 40.2299 49.584C40.5073 50.1173 40.8806 50.5173 41.3499 50.784C41.8193 51.0507 42.3473 51.184 42.9339 51.184C43.6699 51.184 44.2833 51.008 44.7739 50.656C45.2753 50.2933 45.6006 49.792 45.7499 49.152H46.9499C46.7473 50.048 46.2939 50.768 45.5899 51.312C44.8859 51.856 44.0006 52.128 42.9339 52.128C42.1126 52.128 41.3819 51.9467 40.7419 51.584C40.1019 51.2107 39.6006 50.688 39.2379 50.016C38.8753 49.3333 38.6939 48.5387 38.6939 47.632ZM47.8664 47.632C47.8664 46.7253 48.0478 45.936 48.4104 45.264C48.7731 44.5813 49.2744 44.0587 49.9144 43.696C50.5544 43.3227 51.2851 43.136 52.1064 43.136C53.1838 43.136 54.0691 43.4027 54.7624 43.936C55.4664 44.4693 55.9198 45.1947 56.1224 46.112H54.9224C54.7731 45.4827 54.4478 44.992 53.9464 44.64C53.4558 44.2773 52.8424 44.096 52.1064 44.096C51.5198 44.096 50.9918 44.2293 50.5224 44.496C50.0531 44.7627 49.6798 45.1627 49.4024 45.696C49.1358 46.2187 49.0024 46.864 49.0024 47.632C49.0024 48.4 49.1358 49.0507 49.4024 49.584C49.6798 50.1173 50.0531 50.5173 50.5224 50.784C50.9918 51.0507 51.5198 51.184 52.1064 51.184C52.8424 51.184 53.4558 51.008 53.9464 50.656C54.4478 50.2933 54.7731 49.792 54.9224 49.152H56.1224C55.9198 50.048 55.4664 50.768 54.7624 51.312C54.0584 51.856 53.1731 52.128 52.1064 52.128C51.2851 52.128 50.5544 51.9467 49.9144 51.584C49.2744 51.2107 48.7731 50.688 48.4104 50.016C48.0478 49.3333 47.8664 48.5387 47.8664 47.632ZM65.1189 43.264V52H63.9989V50.464C63.7429 51.008 63.3483 51.424 62.8149 51.712C62.2816 52 61.6843 52.144 61.0229 52.144C59.9776 52.144 59.1243 51.824 58.4629 51.184C57.8016 50.5333 57.4709 49.5947 57.4709 48.368V43.264H58.5749V48.24C58.5749 49.1893 58.8096 49.9147 59.2789 50.416C59.7589 50.9173 60.4096 51.168 61.2309 51.168C62.0736 51.168 62.7456 50.9013 63.2469 50.368C63.7483 49.8347 63.9989 49.0507 63.9989 48.016V43.264H65.1189ZM77.4359 43.104C78.4599 43.104 79.2919 43.4293 79.9319 44.08C80.5826 44.72 80.9079 45.6533 80.9079 46.88V52H79.8039V47.008C79.8039 46.0587 79.5746 45.3333 79.1159 44.832C78.6573 44.3307 78.0333 44.08 77.2439 44.08C76.4226 44.08 75.7666 44.352 75.2759 44.896C74.7853 45.44 74.5399 46.2293 74.5399 47.264V52H73.4359V47.008C73.4359 46.0587 73.2066 45.3333 72.7479 44.832C72.2893 44.3307 71.6599 44.08 70.8599 44.08C70.0386 44.08 69.3826 44.352 68.8919 44.896C68.4013 45.44 68.1559 46.2293 68.1559 47.264V52H67.0359V43.264H68.1559V44.768C68.4333 44.224 68.8279 43.8133 69.3399 43.536C69.8519 43.248 70.4226 43.104 71.0519 43.104C71.8093 43.104 72.4706 43.2853 73.0359 43.648C73.6119 44.0107 74.0279 44.544 74.2839 45.248C74.5186 44.5547 74.9186 44.0267 75.4839 43.664C76.0599 43.2907 76.7106 43.104 77.4359 43.104ZM90.3233 43.264V52H89.2033V50.464C88.9473 51.008 88.5526 51.424 88.0193 51.712C87.486 52 86.8886 52.144 86.2273 52.144C85.182 52.144 84.3286 51.824 83.6673 51.184C83.006 50.5333 82.6753 49.5947 82.6753 48.368V43.264H83.7793V48.24C83.7793 49.1893 84.014 49.9147 84.4833 50.416C84.9633 50.9173 85.614 51.168 86.4353 51.168C87.278 51.168 87.95 50.9013 88.4513 50.368C88.9526 49.8347 89.2033 49.0507 89.2033 48.016V43.264H90.3233ZM93.3603 40.16V52H92.2403V40.16H93.3603ZM94.7446 47.616C94.7446 46.72 94.9206 45.936 95.2726 45.264C95.6352 44.5813 96.1312 44.0587 96.7606 43.696C97.4006 43.3227 98.1206 43.136 98.9206 43.136C99.7526 43.136 100.467 43.328 101.065 43.712C101.673 44.096 102.11 44.5867 102.377 45.184V43.264H103.497V52H102.377V50.064C102.099 50.6613 101.657 51.1573 101.049 51.552C100.451 51.936 99.7366 52.128 98.9046 52.128C98.1152 52.128 97.4006 51.9413 96.7606 51.568C96.1312 51.1947 95.6352 50.6667 95.2726 49.984C94.9206 49.3013 94.7446 48.512 94.7446 47.616ZM102.377 47.632C102.377 46.928 102.233 46.3093 101.945 45.776C101.657 45.2427 101.262 44.832 100.761 44.544C100.27 44.256 99.7259 44.112 99.1286 44.112C98.5099 44.112 97.9552 44.2507 97.4646 44.528C96.9739 44.8053 96.5846 45.2107 96.2966 45.744C96.0192 46.2667 95.8806 46.8907 95.8806 47.616C95.8806 48.3307 96.0192 48.96 96.2966 49.504C96.5846 50.0373 96.9739 50.448 97.4646 50.736C97.9552 51.0133 98.5099 51.152 99.1286 51.152C99.7259 51.152 100.27 51.008 100.761 50.72C101.262 50.432 101.657 50.0213 101.945 49.488C102.233 48.9547 102.377 48.336 102.377 47.632ZM106.869 44.208V49.632C106.869 50.1653 106.971 50.5333 107.173 50.736C107.376 50.9387 107.733 51.04 108.245 51.04H109.269V52H108.069C107.28 52 106.693 51.8187 106.309 51.456C105.925 51.0827 105.733 50.4747 105.733 49.632V44.208H104.517V43.264H105.733V41.072H106.869V43.264H109.269V44.208H106.869ZM118.381 47.184C118.381 47.568 118.37 47.8613 118.349 48.064H111.101C111.133 48.7253 111.293 49.2907 111.581 49.76C111.869 50.2293 112.247 50.5867 112.717 50.832C113.186 51.0667 113.698 51.184 114.253 51.184C114.978 51.184 115.586 51.008 116.077 50.656C116.578 50.304 116.909 49.8293 117.069 49.232H118.253C118.039 50.0853 117.581 50.784 116.877 51.328C116.183 51.8613 115.309 52.128 114.253 52.128C113.431 52.128 112.695 51.9467 112.045 51.584C111.394 51.2107 110.882 50.688 110.509 50.016C110.146 49.3333 109.965 48.5387 109.965 47.632C109.965 46.7253 110.146 45.9307 110.509 45.248C110.871 44.5653 111.378 44.0427 112.029 43.68C112.679 43.3173 113.421 43.136 114.253 43.136C115.085 43.136 115.81 43.3173 116.429 43.68C117.058 44.0427 117.538 44.5333 117.869 45.152C118.21 45.76 118.381 46.4373 118.381 47.184ZM117.245 47.152C117.255 46.5013 117.122 45.9467 116.845 45.488C116.578 45.0293 116.21 44.6827 115.741 44.448C115.271 44.2133 114.759 44.096 114.205 44.096C113.373 44.096 112.663 44.3627 112.077 44.896C111.49 45.4293 111.165 46.1813 111.101 47.152H117.245ZM135.06 43.264L132.324 52H131.204L128.788 44.672L126.372 52H125.236L122.5 43.264H123.636L125.812 50.864L128.26 43.264H129.38L131.796 50.88L133.956 43.264H135.06ZM136.507 41.616C136.283 41.616 136.091 41.536 135.931 41.376C135.771 41.216 135.691 41.0187 135.691 40.784C135.691 40.5493 135.771 40.3573 135.931 40.208C136.091 40.048 136.283 39.968 136.507 39.968C136.731 39.968 136.923 40.048 137.083 40.208C137.243 40.3573 137.323 40.5493 137.323 40.784C137.323 41.0187 137.243 41.216 137.083 41.376C136.923 41.536 136.731 41.616 136.507 41.616ZM137.067 43.264V52H135.947V43.264H137.067ZM140.419 44.208V49.632C140.419 50.1653 140.521 50.5333 140.723 50.736C140.926 50.9387 141.283 51.04 141.795 51.04H142.819V52H141.619C140.83 52 140.243 51.8187 139.859 51.456C139.475 51.0827 139.283 50.4747 139.283 49.632V44.208H138.067V43.264H139.283V41.072H140.419V43.264H142.819V44.208H140.419ZM148.187 43.104C148.848 43.104 149.44 43.2427 149.963 43.52C150.496 43.7973 150.912 44.224 151.211 44.8C151.52 45.3653 151.675 46.0587 151.675 46.88V52H150.571V47.008C150.571 46.0587 150.331 45.3333 149.851 44.832C149.381 44.3307 148.736 44.08 147.915 44.08C147.072 44.08 146.4 44.3467 145.899 44.88C145.397 45.4133 145.147 46.1973 145.147 47.232V52H144.027V40.16H145.147V44.752C145.424 44.2293 145.829 43.824 146.363 43.536C146.907 43.248 147.515 43.104 148.187 43.104Z" fill="white"/>
<path d="M252.189 60L246.466 73.2928L258.377 74.4086L252.189 60ZM281 80.9971L266.023 79.6081L261.753 83.3816L245 98.1977L247.08 107.458L252.207 104.407L270.016 115L265.469 94.7298L281 80.9971Z" fill="#FF9F1C"/>
<path d="M112.786 94H110.784L102.732 81.79V94H100.73V78.644H102.732L110.784 90.832V78.644H112.786V94ZM126.011 81.944V94H124.009V92.218C123.627 92.834 123.092 93.318 122.403 93.67C121.728 94.0073 120.98 94.176 120.159 94.176C119.22 94.176 118.377 93.9853 117.629 93.604C116.881 93.208 116.287 92.6213 115.847 91.844C115.421 91.0667 115.209 90.1207 115.209 89.006V81.944H117.189V88.742C117.189 89.93 117.489 90.8467 118.091 91.492C118.692 92.1227 119.513 92.438 120.555 92.438C121.625 92.438 122.469 92.108 123.085 91.448C123.701 90.788 124.009 89.8273 124.009 88.566V81.944H126.011ZM135.243 94L130.513 88.676V94H128.511V77.72H130.513V87.29L135.155 81.944H137.949L132.273 87.95L137.971 94H135.243ZM145.685 94L140.955 88.676V94H138.953V77.72H140.955V87.29L145.597 81.944H148.391L142.715 87.95L148.413 94H145.685ZM148.648 87.928C148.648 86.696 148.897 85.618 149.396 84.694C149.894 83.7553 150.576 83.0293 151.442 82.516C152.322 82.0027 153.297 81.746 154.368 81.746C155.424 81.746 156.34 81.9733 157.118 82.428C157.895 82.8827 158.474 83.4547 158.856 84.144V81.944H160.88V94H158.856V91.756C158.46 92.46 157.866 93.0467 157.074 93.516C156.296 93.9707 155.387 94.198 154.346 94.198C153.275 94.198 152.307 93.934 151.442 93.406C150.576 92.878 149.894 92.1373 149.396 91.184C148.897 90.2307 148.648 89.1453 148.648 87.928ZM158.856 87.95C158.856 87.0407 158.672 86.2487 158.306 85.574C157.939 84.8993 157.44 84.386 156.81 84.034C156.194 83.6673 155.512 83.484 154.764 83.484C154.016 83.484 153.334 83.66 152.718 84.012C152.102 84.364 151.61 84.8773 151.244 85.552C150.877 86.2267 150.694 87.0187 150.694 87.928C150.694 88.852 150.877 89.6587 151.244 90.348C151.61 91.0227 152.102 91.5433 152.718 91.91C153.334 92.262 154.016 92.438 154.764 92.438C155.512 92.438 156.194 92.262 156.81 91.91C157.44 91.5433 157.939 91.0227 158.306 90.348C158.672 89.6587 158.856 88.8593 158.856 87.95ZM162.635 87.928C162.635 86.696 162.884 85.618 163.383 84.694C163.881 83.7553 164.563 83.0293 165.429 82.516C166.309 82.0027 167.291 81.746 168.377 81.746C169.315 81.746 170.188 81.966 170.995 82.406C171.801 82.8313 172.417 83.396 172.843 84.1V77.72H174.867V94H172.843V91.734C172.447 92.4527 171.86 93.0467 171.083 93.516C170.305 93.9707 169.396 94.198 168.355 94.198C167.284 94.198 166.309 93.934 165.429 93.406C164.563 92.878 163.881 92.1373 163.383 91.184C162.884 90.2307 162.635 89.1453 162.635 87.928ZM172.843 87.95C172.843 87.0407 172.659 86.2487 172.293 85.574C171.926 84.8993 171.427 84.386 170.797 84.034C170.181 83.6673 169.499 83.484 168.751 83.484C168.003 83.484 167.321 83.66 166.705 84.012C166.089 84.364 165.597 84.8773 165.231 85.552C164.864 86.2267 164.681 87.0187 164.681 87.928C164.681 88.852 164.864 89.6587 165.231 90.348C165.597 91.0227 166.089 91.5433 166.705 91.91C167.321 92.262 168.003 92.438 168.751 92.438C169.499 92.438 170.181 92.262 170.797 91.91C171.427 91.5433 171.926 91.0227 172.293 90.348C172.659 89.6587 172.843 88.8593 172.843 87.95ZM178.382 76.488L178.118 80.866H176.732L176.446 76.488H178.382ZM184.26 94.198C183.336 94.198 182.507 94.044 181.774 93.736C181.041 93.4133 180.461 92.9733 180.036 92.416C179.611 91.844 179.376 91.1913 179.332 90.458H181.4C181.459 91.0593 181.737 91.5507 182.236 91.932C182.749 92.3133 183.417 92.504 184.238 92.504C185.001 92.504 185.602 92.3353 186.042 91.998C186.482 91.6607 186.702 91.2353 186.702 90.722C186.702 90.194 186.467 89.8053 185.998 89.556C185.529 89.292 184.803 89.0353 183.82 88.786C182.925 88.5513 182.192 88.3167 181.62 88.082C181.063 87.8327 180.579 87.4733 180.168 87.004C179.772 86.52 179.574 85.8893 179.574 85.112C179.574 84.496 179.757 83.9313 180.124 83.418C180.491 82.9047 181.011 82.5013 181.686 82.208C182.361 81.9 183.131 81.746 183.996 81.746C185.331 81.746 186.409 82.0833 187.23 82.758C188.051 83.4327 188.491 84.3567 188.55 85.53H186.548C186.504 84.8993 186.247 84.3933 185.778 84.012C185.323 83.6307 184.707 83.44 183.93 83.44C183.211 83.44 182.639 83.594 182.214 83.902C181.789 84.21 181.576 84.6133 181.576 85.112C181.576 85.508 181.701 85.838 181.95 86.102C182.214 86.3513 182.537 86.5567 182.918 86.718C183.314 86.8647 183.857 87.0333 184.546 87.224C185.411 87.4587 186.115 87.6933 186.658 87.928C187.201 88.148 187.663 88.4853 188.044 88.94C188.44 89.3947 188.645 89.9887 188.66 90.722C188.66 91.382 188.477 91.976 188.11 92.504C187.743 93.032 187.223 93.45 186.548 93.758C185.888 94.0513 185.125 94.198 184.26 94.198ZM197.593 83.902C197.945 83.2127 198.444 82.6773 199.089 82.296C199.749 81.9147 200.549 81.724 201.487 81.724V83.792H200.959C198.715 83.792 197.593 85.0093 197.593 87.444V94H195.591V81.944H197.593V83.902ZM213.918 87.51C213.918 87.8913 213.896 88.2947 213.852 88.72H204.216C204.29 89.908 204.693 90.8393 205.426 91.514C206.174 92.174 207.076 92.504 208.132 92.504C208.998 92.504 209.716 92.306 210.288 91.91C210.875 91.4993 211.286 90.9567 211.52 90.282H213.676C213.354 91.4407 212.708 92.3867 211.74 93.12C210.772 93.8387 209.57 94.198 208.132 94.198C206.988 94.198 205.962 93.9413 205.052 93.428C204.158 92.9147 203.454 92.1887 202.94 91.25C202.427 90.2967 202.17 89.1967 202.17 87.95C202.17 86.7033 202.42 85.6107 202.918 84.672C203.417 83.7333 204.114 83.0147 205.008 82.516C205.918 82.0027 206.959 81.746 208.132 81.746C209.276 81.746 210.288 81.9953 211.168 82.494C212.048 82.9927 212.723 83.682 213.192 84.562C213.676 85.4273 213.918 86.41 213.918 87.51ZM211.85 87.092C211.85 86.3293 211.682 85.6767 211.344 85.134C211.007 84.5767 210.545 84.1587 209.958 83.88C209.386 83.5867 208.748 83.44 208.044 83.44C207.032 83.44 206.167 83.7627 205.448 84.408C204.744 85.0533 204.341 85.948 204.238 87.092H211.85ZM231.741 81.944L227.979 94H225.911L223.007 84.43L220.103 94H218.035L214.251 81.944H216.297L219.069 92.064L222.061 81.944H224.107L227.033 92.086L229.761 81.944H231.741ZM232.1 87.928C232.1 86.696 232.349 85.618 232.848 84.694C233.346 83.7553 234.028 83.0293 234.894 82.516C235.774 82.0027 236.749 81.746 237.82 81.746C238.876 81.746 239.792 81.9733 240.57 82.428C241.347 82.8827 241.926 83.4547 242.308 84.144V81.944H244.332V94H242.308V91.756C241.912 92.46 241.318 93.0467 240.526 93.516C239.748 93.9707 238.839 94.198 237.798 94.198C236.727 94.198 235.759 93.934 234.894 93.406C234.028 92.878 233.346 92.1373 232.848 91.184C232.349 90.2307 232.1 89.1453 232.1 87.928ZM242.308 87.95C242.308 87.0407 242.124 86.2487 241.758 85.574C241.391 84.8993 240.892 84.386 240.262 84.034C239.646 83.6673 238.964 83.484 238.216 83.484C237.468 83.484 236.786 83.66 236.17 84.012C235.554 84.364 235.062 84.8773 234.696 85.552C234.329 86.2267 234.146 87.0187 234.146 87.928C234.146 88.852 234.329 89.6587 234.696 90.348C235.062 91.0227 235.554 91.5433 236.17 91.91C236.786 92.262 237.468 92.438 238.216 92.438C238.964 92.438 239.646 92.262 240.262 91.91C240.892 91.5433 241.391 91.0227 241.758 90.348C242.124 89.6587 242.308 88.8593 242.308 87.95ZM248.837 83.902C249.189 83.2127 249.688 82.6773 250.333 82.296C250.993 81.9147 251.792 81.724 252.731 81.724V83.792H252.203C249.959 83.792 248.837 85.0093 248.837 87.444V94H246.835V81.944H248.837V83.902ZM253.414 87.928C253.414 86.696 253.663 85.618 254.162 84.694C254.661 83.7553 255.343 83.0293 256.208 82.516C257.088 82.0027 258.071 81.746 259.156 81.746C260.095 81.746 260.967 81.966 261.774 82.406C262.581 82.8313 263.197 83.396 263.622 84.1V77.72H265.646V94H263.622V91.734C263.226 92.4527 262.639 93.0467 261.862 93.516C261.085 93.9707 260.175 94.198 259.134 94.198C258.063 94.198 257.088 93.934 256.208 93.406C255.343 92.878 254.661 92.1373 254.162 91.184C253.663 90.2307 253.414 89.1453 253.414 87.928ZM263.622 87.95C263.622 87.0407 263.439 86.2487 263.072 85.574C262.705 84.8993 262.207 84.386 261.576 84.034C260.96 83.6673 260.278 83.484 259.53 83.484C258.782 83.484 258.1 83.66 257.484 84.012C256.868 84.364 256.377 84.8773 256.01 85.552C255.643 86.2267 255.46 87.0187 255.46 87.928C255.46 88.852 255.643 89.6587 256.01 90.348C256.377 91.0227 256.868 91.5433 257.484 91.91C258.1 92.262 258.782 92.438 259.53 92.438C260.278 92.438 260.96 92.262 261.576 91.91C262.207 91.5433 262.705 91.0227 263.072 90.348C263.439 89.6587 263.622 88.8593 263.622 87.95ZM272.417 94.198C271.493 94.198 270.664 94.044 269.931 93.736C269.198 93.4133 268.618 92.9733 268.193 92.416C267.768 91.844 267.533 91.1913 267.489 90.458H269.557C269.616 91.0593 269.894 91.5507 270.393 91.932C270.906 92.3133 271.574 92.504 272.395 92.504C273.158 92.504 273.759 92.3353 274.199 91.998C274.639 91.6607 274.859 91.2353 274.859 90.722C274.859 90.194 274.624 89.8053 274.155 89.556C273.686 89.292 272.96 89.0353 271.977 88.786C271.082 88.5513 270.349 88.3167 269.777 88.082C269.22 87.8327 268.736 87.4733 268.325 87.004C267.929 86.52 267.731 85.8893 267.731 85.112C267.731 84.496 267.914 83.9313 268.281 83.418C268.648 82.9047 269.168 82.5013 269.843 82.208C270.518 81.9 271.288 81.746 272.153 81.746C273.488 81.746 274.566 82.0833 275.387 82.758C276.208 83.4327 276.648 84.3567 276.707 85.53H274.705C274.661 84.8993 274.404 84.3933 273.935 84.012C273.48 83.6307 272.864 83.44 272.087 83.44C271.368 83.44 270.796 83.594 270.371 83.902C269.946 84.21 269.733 84.6133 269.733 85.112C269.733 85.508 269.858 85.838 270.107 86.102C270.371 86.3513 270.694 86.5567 271.075 86.718C271.471 86.8647 272.014 87.0333 272.703 87.224C273.568 87.4587 274.272 87.6933 274.815 87.928C275.358 88.148 275.82 88.4853 276.201 88.94C276.597 89.3947 276.802 89.9887 276.817 90.722C276.817 91.382 276.634 91.976 276.267 92.504C275.9 93.032 275.38 93.45 274.705 93.758C274.045 94.0513 273.282 94.198 272.417 94.198Z" fill="white"/>
<path d="M27.7721 30.51C27.7721 29.83 27.9288 29.22 28.2421 28.68C28.5621 28.14 28.9921 27.72 29.5321 27.42C30.0788 27.1133 30.6755 26.96 31.3221 26.96C32.0621 26.96 32.7188 27.1433 33.2921 27.51C33.8721 27.87 34.2921 28.3833 34.5521 29.05H33.1821C33.0021 28.6833 32.7521 28.41 32.4321 28.23C32.1121 28.05 31.7421 27.96 31.3221 27.96C30.8621 27.96 30.4521 28.0633 30.0921 28.27C29.7321 28.4767 29.4488 28.7733 29.2421 29.16C29.0421 29.5467 28.9421 29.9967 28.9421 30.51C28.9421 31.0233 29.0421 31.4733 29.2421 31.86C29.4488 32.2467 29.7321 32.5467 30.0921 32.76C30.4521 32.9667 30.8621 33.07 31.3221 33.07C31.7421 33.07 32.1121 32.98 32.4321 32.8C32.7521 32.62 33.0021 32.3467 33.1821 31.98H34.5521C34.2921 32.6467 33.8721 33.16 33.2921 33.52C32.7188 33.88 32.0621 34.06 31.3221 34.06C30.6688 34.06 30.0721 33.91 29.5321 33.61C28.9921 33.3033 28.5621 32.88 28.2421 32.34C27.9288 31.8 27.7721 31.19 27.7721 30.51ZM36.6165 27.05V31.48C36.6165 32.0067 36.7532 32.4033 37.0265 32.67C37.3065 32.9367 37.6932 33.07 38.1865 33.07C38.6865 33.07 39.0732 32.9367 39.3465 32.67C39.6265 32.4033 39.7665 32.0067 39.7665 31.48V27.05H40.9065V31.46C40.9065 32.0267 40.7832 32.5067 40.5365 32.9C40.2899 33.2933 39.9599 33.5867 39.5465 33.78C39.1332 33.9733 38.6765 34.07 38.1765 34.07C37.6765 34.07 37.2199 33.9733 36.8065 33.78C36.3999 33.5867 36.0765 33.2933 35.8365 32.9C35.5965 32.5067 35.4765 32.0267 35.4765 31.46V27.05H36.6165ZM44.2808 34.07C43.8142 34.07 43.3942 33.99 43.0208 33.83C42.6475 33.6633 42.3542 33.43 42.1408 33.13C41.9275 32.83 41.8208 32.48 41.8208 32.08H43.0408C43.0675 32.38 43.1842 32.6267 43.3908 32.82C43.6042 33.0133 43.9008 33.11 44.2808 33.11C44.6742 33.11 44.9808 33.0167 45.2008 32.83C45.4208 32.6367 45.5308 32.39 45.5308 32.09C45.5308 31.8567 45.4608 31.6667 45.3208 31.52C45.1875 31.3733 45.0175 31.26 44.8108 31.18C44.6108 31.1 44.3308 31.0133 43.9708 30.92C43.5175 30.8 43.1475 30.68 42.8608 30.56C42.5808 30.4333 42.3408 30.24 42.1408 29.98C41.9408 29.72 41.8408 29.3733 41.8408 28.94C41.8408 28.54 41.9408 28.19 42.1408 27.89C42.3408 27.59 42.6208 27.36 42.9808 27.2C43.3408 27.04 43.7575 26.96 44.2308 26.96C44.9042 26.96 45.4542 27.13 45.8808 27.47C46.3142 27.8033 46.5542 28.2633 46.6008 28.85H45.3408C45.3208 28.5967 45.2008 28.38 44.9808 28.2C44.7608 28.02 44.4708 27.93 44.1108 27.93C43.7842 27.93 43.5175 28.0133 43.3108 28.18C43.1042 28.3467 43.0008 28.5867 43.0008 28.9C43.0008 29.1133 43.0642 29.29 43.1908 29.43C43.3242 29.5633 43.4908 29.67 43.6908 29.75C43.8908 29.83 44.1642 29.9167 44.5108 30.01C44.9708 30.1367 45.3442 30.2633 45.6308 30.39C45.9242 30.5167 46.1708 30.7133 46.3708 30.98C46.5775 31.24 46.6808 31.59 46.6808 32.03C46.6808 32.3833 46.5842 32.7167 46.3908 33.03C46.2042 33.3433 45.9275 33.5967 45.5608 33.79C45.2008 33.9767 44.7742 34.07 44.2808 34.07ZM52.116 27.05V27.98H50.266V34H49.126V27.98H47.266V27.05H52.116ZM56.0405 34.07C55.3938 34.07 54.7972 33.92 54.2505 33.62C53.7105 33.3133 53.2805 32.89 52.9605 32.35C52.6472 31.8033 52.4905 31.19 52.4905 30.51C52.4905 29.83 52.6472 29.22 52.9605 28.68C53.2805 28.14 53.7105 27.72 54.2505 27.42C54.7972 27.1133 55.3938 26.96 56.0405 26.96C56.6938 26.96 57.2905 27.1133 57.8305 27.42C58.3772 27.72 58.8072 28.14 59.1205 28.68C59.4338 29.22 59.5905 29.83 59.5905 30.51C59.5905 31.19 59.4338 31.8033 59.1205 32.35C58.8072 32.89 58.3772 33.3133 57.8305 33.62C57.2905 33.92 56.6938 34.07 56.0405 34.07ZM56.0405 33.08C56.5005 33.08 56.9105 32.9767 57.2705 32.77C57.6305 32.5567 57.9105 32.2567 58.1105 31.87C58.3172 31.4767 58.4205 31.0233 58.4205 30.51C58.4205 29.9967 58.3172 29.5467 58.1105 29.16C57.9105 28.7733 57.6305 28.4767 57.2705 28.27C56.9105 28.0633 56.5005 27.96 56.0405 27.96C55.5805 27.96 55.1705 28.0633 54.8105 28.27C54.4505 28.4767 54.1672 28.7733 53.9605 29.16C53.7605 29.5467 53.6605 29.9967 53.6605 30.51C53.6605 31.0233 53.7605 31.4767 53.9605 31.87C54.1672 32.2567 54.4505 32.5567 54.8105 32.77C55.1705 32.9767 55.5805 33.08 56.0405 33.08ZM67.6323 27.05V34H66.4923V29.24L64.3723 34H63.5823L61.4523 29.24V34H60.3123V27.05H61.5423L63.9823 32.5L66.4123 27.05H67.6323ZM69.8707 27.97V30.01H72.2707V30.94H69.8707V33.07H72.5707V34H68.7307V27.04H72.5707V27.97H69.8707ZM77.1848 34L75.5848 31.22H74.7148V34H73.5748V27.05H75.9748C76.5081 27.05 76.9581 27.1433 77.3248 27.33C77.6981 27.5167 77.9748 27.7667 78.1548 28.08C78.3415 28.3933 78.4348 28.7433 78.4348 29.13C78.4348 29.5833 78.3015 29.9967 78.0348 30.37C77.7748 30.7367 77.3715 30.9867 76.8248 31.12L78.5448 34H77.1848ZM74.7148 30.31H75.9748C76.4015 30.31 76.7215 30.2033 76.9348 29.99C77.1548 29.7767 77.2648 29.49 77.2648 29.13C77.2648 28.77 77.1581 28.49 76.9448 28.29C76.7315 28.0833 76.4081 27.98 75.9748 27.98H74.7148V30.31ZM85.4108 30.43C85.7842 30.4967 86.1008 30.6933 86.3608 31.02C86.6208 31.3467 86.7508 31.7167 86.7508 32.13C86.7508 32.4833 86.6575 32.8033 86.4708 33.09C86.2908 33.37 86.0275 33.5933 85.6808 33.76C85.3342 33.92 84.9308 34 84.4708 34H81.6908V27.05H84.3408C84.8142 27.05 85.2208 27.13 85.5608 27.29C85.9008 27.45 86.1575 27.6667 86.3308 27.94C86.5042 28.2067 86.5908 28.5067 86.5908 28.84C86.5908 29.24 86.4842 29.5733 86.2708 29.84C86.0575 30.1067 85.7708 30.3033 85.4108 30.43ZM82.8308 29.97H84.2408C84.6142 29.97 84.9042 29.8867 85.1108 29.72C85.3242 29.5467 85.4308 29.3 85.4308 28.98C85.4308 28.6667 85.3242 28.4233 85.1108 28.25C84.9042 28.07 84.6142 27.98 84.2408 27.98H82.8308V29.97ZM84.3708 33.07C84.7575 33.07 85.0608 32.9767 85.2808 32.79C85.5008 32.6033 85.6108 32.3433 85.6108 32.01C85.6108 31.67 85.4942 31.4 85.2608 31.2C85.0275 31 84.7175 30.9 84.3308 30.9H82.8308V33.07H84.3708ZM88.7296 27.97V30.01H91.1296V30.94H88.7296V33.07H91.4296V34H87.5896V27.04H91.4296V27.97H88.7296ZM98.1438 34H97.0038L93.5738 28.81V34H92.4338V27.04H93.5738L97.0038 32.22V27.04H98.1438V34ZM100.381 27.97V30.01H102.781V30.94H100.381V33.07H103.081V34H99.2408V27.04H103.081V27.97H100.381ZM108.175 27.05V27.98H105.225V30.03H107.525V30.96H105.225V34H104.085V27.05H108.175ZM109.971 27.05V34H108.831V27.05H109.971ZM115.558 27.05V27.98H113.708V34H112.568V27.98H110.708V27.05H115.558ZM118.603 34.07C118.136 34.07 117.716 33.99 117.343 33.83C116.969 33.6633 116.676 33.43 116.463 33.13C116.249 32.83 116.143 32.48 116.143 32.08H117.363C117.389 32.38 117.506 32.6267 117.713 32.82C117.926 33.0133 118.223 33.11 118.603 33.11C118.996 33.11 119.303 33.0167 119.523 32.83C119.743 32.6367 119.853 32.39 119.853 32.09C119.853 31.8567 119.783 31.6667 119.643 31.52C119.509 31.3733 119.339 31.26 119.133 31.18C118.933 31.1 118.653 31.0133 118.293 30.92C117.839 30.8 117.469 30.68 117.183 30.56C116.903 30.4333 116.663 30.24 116.463 29.98C116.263 29.72 116.163 29.3733 116.163 28.94C116.163 28.54 116.263 28.19 116.463 27.89C116.663 27.59 116.943 27.36 117.303 27.2C117.663 27.04 118.079 26.96 118.553 26.96C119.226 26.96 119.776 27.13 120.203 27.47C120.636 27.8033 120.876 28.2633 120.923 28.85H119.663C119.643 28.5967 119.523 28.38 119.303 28.2C119.083 28.02 118.793 27.93 118.433 27.93C118.106 27.93 117.839 28.0133 117.633 28.18C117.426 28.3467 117.323 28.5867 117.323 28.9C117.323 29.1133 117.386 29.29 117.513 29.43C117.646 29.5633 117.813 29.67 118.013 29.75C118.213 29.83 118.486 29.9167 118.833 30.01C119.293 30.1367 119.666 30.2633 119.953 30.39C120.246 30.5167 120.493 30.7133 120.693 30.98C120.899 31.24 121.003 31.59 121.003 32.03C121.003 32.3833 120.906 32.7167 120.713 33.03C120.526 33.3433 120.249 33.5967 119.883 33.79C119.523 33.9767 119.096 34.07 118.603 34.07Z" fill="#AAACAE"/>
</g>
<defs>
<filter id="filter0_dd_297_20803" x="0" y="0" width="327" height="136" filterUnits="userSpaceOnUse" color-interpolation-filters="sRGB">
<feFlood flood-opacity="0" result="BackgroundImageFix"/>
<feColorMatrix in="SourceAlpha" type="matrix" values="0 0 0 0 0 0 0 0 0 0 0 0 0 0 0 0 0 0 127 0" result="hardAlpha"/>
<feOffset dy="2"/>
<feGaussianBlur stdDeviation="1"/>
<feColorMatrix type="matrix" values="0 0 0 0 0 0 0 0 0 0 0 0 0 0 0 0 0 0 0.2 0"/>
<feBlend mode="normal" in2="BackgroundImageFix" result="effect1_dropShadow_297_20803"/>
<feColorMatrix in="SourceAlpha" type="matrix" values="0 0 0 0 0 0 0 0 0 0 0 0 0 0 0 0 0 0 127 0" result="hardAlpha"/>
<feOffset/>
<feGaussianBlur stdDeviation="2"/>
<feColorMatrix type="matrix" values="0 0 0 0 0 0 0 0 0 0 0 0 0 0 0 0 0 0 0.1 0"/>
<feBlend mode="normal" in2="effect1_dropShadow_297_20803" result="effect2_dropShadow_297_20803"/>
<feBlend mode="normal" in="SourceGraphic" in2="effect2_dropShadow_297_20803" result="shape"/>
</filter>
</defs>
</svg>
