<svg width="34" height="34" viewBox="0 0 34 34" fill="none" xmlns="http://www.w3.org/2000/svg">
<circle cx="17" cy="17" r="16" fill="#3FE930" fill-opacity="0.1" stroke="#16D206" stroke-width="2"/>
<path fill-rule="evenodd" clip-rule="evenodd" d="M26.6401 24.3277C26.0228 26.2036 23.6042 27.1392 21.8762 26.9832C19.5163 26.7699 16.9484 25.5182 14.9991 24.1396C12.1338 22.1129 9.44991 18.9781 7.88595 15.6515C6.78064 13.3009 6.53265 10.4108 8.17661 8.26823C8.78459 7.47625 9.44191 7.05328 10.4299 7.00394C11.8005 6.93728 11.9925 7.72139 12.4632 8.94269C12.8138 9.856 13.2818 10.7876 13.5431 11.7343C14.0324 13.5009 12.3218 13.5747 12.1058 15.0187C11.9712 15.9293 13.0751 17.1506 13.5738 17.7999C14.5511 19.0718 15.7257 20.1689 17.051 21.0036C17.8097 21.4822 19.035 22.3448 19.9043 21.8688C21.2429 21.1355 21.1163 18.8783 22.9882 19.6423C23.9575 20.0369 24.8962 20.6065 25.8215 21.1051C27.2521 21.8744 27.1854 22.6717 26.6401 24.3277C27.0481 23.0904 26.2321 25.565 26.6401 24.3277Z" fill="#16D206"/>
</svg>
