<svg width="22" height="23" viewBox="0 0 22 23" fill="none" xmlns="http://www.w3.org/2000/svg">
<path d="M20.2736 6.26723L10.7746 15.7662C9.82872 16.7121 7.02082 17.1502 6.39353 16.5229C5.76624 15.8956 6.19439 13.0877 7.1403 12.1418L16.6493 2.6329C16.8838 2.37706 17.1676 2.17141 17.4839 2.02833C17.8 1.88525 18.1419 1.80768 18.4889 1.80037C18.8358 1.79307 19.1807 1.85614 19.5026 1.98579C19.8246 2.11544 20.1169 2.30901 20.3619 2.55475C20.607 2.80048 20.7997 3.09332 20.9285 3.41559C21.0572 3.73787 21.1195 4.08288 21.1112 4.42983C21.1029 4.77678 21.0244 5.11849 20.8805 5.43428C20.7365 5.75007 20.5301 6.03343 20.2736 6.26723Z" stroke="black" stroke-width="1.792" stroke-linecap="round" stroke-linejoin="round"/>
<path d="M10.0377 3.87744H5.05922C4.00291 3.87744 2.98993 4.29705 2.24301 5.04397C1.49609 5.7909 1.07642 6.80393 1.07642 7.86024V17.8172C1.07642 18.8736 1.49609 19.8866 2.24301 20.6335C2.98993 21.3805 4.00291 21.8 5.05922 21.8H16.0119C18.2124 21.8 18.999 20.0078 18.999 17.8172V12.8387" stroke="black" stroke-width="1.792" stroke-linecap="round" stroke-linejoin="round"/>
</svg>
