<svg width="23" height="23" viewBox="0 0 23 23" fill="none" xmlns="http://www.w3.org/2000/svg">
<path d="M15.0823 0.599609C16.7392 0.599609 18.0823 1.94276 18.0823 3.59961C18.0823 4.15189 17.6346 4.59961 17.0823 4.59961C16.53 4.59961 16.0823 4.15189 16.0823 3.59961C16.0823 3.04733 15.6346 2.59961 15.0823 2.59961H3.08227C2.53 2.59961 2.08228 3.04733 2.08228 3.59961V19.5996C2.08228 20.1519 2.53 20.5996 3.08227 20.5996H15.0823C15.6346 20.5996 16.0823 20.1519 16.0823 19.5996V18.5996C16.0823 18.0473 16.53 17.5996 17.0823 17.5996C17.6346 17.5996 18.0823 18.0473 18.0823 18.5996V19.5996C18.0823 21.2565 16.7392 22.5996 15.0823 22.5996H3.08227C1.42543 22.5996 0.0822754 21.2565 0.0822754 19.5996V3.59961C0.0822754 1.94276 1.42543 0.599609 3.08227 0.599609H15.0823Z" fill="black" stroke="black" stroke-width="0.00064"/>
<path fill-rule="evenodd" clip-rule="evenodd" d="M19.8812 7.80056C19.5814 7.50073 19.0953 7.50073 18.7954 7.80056L10.9987 15.5974C10.8513 15.7447 10.7536 15.9345 10.7194 16.1401L10.5549 17.1269L11.5417 16.9624C11.7473 16.9282 11.9371 16.8305 12.0844 16.6832L19.8812 8.88635C20.1811 8.58651 20.1811 8.10039 19.8812 7.80056ZM17.3812 6.38635C18.4621 5.30547 20.2146 5.30546 21.2955 6.38634C22.3763 7.46723 22.3763 9.21968 21.2955 10.3006L13.4987 18.0974C13.0565 18.5395 12.4873 18.8324 11.8705 18.9352L10.8837 19.0997C9.53015 19.3253 8.35655 18.1518 8.58216 16.7981L8.74663 15.8113C8.84943 15.1945 9.14235 14.6253 9.58445 14.1831L17.3812 6.38635Z" fill="black" stroke="black" stroke-width="0.00064"/>
<path d="M4.08228 6.60059C4.08228 6.04831 4.53 5.60059 5.08228 5.60059H13.0823C13.6346 5.60059 14.0823 6.04831 14.0823 6.60059C14.0823 7.15287 13.6346 7.60059 13.0823 7.60059H5.08228C4.53 7.60059 4.08228 7.15287 4.08228 6.60059Z" fill="black" stroke="black" stroke-width="0.00064"/>
<path d="M4.08228 10.5996C4.08228 10.0473 4.53 9.59961 5.08228 9.59961H9.08228C9.63458 9.59961 10.0823 10.0473 10.0823 10.5996C10.0823 11.1519 9.63458 11.5996 9.08228 11.5996H5.08228C4.53 11.5996 4.08228 11.1519 4.08228 10.5996Z" fill="black" stroke="black" stroke-width="0.00064"/>
<path d="M4.08228 14.5991C4.08228 14.0468 4.53 13.5991 5.08228 13.5991H6.08228C6.63456 13.5991 7.08228 14.0468 7.08228 14.5991C7.08228 15.1514 6.63456 15.5991 6.08228 15.5991H5.08228C4.53 15.5991 4.08228 15.1514 4.08228 14.5991Z" fill="black" stroke="black" stroke-width="0.00064"/>
</svg>
