<svg width="18" height="21" viewBox="0 0 18 21" fill="none" xmlns="http://www.w3.org/2000/svg">
<path fill-rule="evenodd" clip-rule="evenodd" d="M1.82144 0.199707C1.31937 0.199707 0.912354 0.606725 0.912354 1.1088V19.2906C0.912354 19.7927 1.31937 20.1997 1.82144 20.1997C2.32352 20.1997 2.73054 19.7927 2.73054 19.2906V11.6527C3.15419 11.4418 3.82393 11.1478 4.54191 10.9683C5.82973 10.6464 6.86324 10.7653 7.42872 11.6133C8.48417 13.1964 10.4998 13.3359 12.0511 13.1813C13.6881 13.0183 15.3076 12.4822 16.1264 12.1793C16.8457 11.9133 17.276 11.2303 17.276 10.5095V4.49368C17.276 3.08332 15.7831 2.25993 14.5932 2.79953C13.6283 3.23714 12.3464 3.72584 11.1879 3.88725C9.9759 4.05613 9.27199 3.82762 8.94144 3.33193C7.74881 1.54301 5.70834 1.33122 4.24594 1.45308C3.68454 1.49987 3.16289 1.59803 2.73054 1.70197V1.1088C2.73054 0.606725 2.32352 0.199707 1.82144 0.199707ZM2.73054 3.5825V9.65853C3.13129 9.49489 3.59977 9.32971 4.10096 9.20443C5.54042 8.84462 7.68872 8.7258 8.94144 10.6047C9.37653 11.2573 10.3792 11.5207 11.8708 11.3722C13.254 11.2343 14.678 10.7743 15.4578 10.4881V4.49368C15.4578 4.45238 15.3743 4.44173 15.3442 4.4554C14.3283 4.91611 12.8574 5.49036 11.4388 5.68803C10.0738 5.87824 8.37635 5.76198 7.42872 4.34051C6.80316 3.40229 5.66181 3.15958 4.39694 3.26498C3.7524 3.3187 3.1526 3.45994 2.73054 3.5825Z" fill="black" stroke="black" stroke-width="0.00064"/>
</svg>
