<svg width="30" height="30" viewBox="0 0 30 30" fill="none" xmlns="http://www.w3.org/2000/svg">
<path d="M14.9837 29.9675C23.259 29.9675 29.9674 23.2663 29.9674 15C29.9674 6.73367 23.259 0.0325012 14.9837 0.0325012C6.70843 0.0325012 0 6.73367 0 15C0 23.2663 6.70843 29.9675 14.9837 29.9675Z" fill="#40A459"/>
<path d="M14.9836 0.0325012C14.8696 0.0325012 14.7562 0.034259 14.6427 0.0367786C14.6139 0.0374231 14.5851 0.0380676 14.5563 0.0389465C14.4482 0.0419348 14.3403 0.0459192 14.2328 0.0511926C14.205 0.0525403 14.1774 0.0544739 14.1496 0.0559387C14.0679 0.0604504 13.9863 0.0656067 13.9048 0.0714075C13.8638 0.0743372 13.8229 0.0771497 13.782 0.0803723C13.6875 0.0878723 13.5933 0.0961926 13.4993 0.10545C13.4506 0.110255 13.4022 0.115587 13.3538 0.120802C13.2957 0.12713 13.2377 0.133751 13.1797 0.140724C13.1295 0.146759 13.0792 0.15256 13.0292 0.159064C20.3809 1.11572 26.0585 7.39528 26.0585 14.9998C26.0585 22.6043 20.381 28.8839 13.0292 29.8406C13.0793 29.8471 13.1295 29.853 13.1798 29.8589C13.2377 29.8659 13.2958 29.8725 13.3539 29.8789C13.4024 29.8841 13.4508 29.8895 13.4993 29.8942C13.5933 29.9035 13.6875 29.9118 13.782 29.9193C13.8229 29.9226 13.8639 29.9254 13.9049 29.9283C13.9863 29.9341 14.0679 29.9393 14.1497 29.9437C14.1774 29.9453 14.2051 29.9471 14.2329 29.9485C14.3404 29.9538 14.4483 29.9577 14.5563 29.9607C14.5851 29.9615 14.6139 29.9622 14.6428 29.9629C14.7561 29.9654 14.8697 29.9672 14.9837 29.9672C23.259 29.9672 29.9674 23.266 29.9674 14.9997C29.9674 6.7334 23.2589 0.0325012 14.9836 0.0325012Z" fill="#378B4E"/>
<path d="M13.0293 13.6984L19.28 10.1153C19.28 10.1153 26.1176 11.5701 27.6957 8.69365L28.1934 7.78645L28.6263 8.72629C29.5249 10.6777 30 12.8471 30 15C30 19.9623 27.5393 24.5996 23.4177 27.4045L22.9924 27.6939L13.0293 13.6984Z" fill="#B8B8B8"/>
<path d="M29.9674 15C29.9674 12.4135 29.3105 9.98019 28.1544 7.85751L27.6957 8.69359C27.1414 9.70404 26.4118 10.7372 25.6847 11.6667C25.9288 12.7387 26.0586 13.8542 26.0586 15C26.0586 19.1799 24.343 22.959 21.5771 25.6743L22.9762 27.7056C27.1796 25.0545 29.9674 20.3327 29.9674 15Z" fill="#7A797F"/>
<path d="M14.9837 30C9.85386 30 5.12873 27.4171 2.34403 23.0908L2.07849 22.6783L10.4235 15.6507L20.028 29.1344L19.416 29.3328C17.9842 29.7755 16.493 30 14.9837 30Z" fill="#3D9AE3"/>
<path d="M20.0887 29.1109L19.0729 27.6581C17.2798 28.7909 15.2235 29.5867 13.0232 29.873C13.6629 29.9562 14.3213 29.9674 14.9838 29.9674C16.7697 29.9674 18.5004 29.6835 20.0887 29.1109Z" fill="#1D81CE"/>
<path d="M10.4235 15.6507L13.0293 13.6985L23.0483 27.6601L22.5613 27.9455C21.8733 28.3489 21.1492 28.6991 20.4092 28.9865L20.0279 29.1346L10.4235 15.6507Z" fill="white"/>
<path d="M20.028 29.1345C21.0956 28.7551 22.1078 28.2589 23.0483 27.66L21.6045 25.648C20.8187 26.4234 19.9475 27.1124 19.0063 27.7002L20.028 29.1345Z" fill="#E0E0E3"/>
<path d="M1.82375 22.2181C1.41256 21.4729 1.06332 20.688 0.785749 19.8853L0.661865 19.4131L18.2409 7.1909L20.8468 9.14318L2.07844 22.6783L1.82375 22.2181Z" fill="#FFCE00"/>
<path d="M22.4247 14.6611C21.503 13.6996 16.9054 8.7576 16.9054 5.88938C16.9054 2.64193 19.5503 0 22.8012 0C26.0521 0 28.6969 2.64193 28.6969 5.88938C28.6969 8.75566 24.0992 13.6992 23.1776 14.6611C22.9724 14.8752 22.6299 14.8753 22.4247 14.6611Z" fill="#CD2900"/>
<path d="M22.801 7.87417C21.3461 7.87417 20.1626 6.69186 20.1626 5.23862C20.1626 3.78538 21.3462 2.60307 22.801 2.60307C24.2559 2.60307 25.4394 3.78538 25.4394 5.23862C25.4394 6.69186 24.2559 7.87417 22.801 7.87417Z" fill="#891D00"/>
<path d="M8.46915 10.9328C10.1754 10.9328 11.5636 9.5461 11.5636 7.84167C11.5636 7.57214 11.3449 7.35358 11.075 7.35358H9.1206C8.85078 7.35358 8.63199 7.57208 8.63199 7.84167C8.63199 8.1112 8.85072 8.32975 9.1206 8.32975H10.5294C10.3084 9.26145 9.46844 9.95667 8.4691 9.95667C7.3017 9.95667 6.35186 9.00786 6.35186 7.84173C6.35186 6.67559 7.3017 5.72678 8.4691 5.72678C8.98528 5.72678 9.4824 5.9144 9.86895 6.25501C10.0714 6.43337 10.3801 6.41397 10.5586 6.21188C10.7371 6.00973 10.7177 5.7013 10.5154 5.523C9.95019 5.02495 9.22349 4.75067 8.4691 4.75067C6.76287 4.75067 5.37463 6.13735 5.37463 7.84178C5.37463 9.54622 6.76287 10.9328 8.46915 10.9328Z" fill="white"/>
</svg>
