<svg width="35" height="35" viewBox="0 0 35 35" fill="none" xmlns="http://www.w3.org/2000/svg">
<path d="M17.5 0C7.85278 0 0 7.85278 0 17.5C0 27.1472 7.85278 35 17.5 35C27.1472 35 35 27.1472 35 17.5C35 7.85278 27.1472 0 17.5 0ZM17.5 4.375C24.7888 4.375 30.625 10.2112 30.625 17.5C30.625 24.7888 24.7888 30.625 17.5 30.625C10.2112 30.625 4.375 24.7888 4.375 17.5C4.375 10.2112 10.2112 4.375 17.5 4.375ZM17.5 8.47656C16.1414 8.47656 15.0391 9.57886 15.0391 10.9375C15.0391 12.2961 16.1414 13.3984 17.5 13.3984C18.8586 13.3984 19.9609 12.2961 19.9609 10.9375C19.9609 9.57886 18.8586 8.47656 17.5 8.47656ZM14.1675 15.3125C13.5864 15.3381 13.125 15.8167 13.125 16.4062C13.125 17.0129 13.6121 17.5 14.2188 17.5H15.3125V24.0625H14.2188C13.6121 24.0625 13.125 24.5496 13.125 25.1562C13.125 25.7629 13.6121 26.25 14.2188 26.25H20.7812C21.3879 26.25 21.875 25.7629 21.875 25.1562C21.875 24.5496 21.3879 24.0625 20.7812 24.0625H19.6875V15.3125H14.2188C14.2017 15.3125 14.1846 15.3125 14.1675 15.3125Z" fill="#16D206"/>
</svg>
