<svg width="23" height="22" viewBox="0 0 23 22" fill="none" xmlns="http://www.w3.org/2000/svg">
<path fill-rule="evenodd" clip-rule="evenodd" d="M11.0942 0C5.01913 0 0.0942383 4.92482 0.0942383 11C0.0942383 17.0751 5.01913 22 11.0942 22C17.1694 22 22.0942 17.0751 22.0942 11C22.0942 4.92482 17.1694 0 11.0942 0ZM11.0942 19.8C6.24193 19.8 2.29424 15.8523 2.29424 11C2.29424 6.14769 6.24193 2.2 11.0942 2.2C15.9466 2.2 19.8942 6.14769 19.8942 11C19.8942 15.8523 15.9466 19.8 11.0942 19.8ZM12.4716 6.6C12.4716 7.39754 11.891 7.975 11.1054 7.975C10.2881 7.975 9.72165 7.39754 9.72165 6.58474C9.72165 5.80355 10.3034 5.225 11.1054 5.225C11.891 5.225 12.4716 5.80355 12.4716 6.6ZM9.99665 9.9H12.1966V16.5H9.99665V9.9Z" fill="black"/>
</svg>
