<svg width="22" height="23" viewBox="0 0 22 23" fill="none" xmlns="http://www.w3.org/2000/svg">
<path d="M15.5387 17.3554L21.0942 11.7998M21.0942 11.7998L15.5387 6.24425M21.0942 11.7998H7.76091M11.0942 17.3554C11.0942 18.3887 11.0942 18.9054 10.9807 19.3293C10.6725 20.4795 9.77391 21.378 8.62364 21.6863C8.19975 21.7998 7.68309 21.7998 6.64979 21.7998H6.09424C4.54111 21.7998 3.76453 21.7998 3.15196 21.546C2.33521 21.2078 1.68628 20.5588 1.34797 19.7421C1.09424 19.1295 1.09424 18.3529 1.09424 16.7998V6.7998C1.09424 5.24666 1.09424 4.47009 1.34797 3.85753C1.68628 3.04077 2.33521 2.39185 3.15196 2.05354C3.76453 1.7998 4.54111 1.7998 6.09424 1.7998H6.64979C7.68309 1.7998 8.19975 1.7998 8.62364 1.91338C9.77391 2.2216 10.6725 3.1201 10.9807 4.2704C11.0942 4.69429 11.0942 5.21095 11.0942 6.24425" stroke="black" stroke-width="1.664" stroke-linecap="round" stroke-linejoin="round"/>
</svg>
