<svg width="31" height="35" viewBox="0 0 31 35" fill="none" xmlns="http://www.w3.org/2000/svg">
<path d="M30.622 32.1878C30.2927 25.9324 24.6706 23.3447 24.6706 23.3447C23.3274 22.7166 20.8921 21.4872 19.2954 20.6744C21.3411 18.4364 21.9453 14.7874 22.0394 14.2682C22.4663 11.9188 22.2515 9.01095 22.2515 9.01095C21.8611 3.35632 16.152 3.26751 15.5541 3.27345C15.5211 3.27345 15.4997 3.2738 15.4997 3.2738C15.4997 3.2738 15.4815 3.27345 15.4544 3.2738C14.9124 3.26676 9.14043 3.32401 8.74794 9.01095C8.74794 9.01095 8.53308 11.9185 8.96 14.2682C8.98773 14.4195 9.06008 14.8411 9.19734 15.4112C10.2727 16.8229 11.9328 17.5152 13.2954 17.854C13.4667 17.6875 13.7002 17.584 13.9589 17.584H16.4424C16.9679 17.584 17.3934 18.0098 17.3934 18.5354C17.3934 19.0613 16.9679 19.4875 16.4424 19.4875H13.9589C13.5667 19.4875 13.2315 19.2509 13.0851 18.9135C12.0688 18.6663 10.8927 18.2359 9.84295 17.4955C10.2617 18.5827 10.8586 19.749 11.7046 20.6748C10.108 21.4875 7.67369 22.7166 6.32944 23.3447C6.32944 23.3447 0.708154 25.9324 0.378112 32.1878C0.378112 32.1878 0.280489 33.228 2.25176 33.6219C2.25176 33.6219 8.29082 35.0001 15.5004 35.0001C22.7106 35.0001 28.7497 33.6219 28.7497 33.6219C30.7206 33.228 30.622 32.1878 30.622 32.1878Z" fill="#16D206"/>
<path d="M6.81562 16.2959H7.4156V9.24885C7.41703 9.2313 7.42121 9.21443 7.42121 9.19653V8.15596C7.42121 6.3009 7.99379 4.79727 9.12317 3.68653C11.4592 1.38807 15.4494 1.41936 15.5168 1.42879C15.5642 1.4253 19.5211 1.3684 21.8676 3.66508C23.0047 4.77799 23.5815 6.2886 23.5815 8.15596V9.25623C23.5815 9.2671 23.5843 9.27694 23.5843 9.28746V16.2958H24.1843C25.6609 16.2958 26.8577 15.099 26.8577 13.6228V11.0536C26.8577 9.86599 26.0822 8.86054 25.01 8.5126V8.15625C25.01 5.89045 24.2886 4.03613 22.8671 2.64447C20.0959 -0.0678052 15.6692 0.00242353 15.5144 0.000307515C15.3284 -0.00146537 10.8975 -0.0558528 8.12756 2.6614C6.71103 4.05163 5.99238 5.90034 5.99238 8.15596V8.51088C4.91881 8.85876 4.14258 9.86496 4.14258 11.0533V13.6224C4.14264 15.0991 5.33973 16.2959 6.81562 16.2959Z" fill="#16D206"/>
</svg>
