<svg width="34" height="34" viewBox="0 0 34 34" fill="none" xmlns="http://www.w3.org/2000/svg">
<circle cx="17" cy="17" r="16" fill="#3FE930" fill-opacity="0.1" stroke="#16D206" stroke-width="2"/>
<path fill-rule="evenodd" clip-rule="evenodd" d="M18.6288 25.4719L18.0867 26.3878C17.6035 27.2041 16.3965 27.2041 15.9133 26.3878L15.3712 25.4719C14.9508 24.7615 14.7405 24.4064 14.4028 24.2099C14.0651 24.0135 13.6399 24.0062 12.7896 23.9916C11.5342 23.9699 10.7469 23.893 10.0866 23.6195C8.86145 23.112 7.88807 22.1387 7.3806 20.9135C7 19.9946 7 18.8297 7 16.5V15.5C7 12.2266 7 10.5899 7.7368 9.38752C8.14908 8.71474 8.71474 8.14908 9.38752 7.7368C10.5899 7 12.2266 7 15.5 7H18.5C21.7735 7 23.4102 7 24.6126 7.7368C25.2854 8.14908 25.851 8.71474 26.2633 9.38752C27.0001 10.5899 27.0001 12.2266 27.0001 15.5V16.5C27.0001 18.8297 27.0001 19.9946 26.6195 20.9135C26.112 22.1387 25.1387 23.112 23.9135 23.6195C23.2532 23.893 22.4659 23.9699 21.2105 23.9916C20.3601 24.0062 19.935 24.0135 19.5972 24.2099C19.2595 24.4063 19.0492 24.7615 18.6288 25.4719ZM13 16.75C12.5858 16.75 12.25 17.0858 12.25 17.5C12.25 17.9142 12.5858 18.25 13 18.25H18.5C18.9142 18.25 19.25 17.9142 19.25 17.5C19.25 17.0858 18.9142 16.75 18.5 16.75H13ZM12.25 14C12.25 13.5858 12.5858 13.25 13 13.25H21.0001C21.4143 13.25 21.7501 13.5858 21.7501 14C21.7501 14.4142 21.4143 14.75 21.0001 14.75H13C12.5858 14.75 12.25 14.4142 12.25 14Z" fill="#16D206"/>
</svg>
