<svg width="243" height="137" viewBox="0 0 243 137" fill="none" xmlns="http://www.w3.org/2000/svg">
<path d="M210.52 117.92L181.381 47.2639C179.25 42.098 174.217 38.7246 168.628 38.7246H126.027H112.687H70.0855C64.4966 38.7246 59.463 42.098 57.3321 47.2639L28.1929 117.92C24.4494 127.004 31.1222 136.976 40.9463 136.976H112.687H126.027H197.767C207.591 136.976 214.269 126.999 210.52 117.92Z" fill="#0E7F3D"/>
<path d="M210.52 113.669L181.381 43.0129C179.25 37.847 174.217 34.4736 168.628 34.4736H126.027H112.687H70.0855C64.4966 34.4736 59.463 37.847 57.3321 43.0129L28.1929 113.669C24.4494 122.753 31.1222 132.725 40.9463 132.725H112.687H126.027H197.767C207.591 132.73 214.269 122.753 210.52 113.669Z" fill="#32B768"/>
<path d="M160.659 103.231C165.013 103.231 168.543 101.273 168.543 98.8581C168.543 96.4431 165.013 94.4854 160.659 94.4854C156.305 94.4854 152.776 96.4431 152.776 98.8581C152.776 101.273 156.305 103.231 160.659 103.231Z" fill="#0E7F3D"/>
<mask id="mask0_283_40307" style="mask-type:alpha" maskUnits="userSpaceOnUse" x="27" y="34" width="185" height="99">
<path d="M210.52 113.669L181.381 43.0129C179.25 37.847 174.217 34.4736 168.628 34.4736H126.027H112.687H70.0855C64.4966 34.4736 59.463 37.847 57.3321 43.0129L28.1929 113.669C24.4494 122.753 31.1222 132.725 40.9463 132.725H112.687H126.027H197.767C207.591 132.73 214.269 122.753 210.52 113.669Z" fill="#16D206"/>
</mask>
<g mask="url(#mask0_283_40307)">
<path d="M206.756 96.744H181.439C180.646 96.744 179.922 96.2945 179.589 95.5807C177.289 90.6528 169.907 87.1367 160.908 87.1367C160.85 87.1367 160.792 87.1367 160.739 87.1367L158.391 76.4454C158.111 75.1606 159.089 73.9445 160.401 73.9445H194.15C195.287 73.9445 196.207 73.0245 196.207 71.8877V71.7766C196.207 70.6398 195.287 69.7198 194.15 69.7198H158.566C157.598 69.7198 156.763 69.0483 156.557 68.1018L154.902 60.5672C154.621 59.2823 155.6 58.0662 156.911 58.0662H187.145C188.281 58.0662 189.201 57.1462 189.201 56.0094V55.8984C189.201 54.7616 188.281 53.8416 187.145 53.8416H155.081C154.114 53.8416 153.278 53.1701 153.072 52.2236L149.228 34.701C148.985 33.5906 147.885 32.8874 146.775 33.1306L146.664 33.157C145.553 33.4003 144.85 34.5 145.093 35.6104L148.546 51.3459C148.826 52.6307 147.848 53.8468 146.537 53.8468H101.144C99.8381 53.8468 98.8652 52.6466 99.1295 51.3723L102.503 35.0552C102.736 33.9396 102.016 32.8504 100.906 32.623L100.795 32.6018C99.6794 32.3692 98.5902 33.0883 98.3629 34.1987L94.6352 52.2077C94.4396 53.1648 93.5936 53.8521 92.6207 53.8521H75.7167C75.6955 53.8521 75.6585 53.8521 75.6268 53.8046C75.5951 53.757 75.6057 53.7252 75.6162 53.7041L77.1549 49.5587C77.2183 49.3842 77.2659 49.1992 77.2765 49.0088C77.4615 46.1219 75.299 44.1497 72.9355 44.1497C72.9249 44.1497 72.9143 44.1497 72.8985 44.1497H56.666C55.5292 44.1497 54.6092 45.0697 54.6092 46.2065V46.3175C54.6092 47.4543 55.5292 48.3743 56.666 48.3743H72.9143C72.9355 48.3796 72.9725 48.3743 73.0042 48.4219C73.0359 48.4695 73.0254 48.5012 73.0148 48.5224L71.4814 52.6624C71.418 52.8369 71.3704 53.022 71.3545 53.2124C71.1642 56.094 73.3162 58.0768 75.7114 58.0768H90.8811C92.1871 58.0768 93.16 59.2771 92.8956 60.5514L92.5361 62.2856C92.3404 63.2427 91.4945 63.93 90.5216 63.93H50.1466C49.0097 63.93 48.0897 64.85 48.0897 65.9868V66.0979C48.0897 67.2347 49.0097 68.1547 50.1466 68.1547H88.7979C90.1039 68.1547 91.0767 69.355 90.8124 70.6292L85.747 95.1102C85.5514 96.0672 84.7054 96.7545 83.7325 96.7545H33.6867C32.5499 96.7545 31.6299 97.6746 31.6299 98.8114V98.9224C31.6299 100.059 32.5499 100.979 33.6867 100.979H82.0088C83.3148 100.979 84.2877 102.179 84.0233 103.454L77.8845 133.122C77.6519 134.237 78.371 135.327 79.4814 135.554L79.5924 135.575C80.708 135.808 81.7973 135.089 82.0246 133.978L88.5123 102.613C88.708 101.656 89.554 100.969 90.5268 100.969H140.366C141.16 100.969 141.884 101.418 142.217 102.132C144.517 107.06 151.898 110.576 160.898 110.576C161.077 110.576 161.257 110.571 161.437 110.565L166.153 132.54C166.391 133.65 167.486 134.359 168.601 134.121L168.712 134.1C169.823 133.862 170.531 132.767 170.293 131.652L166.137 112.3C165.9 111.2 166.592 110.1 167.692 109.862C173.466 108.598 177.881 105.754 179.568 102.148C179.906 101.429 180.63 100.969 181.424 100.969H206.74C207.877 100.969 208.797 100.049 208.797 98.9118V98.8008C208.818 97.664 207.892 96.744 206.756 96.744ZM99.4098 58.061H148.366C149.334 58.061 150.169 58.7325 150.376 59.6789L152.031 67.2135C152.311 68.4984 151.333 69.7145 150.021 69.7145H130.415C125.699 69.7145 121.881 73.5373 121.881 78.2484V94.6819C121.881 95.8187 120.961 96.7387 119.825 96.7387H92.2664C90.9604 96.7387 89.9875 95.5384 90.2519 94.2641L97.4005 59.7C97.5909 58.743 98.4369 58.061 99.4098 58.061ZM140.372 96.744H128.168C127.031 96.744 126.111 95.824 126.111 94.6872V78.2537C126.111 75.8744 128.041 73.9497 130.415 73.9497H151.851C152.818 73.9497 153.654 74.6213 153.86 75.5677L156.001 85.3337C156.245 86.444 155.541 87.5544 154.426 87.787C148.493 89.0137 143.946 91.9007 142.228 95.5702C141.894 96.284 141.17 96.744 140.372 96.744ZM160.908 106.351C153.717 106.351 145.707 103.274 145.707 98.8589C145.707 94.4439 153.717 91.3666 160.908 91.3666C168.099 91.3666 176.11 94.4439 176.11 98.8589C176.104 103.274 168.094 106.351 160.908 106.351Z" fill="white"/>
</g>
<path opacity="0.3" d="M119.355 75.6568C144.325 75.6568 164.568 66.28 164.568 54.7131C164.568 43.1463 144.325 33.7695 119.355 33.7695C94.3842 33.7695 74.1416 43.1463 74.1416 54.7131C74.1416 66.28 94.3842 75.6568 119.355 75.6568Z" fill="white"/>
<path opacity="0.35" d="M119.354 68.4137C135.69 68.4137 148.932 62.2801 148.932 54.7139C148.932 47.1478 135.69 41.0142 119.354 41.0142C103.019 41.0142 89.7764 47.1478 89.7764 54.7139C89.7764 62.2801 103.019 68.4137 119.354 68.4137Z" fill="white"/>
<path opacity="0.35" d="M119.354 62.3379C128.442 62.3379 135.809 58.9243 135.809 54.7134C135.809 50.5025 128.442 47.0889 119.354 47.0889C110.267 47.0889 102.9 50.5025 102.9 54.7134C102.9 58.9243 110.267 62.3379 119.354 62.3379Z" fill="white"/>
<path d="M119.354 0.665527C107.801 0.665527 98.4373 10.0296 98.4373 21.588C98.4373 26.1564 100.383 30.4022 102.387 33.8179L113.977 53.3392C115.198 55.3854 117.266 56.4376 119.354 56.4799C121.443 56.4376 123.51 55.3854 124.732 53.3392L136.322 33.8179C138.326 30.4022 140.272 26.1564 140.272 21.588C140.272 10.0296 130.908 0.665527 119.354 0.665527ZM119.354 29.5509C114.781 29.5509 111.069 25.8391 111.069 21.2602C111.069 16.6865 114.781 12.9747 119.354 12.9747C123.928 12.9747 127.64 16.6865 127.64 21.2602C127.64 25.8391 123.928 29.5509 119.354 29.5509Z" fill="#E06738"/>
<path d="M192.421 79.9133H167.977C167.237 79.9133 166.634 79.3105 166.634 78.5702V58.5942H193.764V78.5702C193.764 79.3158 193.161 79.9133 192.421 79.9133Z" fill="#E06738"/>
<path d="M184.827 79.8133H175.6V71.1558C175.6 70.6031 176.204 70.157 176.953 70.157H183.475C184.223 70.157 184.827 70.6031 184.827 71.1558V79.8133Z" fill="white"/>
<path d="M192.309 53.8516H180.206H168.097L163.259 61.0372H180.206H197.152L192.309 53.8516Z" fill="#EDB82C"/>
<path d="M165.883 65.3524H165.46C164.239 65.3524 163.25 64.3636 163.25 63.1422V61.0378H168.093V63.1422C168.093 64.3636 167.105 65.3524 165.883 65.3524Z" fill="#EDB82C"/>
<path d="M170.79 65.3524H170.367C169.109 65.3524 168.094 64.3319 168.094 63.0788V61.0378H172.937V63.2057C172.937 64.3901 171.975 65.3524 170.79 65.3524Z" fill="#FDF0B9"/>
<path d="M172.937 53.8516H168.094V61.0372H172.937V53.8516Z" fill="#FDF0B9"/>
<path d="M182.624 53.8516H177.78V61.0372H182.624V53.8516Z" fill="#FDF0B9"/>
<path d="M192.305 53.8516H187.461V61.0372H192.305V53.8516Z" fill="#FDF0B9"/>
<path d="M175.57 65.3524H175.147C173.926 65.3524 172.937 64.3636 172.937 63.1422V61.0378H177.78V63.1422C177.78 64.3636 176.791 65.3524 175.57 65.3524Z" fill="#EDB82C"/>
<path d="M180.408 65.3524H179.985C178.764 65.3524 177.775 64.3636 177.775 63.1422V61.0378H182.618V63.1422C182.623 64.3636 181.629 65.3524 180.408 65.3524Z" fill="#FDF0B9"/>
<path d="M185.251 65.3524H184.828C183.607 65.3524 182.618 64.3636 182.618 63.1422V61.0378H187.461V63.1422C187.461 64.3636 186.473 65.3524 185.251 65.3524Z" fill="#EDB82C"/>
<path d="M190.094 65.3524H189.671C188.45 65.3524 187.461 64.3636 187.461 63.1422V61.0378H192.305V63.1422C192.305 64.3636 191.316 65.3524 190.094 65.3524Z" fill="#FDF0B9"/>
<path d="M194.938 65.3524H194.515C193.294 65.3524 192.305 64.3636 192.305 63.1422V61.0378H197.148V63.1422C197.148 64.3636 196.159 65.3524 194.938 65.3524Z" fill="#EDB82C"/>
<path d="M63.0478 88.5823H44.05C43.315 88.5823 42.7175 87.9848 42.7175 87.2498V80.1594C42.7175 79.4244 43.315 78.8269 44.05 78.8269H63.0478C63.7828 78.8269 64.3802 79.4244 64.3802 80.1594V87.2498C64.3855 87.9848 63.788 88.5823 63.0478 88.5823Z" fill="#E06738"/>
<path d="M63.0953 86.9809H44.0076V66.6189H63.0953V86.9809ZM45.5938 85.3947H61.509V68.2051H45.5938V85.3947Z" fill="#E06738"/>
<path d="M62.7251 63.0762H53.0649H43.4101L39.5449 69.6379H53.0649H66.585L62.7251 63.0762Z" fill="#EDB82C"/>
<path d="M47.2753 63.0757H43.4102V69.6321H47.2753V63.0757Z" fill="#FDF0B9"/>
<path d="M54.9999 63.0757H51.1348V69.6321H54.9999V63.0757Z" fill="#FDF0B9"/>
<path d="M62.7252 63.0757H58.8601V69.6321H62.7252V63.0757Z" fill="#FDF0B9"/>
<path d="M64.6548 73.5766C63.5867 73.5766 62.7249 72.7095 62.7249 71.6467V69.6375H66.59V71.6467C66.5847 72.7147 65.7228 73.5766 64.6548 73.5766Z" fill="#EDB82C"/>
<path d="M60.79 73.5766C59.722 73.5766 58.8601 72.7095 58.8601 71.6467V69.6375H62.7252V71.6467C62.7252 72.7147 61.8581 73.5766 60.79 73.5766Z" fill="#FDF0B9"/>
<path d="M56.9302 73.5766C55.8621 73.5766 55.0002 72.7095 55.0002 71.6467V69.6375H58.8654V71.6467C58.8601 72.7147 57.9982 73.5766 56.9302 73.5766Z" fill="#EDB82C"/>
<path d="M53.0647 73.5766C51.9966 73.5766 51.1348 72.7095 51.1348 71.6467V69.6375H54.9999V71.6467C54.9999 72.7147 54.1328 73.5766 53.0647 73.5766Z" fill="#FDF0B9"/>
<path d="M49.2056 73.5766C48.1375 73.5766 47.2756 72.7095 47.2756 71.6467V69.6375H51.1408V71.6467C51.1355 72.7147 50.2683 73.5766 49.2056 73.5766Z" fill="#EDB82C"/>
<path d="M45.3401 73.5766C44.272 73.5766 43.4102 72.7095 43.4102 71.6467V69.6375H47.2753V71.6467C47.27 72.7147 46.4081 73.5766 45.3401 73.5766Z" fill="#FDF0B9"/>
<path d="M41.4805 73.5766C40.4124 73.5766 39.5505 72.7095 39.5505 71.6467V69.6375H43.4157V71.6467C43.4104 72.7147 42.5432 73.5766 41.4805 73.5766Z" fill="#EDB82C"/>
<path d="M220.477 29.9741L224.606 51.7954C224.818 52.9111 226.272 53.2071 226.906 52.266L232.252 44.3242L241.452 41.6699C242.541 41.3527 242.705 39.8775 241.706 39.3329L222.2 28.7209C221.328 28.2451 220.292 29.0012 220.477 29.9741Z" fill="#EDB82C"/>
<path d="M168.258 19.2299C171.712 19.2299 174.513 16.4294 174.513 12.9748C174.513 9.52022 171.712 6.71973 168.258 6.71973C164.803 6.71973 162.003 9.52022 162.003 12.9748C162.003 16.4294 164.803 19.2299 168.258 19.2299Z" fill="#32B768"/>
<path d="M9.3165 105.013C14.4619 105.013 18.633 100.841 18.633 95.6961C18.633 90.5508 14.4619 86.3796 9.3165 86.3796C4.17114 86.3796 0 90.5508 0 95.6961C0 100.841 4.17114 105.013 9.3165 105.013Z" fill="#0E7F3D"/>
<path d="M61.6151 6.67677C61.3878 5.7779 59.6693 5.38662 57.364 5.57697C56.9146 5.61398 56.4916 5.36018 56.3118 4.94776C55.3865 2.82749 54.2285 1.49507 53.335 1.72243C52.4361 1.94979 52.0448 3.6682 52.2352 5.97353C52.2722 6.42296 52.0184 6.84597 51.606 7.02574C49.4857 7.95105 48.1533 9.10898 48.3806 10.0026C48.608 10.9014 50.3264 11.2927 52.6317 11.1024C53.0812 11.0653 53.5042 11.3191 53.6839 11.7316C54.6092 13.8518 55.7672 15.1843 56.6608 14.9569C57.5544 14.7296 57.9509 13.0111 57.7606 10.7058C57.7236 10.2564 57.9774 9.83338 58.3898 9.65361C60.51 8.73359 61.8425 7.57563 61.6151 6.67677Z" fill="#EDB82C"/>
</svg>
