<svg width="21" height="26" viewBox="0 0 21 26" fill="none" xmlns="http://www.w3.org/2000/svg">
<path d="M0.64917 10.3638L6.9609 14.8976C6.9609 14.8976 6.18194 11.2936 4.19438 7.49658C4.19486 7.49658 1.1168 8.96868 0.64917 10.3638Z" fill="#B8B8B8"/>
<path d="M0.921911 20.0895L6.96133 25.7859V15.5175L0.649181 10.7124C0.104278 13.58 0.921911 20.0895 0.921911 20.0895Z" fill="#B8B8B8"/>
<path d="M15.1431 5.65626V1.76219C15.1431 1.24858 14.7279 0.884478 14.2151 0.948143L5.37594 2.05296C4.86284 2.11663 4.44812 2.58548 4.44812 3.09922V7.16744C4.44812 7.16744 7.1366 12.1661 7.77961 16.5835C8.422 21.0009 7.19472 25.9409 7.19472 25.9409L18.8834 22.5116C18.8834 22.5116 21.6303 18.5593 19.877 13.212C18.1242 7.86492 15.1431 5.65626 15.1431 5.65626ZM12.0843 4.82647L8.38326 5.48535C8.32389 5.49606 8.26487 5.50068 8.2069 5.50068C7.73511 5.50068 7.31587 5.16496 7.23033 4.68643C7.13334 4.1497 7.49307 3.63596 8.03297 3.54005L11.7342 2.88157C12.2737 2.78573 12.7903 3.14293 12.8871 3.67981C12.9843 4.21723 12.6246 4.73042 12.0843 4.82647Z" fill="#B8B8B8"/>
</svg>
