<svg width="33" height="27" viewBox="0 0 33 27" fill="none" xmlns="http://www.w3.org/2000/svg">
<path d="M3.24481 4.52197V26.4996H32.4999V4.52197H3.24481ZM8.93568 23.4725H5.504V18.4965H6.19033V22.4773H8.93568V23.4725ZM8.93568 8.50283H6.19033V12.4837H5.504V7.50762H8.93568V8.50283ZM17.8866 23.4725C14.8553 23.4725 12.3674 19.9063 12.3674 15.4693C12.3674 11.0738 14.8267 7.46615 17.8866 7.46615C20.9465 7.46615 23.4059 11.0323 23.4059 15.4693C23.4059 19.9063 20.918 23.4725 17.8866 23.4725ZM30.6124 23.4725H27.1808V22.4773H29.9261V18.4965H30.6124V23.4725ZM30.6124 12.4837H29.9261V8.50283H27.1808V7.50762H30.6124V12.4837Z" fill="#16D206"/>
<path d="M20.146 17.4185C20.146 16.0915 19.6026 15.1793 18.4302 14.5573C17.5722 14.1011 17.2005 13.8108 17.2005 13.2303C17.2005 12.7327 17.515 12.318 18.1442 12.318C18.8019 12.318 19.2595 12.5668 19.5169 12.7742L19.86 11.0325C19.5741 10.8252 19.2023 10.6593 18.7161 10.5764V9.1665H17.0289V10.8252C16.1996 11.2813 15.7134 12.2351 15.7134 13.3962C15.7134 14.7646 16.4283 15.6769 17.515 16.2159C18.3158 16.6306 18.6303 16.9624 18.6303 17.5429C18.6303 18.1649 18.2586 18.5796 17.6008 18.5796C16.9717 18.5796 16.3426 18.2893 15.9422 17.999L15.6276 19.7821C15.9136 20.0309 16.4569 20.2383 17.0289 20.3212V21.6896H18.7161V20.1139C19.6884 19.6577 20.146 18.621 20.146 17.4185Z" fill="#16D206"/>
<path d="M31.1282 2.49023H1.87311V24.2191H2.55944V3.52692H31.1282V2.49023Z" fill="#16D206"/>
<path d="M29.755 0.5H0.5V22.2289H1.18634V1.49521H29.755V0.5Z" fill="#16D206"/>
</svg>
