<svg width="15" height="15" viewBox="0 0 15 15" fill="none" xmlns="http://www.w3.org/2000/svg">
<path fill-rule="evenodd" clip-rule="evenodd" d="M7.49986 6.00018V7.50022H8.99991C8.99991 6.67145 8.32864 6.00018 7.49986 6.00018ZM7.49986 3.00009V4.50013C9.15441 4.50013 10.4999 5.84567 10.4999 7.50022H12C12 5.01465 9.98543 3.00009 7.49986 3.00009ZM7.49986 0V1.50004C10.8082 1.50004 13.5 4.19187 13.5 7.50022H15.0001C15.0001 3.35785 11.6422 0 7.49986 0ZM10.989 13.6758C10.98 13.7028 10.9807 13.6991 10.989 13.6758V13.6758ZM10.5877 11.6839C10.0664 11.4034 9.53917 11.0838 8.9939 10.861C7.94012 10.4313 8.01138 11.7018 7.2591 12.1135C6.77009 12.3813 6.08007 11.896 5.65331 11.6275C4.90779 11.158 4.24701 10.5401 3.698 9.82536C3.41674 9.4601 2.79572 8.77313 2.87223 8.26086C2.99373 7.44784 3.95526 7.40707 3.68 6.41254C3.53299 5.88003 3.26974 5.35593 3.07248 4.84292C2.80847 4.15515 2.69972 3.71481 1.92945 3.75231C1.37293 3.77931 1.00392 4.01725 0.661913 4.46351C-0.263614 5.6688 -0.124112 7.29381 0.497657 8.6161C1.37818 10.4874 2.88723 12.2516 4.49902 13.3916C5.59556 14.1672 7.0401 14.8713 8.36763 14.9906C9.33966 15.0783 10.6995 14.5527 11.0475 13.4975C11.0235 13.571 11.0002 13.6421 10.989 13.6758C10.9972 13.6496 11.0152 13.5965 11.0475 13.4975C11.0827 13.391 11.1 13.3376 11.1082 13.3136C11.0977 13.3451 11.0737 13.4188 11.0482 13.4953C11.3542 12.5652 11.3917 12.1167 10.5877 11.6839ZM11.1082 13.3136C11.1142 13.2941 11.1142 13.2956 11.1082 13.3136V13.3136Z" fill="black"/>
</svg>
