<svg width="31" height="22" viewBox="0 0 31 22" fill="none" xmlns="http://www.w3.org/2000/svg">
<g clip-path="url(#clip0_1_11446)">
<path d="M30.3402 16.2148C30.2852 15.6409 30.2209 15.0678 30.1752 14.4932C30.0327 12.7119 29.9018 10.9307 29.7547 9.14948C29.7138 8.48545 29.4262 7.86067 28.9485 7.39768C27.5199 6.02588 26.0825 4.66362 24.6364 3.31092C24.1334 2.85417 23.5357 2.5141 22.8861 2.31498C21.1149 1.74189 19.3508 1.14789 17.5649 0.624365C16.864 0.412072 16.1372 0.297407 15.4049 0.283609C10.8264 0.25418 6.2471 0.268119 1.66779 0.268894C0.990151 0.268894 0.661011 0.60423 0.661011 1.28497C0.661011 4.31874 0.661011 7.35199 0.661011 10.3847C0.661011 11.0523 0.985504 11.3969 1.64301 11.4016C2.35395 11.4062 2.91853 11.6842 3.31272 12.2759C3.74641 12.9265 4.15919 13.5925 4.59056 14.2422C5.6531 15.85 7.08815 17.0667 8.66415 18.1447C10.2402 19.2227 11.7782 20.3286 13.3341 21.4229C13.9203 21.8341 14.1527 21.8372 14.7513 21.4415C15.2883 21.0947 15.7534 20.6477 16.1213 20.1249C16.8532 19.0717 16.9531 17.9433 16.4636 16.7716C16.3629 16.53 16.4148 16.4223 16.5891 16.2705C17.4208 15.5487 18.2417 14.8153 19.0673 14.0843C19.3992 13.801 19.6645 13.448 19.8442 13.0504C20.024 12.6528 20.1139 12.2204 20.1074 11.7841C20.1113 10.576 20.1074 9.36865 20.1074 8.16128V7.81278C20.6199 7.80796 21.1161 7.99213 21.5014 8.33011C22.193 8.94967 22.8698 9.58317 23.5212 10.2422C24.0578 10.7843 24.1949 11.4968 24.2631 12.2341C24.3545 13.2238 24.4621 14.2128 24.6023 15.1971C24.7099 15.9217 25.0908 16.5776 25.667 17.03C26.2431 17.4824 26.9706 17.697 27.7001 17.6297C28.229 17.5824 28.7572 17.5174 29.2877 17.4926C29.7903 17.4694 30.1574 17.2781 30.3448 16.7956L30.3402 16.2148ZM28.5349 15.8043C28.2104 15.8353 27.9154 15.8616 27.6172 15.891C26.9202 15.9607 26.3672 15.5185 26.289 14.8184C26.1659 13.7249 26.0567 12.6298 25.925 11.5379C25.8149 10.5297 25.3557 9.59166 24.6271 8.88617C24.0269 8.29759 23.4189 7.71675 22.7978 7.15063C22.0342 6.45363 21.1281 6.07725 20.0919 6.06641C18.4888 6.05401 16.8849 6.04937 15.281 6.06641C13.6353 6.08732 12.3435 6.80291 11.4359 8.17135C10.3579 9.79769 10.4183 12.0552 11.652 13.7536C12.1941 14.5048 12.9058 15.1383 13.5439 15.8213C13.8537 16.1528 14.1976 16.4548 14.481 16.8072C15.2795 17.7993 15.1912 18.7611 14.2642 19.6262C14.1186 19.7617 14.0218 19.7811 13.8499 19.6564C12.1894 18.4769 10.5197 17.3106 8.85544 16.1358C7.65907 15.2956 6.63769 14.2305 5.84826 13C5.45174 12.3805 5.06762 11.757 4.63935 11.1623C4.12047 10.4428 3.43121 9.94871 2.54369 9.76826C2.50121 9.75629 2.46017 9.73967 2.42133 9.7187V2.00753H2.61804C6.88757 2.00753 11.1579 1.99823 15.4274 2.01992C15.9875 2.0298 16.5433 2.12005 17.0777 2.28788C18.8399 2.82276 20.5925 3.38759 22.3355 3.98237C22.7925 4.13785 23.2139 4.38326 23.5746 4.70415C24.9516 5.96031 26.2898 7.25983 27.6428 8.54154C27.8787 8.76054 28.0194 9.06333 28.0346 9.38491C28.0935 10.2128 28.1663 11.0399 28.2313 11.8678C28.3297 13.1673 28.4304 14.4661 28.5349 15.8043ZM13.76 13.6359C14.3323 13.1278 14.8744 12.6492 15.4142 12.1683C15.748 11.8809 16.0141 11.5232 16.1934 11.1208C16.3726 10.7185 16.4607 10.2814 16.4512 9.84106C16.4512 9.27313 16.4512 8.70391 16.4512 8.1334V7.82363H18.3354C18.3477 7.85401 18.3562 7.88572 18.361 7.91811C18.361 9.24009 18.3811 10.5621 18.3486 11.8833C18.3367 12.1721 18.2213 12.447 18.0233 12.6577C17.1405 13.4918 16.2181 14.2841 15.2981 15.0996L13.76 13.6359ZM12.761 12.1993C11.8704 10.3994 12.8833 8.17213 14.6894 7.89488C14.6894 8.64609 14.7095 9.39653 14.6762 10.1408C14.652 10.3626 14.5512 10.5691 14.3912 10.7247C13.8739 11.2289 13.3232 11.6959 12.761 12.1985V12.1993Z" fill="white"/>
</g>
<defs>
<clipPath id="clip0_1_11446">
<rect width="29.6807" height="21.47" fill="white" transform="translate(0.659668 0.265015)"/>
</clipPath>
</defs>
</svg>
