<svg width="23" height="23" viewBox="0 0 23 23" fill="none" xmlns="http://www.w3.org/2000/svg">
<path d="M18.1965 11.1206C18.1965 11.363 18.1002 11.5956 17.9287 11.767C17.7573 11.9384 17.5248 12.0348 17.2823 12.0348C17.0399 12.0348 16.8074 11.9384 16.6359 11.767C16.4645 11.5956 16.3682 11.363 16.3682 11.1206C16.3682 10.8781 16.4645 10.6456 16.6359 10.4742C16.8074 10.3027 17.0399 10.2064 17.2823 10.2064C17.5248 10.2064 17.7573 10.3027 17.9287 10.4742C18.1002 10.6456 18.1965 10.8781 18.1965 11.1206Z" fill="#7A7F88"/>
<path fill-rule="evenodd" clip-rule="evenodd" d="M9.91749 3.1217H12.7624C14.4426 3.1217 15.7736 3.1217 16.8149 3.26157C17.8863 3.40601 18.7538 3.70951 19.4385 4.39331C20.2832 5.23891 20.5529 6.37065 20.6507 7.83972C21.1782 8.071 21.5768 8.56191 21.6197 9.18354C21.6243 9.23931 21.6243 9.29873 21.6243 9.35358V12.8877C21.6243 12.9426 21.6243 13.002 21.6207 13.0569C21.5768 13.6785 21.1782 14.1703 20.6507 14.4025C20.5529 15.8707 20.2832 17.0024 19.4385 17.848C18.7538 18.5318 17.8863 18.8353 16.8149 18.9798C15.7727 19.1196 14.4426 19.1196 12.7624 19.1196H9.91749C8.23725 19.1196 6.90623 19.1196 5.86499 18.9798C4.79359 18.8353 3.92604 18.5318 3.24133 17.848C2.55754 17.1633 2.25403 16.2958 2.10959 15.2244C1.96973 14.1822 1.96973 12.8521 1.96973 11.1719V11.0695C1.96973 9.38923 1.96973 8.0582 2.10959 7.01697C2.25403 5.94556 2.55754 5.07802 3.24133 4.39331C3.92604 3.70951 4.79359 3.40601 5.86499 3.26157C6.90714 3.1217 8.23725 3.1217 9.91749 3.1217ZM19.2639 14.5488H17.4923C15.5314 14.5488 13.853 13.0605 13.853 11.1207C13.853 9.1808 15.5314 7.69254 17.4914 7.69254H19.263C19.1588 6.46664 18.9239 5.8185 18.4677 5.36324C18.081 4.97655 17.5508 4.74435 16.6311 4.62094C15.6923 4.49478 14.4536 4.49295 12.7103 4.49295H9.96777C8.22445 4.49295 6.98667 4.49478 6.046 4.62094C5.12726 4.74435 4.59704 4.97655 4.21035 5.36324C3.82366 5.74993 3.59237 6.28015 3.46896 7.19889C3.3428 8.13865 3.34098 9.37643 3.34098 11.1197C3.34098 12.8631 3.3428 14.1018 3.46896 15.0415C3.59237 15.9603 3.82457 16.4905 4.21126 16.8772C4.59796 17.2639 5.12817 17.4961 6.04782 17.6195C6.98759 17.7456 8.22537 17.7475 9.96868 17.7475H12.7112C14.4545 17.7475 15.6932 17.7456 16.633 17.6195C17.5517 17.4961 18.0819 17.2639 18.4686 16.8772C18.9248 16.4219 19.1597 15.7747 19.2639 14.5479M5.62639 7.464C5.62639 7.28216 5.69863 7.10777 5.82721 6.97919C5.95579 6.85061 6.13018 6.77837 6.31202 6.77837H9.96868C10.1505 6.77837 10.3249 6.85061 10.4535 6.97919C10.5821 7.10777 10.6543 7.28216 10.6543 7.464C10.6543 7.64583 10.5821 7.82023 10.4535 7.94881C10.3249 8.07739 10.1505 8.14962 9.96868 8.14962H6.31202C6.13018 8.14962 5.95579 8.07739 5.82721 7.94881C5.69863 7.82023 5.62639 7.64583 5.62639 7.464ZM19.955 9.06379H17.4923C16.1905 9.06379 15.2242 10.0319 15.2242 11.1207C15.2242 12.2094 16.1905 13.1775 17.4914 13.1775H19.9761C20.1644 13.1657 20.2457 13.0386 20.2521 12.9618V9.27953C20.2457 9.20274 20.1644 9.07567 19.9761 9.0647L19.955 9.06379Z" fill="#7A7F88"/>
</svg>
