<svg width="27" height="27" viewBox="0 0 27 27" fill="none" xmlns="http://www.w3.org/2000/svg">
<path d="M1.09424 9.7999C1.09424 8.47442 2.16875 7.3999 3.49424 7.3999H22.6942C24.0198 7.3999 25.0942 8.47442 25.0942 9.7999V22.9999C25.0942 24.3254 24.0198 25.3999 22.6942 25.3999H3.49424C2.16875 25.3999 1.09424 24.3254 1.09424 22.9999V9.7999Z" stroke="black" stroke-width="2.112" stroke-linecap="round" stroke-linejoin="round"/>
<path d="M17.8942 7.3999V3.7999C17.8942 2.47442 16.8197 1.3999 15.4942 1.3999H10.6942C9.36871 1.3999 8.29419 2.47442 8.29419 3.7999V7.3999" stroke="black" stroke-width="2.112" stroke-linecap="round" stroke-linejoin="round"/>
<path d="M25.0942 13.3999L13.5649 15.7058C13.2542 15.7679 12.9343 15.7679 12.6236 15.7058L1.09424 13.3999" stroke="black" stroke-width="2.112" stroke-linecap="round" stroke-linejoin="round"/>
</svg>
